$MeshFormat
4.1 0 8
$EndMeshFormat
$Entities
4 4 1 0
1 0 0 0 0 
2 0.02 0 0 0 
3 0.02 0.01 0 0 
4 0 0.01 0 0 
1 0 0 0 0.02 0 0 1 1 2 1 -2 
2 0.02 0 0 0.02 0.01 0 1 2 2 2 -3 
3 0 0.01 0 0.02 0.01 0 1 3 2 3 -4 
4 0 0 0 0 0.01 0 1 4 2 4 -1 
1 0 0 0 0.02 0.01 0 1 1 4 1 2 3 4 
$EndEntities
$Nodes
9 999 1 999
0 1 0 1
1
0 0 0
0 2 0 1
2
0.02 0 0
0 3 0 1
3
0.02 0.01 0
0 4 0 1
4
0 0.01 0
1 1 0 39
5
6
7
8
9
10
11
12
13
14
15
16
17
18
19
20
21
22
23
24
25
26
27
28
29
30
31
32
33
34
35
36
37
38
39
40
41
42
43
0.0004999999999990619 0 0
0.0009999999999980118 0 0
0.001499999999997144 0 0
0.00199999999999639 0 0
0.002499999999995619 0 0
0.00299999999999406 0 0
0.003499999999992672 0 0
0.003999999999991045 0 0
0.004499999999989554 0 0
0.004999999999988165 0 0
0.005499999999986776 0 0
0.005999999999985251 0 0
0.006499999999983659 0 0
0.006999999999982302 0 0
0.00749999999998088 0 0
0.007999999999979423 0 0
0.008499999999977116 0 0
0.008999999999976235 0 0
0.00949999999997583 0 0
0.009999999999973931 0 0
0.01049999999997562 0 0
0.01099999999997637 0 0
0.01149999999997698 0 0
0.01199999999997901 0 0
0.01249999999998104 0 0
0.01299999999998192 0 0
0.0134999999999824 0 0
0.01399999999998443 0 0
0.01449999999998646 0 0
0.0149999999999868 0 0
0.01549999999998714 0 0
0.01599999999998917 0 0
0.0164999999999912 0 0
0.01699999999999323 0 0
0.01749999999999527 0 0
0.01799999999999499 0 0
0.01849999999999391 0 0
0.01899999999999594 0 0
0.01949999999999797 0 0
1 2 0 19
44
45
46
47
48
49
50
51
52
53
54
55
56
57
58
59
60
61
62
0.02 0.0004999999999990059 0
0.02 0.000999999999998195 0
0.02 0.00149999999999703 0
0.02 0.001999999999995523 0
0.02 0.002499999999994082 0
0.02 0.002999999999992625 0
0.02 0.003499999999991151 0
0.02 0.003999999999989711 0
0.02 0.004499999999988118 0
0.02 0.004999999999986965 0
0.02 0.005499999999988185 0
0.02 0.005999999999989505 0
0.02 0.006499999999990961 0
0.02 0.006999999999992215 0
0.02 0.007499999999993399 0
0.02 0.007999999999994584 0
0.02 0.008499999999996616 0
0.02 0.008999999999997496 0
0.02 0.009499999999997968 0
1 3 0 39
63
64
65
66
67
68
69
70
71
72
73
74
75
76
77
78
79
80
81
82
83
84
85
86
87
88
89
90
91
92
93
94
95
96
97
98
99
100
101
0.01949999999999808 0.01 0
0.01899999999999983 0.01 0
0.01850000000000212 0.01 0
0.0180000000000044 0.01 0
0.01750000000000669 0.01 0
0.01700000000000897 0.01 0
0.01650000000001031 0.01 0
0.01600000000001043 0.01 0
0.01550000000001028 0.01 0
0.01500000000001066 0.01 0
0.01450000000001295 0.01 0
0.01400000000001524 0.01 0
0.01350000000001752 0.01 0
0.01300000000001981 0.01 0
0.0125000000000204 0.01 0
0.01200000000002099 0.01 0
0.01150000000002328 0.01 0
0.01100000000002414 0.01 0
0.01050000000002453 0.01 0
0.01000000000002642 0.01 0
0.009500000000024704 0.01 0
0.009000000000023942 0.01 0
0.008500000000023314 0.01 0
0.008000000000021266 0.01 0
0.007500000000019219 0.01 0
0.007000000000018318 0.01 0
0.006500000000017827 0.01 0
0.006000000000015779 0.01 0
0.00550000000001373 0.01 0
0.005000000000013372 0.01 0
0.004500000000013016 0.01 0
0.004000000000010967 0.01 0
0.00350000000000892 0.01 0
0.003000000000006872 0.01 0
0.002500000000004825 0.01 0
0.002000000000005078 0.01 0
0.001500000000006146 0.01 0
0.001000000000004098 0.01 0
0.0005000000000020474 0.01 0
1 4 0 19
102
103
104
105
106
107
108
109
110
111
112
113
114
115
116
117
118
119
120
0 0.009499999999999915 0
0 0.009000000000002201 0
0 0.008500000000004487 0
0 0.008000000000005215 0
0 0.007500000000005332 0
0 0.007000000000007618 0
0 0.006500000000009904 0
0 0.006000000000010497 0
0 0.005500000000012072 0
0 0.005000000000013208 0
0 0.004500000000011971 0
0 0.004000000000010633 0
0 0.003500000000009159 0
0 0.00300000000000789 0
0 0.002500000000006686 0
0 0.002000000000005484 0
0 0.001500000000003436 0
0 0.001000000000002539 0
0 0.0005000000000020492 0
2 1 0 879
121
122
123
124
125
126
127
128
129
130
131
132
133
134
135
136
137
138
139
140
141
142
143
144
145
146
147
148
149
150
151
152
153
154
155
156
157
158
159
160
161
162
163
164
165
166
167
168
169
170
171
172
173
174
175
176
177
178
179
180
181
182
183
184
185
186
187
188
189
190
191
192
193
194
195
196
197
198
199
200
201
202
203
204
205
206
207
208
209
210
211
212
213
214
215
216
217
218
219
220
221
222
223
224
225
226
227
228
229
230
231
232
233
234
235
236
237
238
239
240
241
242
243
244
245
246
247
248
249
250
251
252
253
254
255
256
257
258
259
260
261
262
263
264
265
266
267
268
269
270
271
272
273
274
275
276
277
278
279
280
281
282
283
284
285
286
287
288
289
290
291
292
293
294
295
296
297
298
299
300
301
302
303
304
305
306
307
308
309
310
311
312
313
314
315
316
317
318
319
320
321
322
323
324
325
326
327
328
329
330
331
332
333
334
335
336
337
338
339
340
341
342
343
344
345
346
347
348
349
350
351
352
353
354
355
356
357
358
359
360
361
362
363
364
365
366
367
368
369
370
371
372
373
374
375
376
377
378
379
380
381
382
383
384
385
386
387
388
389
390
391
392
393
394
395
396
397
398
399
400
401
402
403
404
405
406
407
408
409
410
411
412
413
414
415
416
417
418
419
420
421
422
423
424
425
426
427
428
429
430
431
432
433
434
435
436
437
438
439
440
441
442
443
444
445
446
447
448
449
450
451
452
453
454
455
456
457
458
459
460
461
462
463
464
465
466
467
468
469
470
471
472
473
474
475
476
477
478
479
480
481
482
483
484
485
486
487
488
489
490
491
492
493
494
495
496
497
498
499
500
501
502
503
504
505
506
507
508
509
510
511
512
513
514
515
516
517
518
519
520
521
522
523
524
525
526
527
528
529
530
531
532
533
534
535
536
537
538
539
540
541
542
543
544
545
546
547
548
549
550
551
552
553
554
555
556
557
558
559
560
561
562
563
564
565
566
567
568
569
570
571
572
573
574
575
576
577
578
579
580
581
582
583
584
585
586
587
588
589
590
591
592
593
594
595
596
597
598
599
600
601
602
603
604
605
606
607
608
609
610
611
612
613
614
615
616
617
618
619
620
621
622
623
624
625
626
627
628
629
630
631
632
633
634
635
636
637
638
639
640
641
642
643
644
645
646
647
648
649
650
651
652
653
654
655
656
657
658
659
660
661
662
663
664
665
666
667
668
669
670
671
672
673
674
675
676
677
678
679
680
681
682
683
684
685
686
687
688
689
690
691
692
693
694
695
696
697
698
699
700
701
702
703
704
705
706
707
708
709
710
711
712
713
714
715
716
717
718
719
720
721
722
723
724
725
726
727
728
729
730
731
732
733
734
735
736
737
738
739
740
741
742
743
744
745
746
747
748
749
750
751
752
753
754
755
756
757
758
759
760
761
762
763
764
765
766
767
768
769
770
771
772
773
774
775
776
777
778
779
780
781
782
783
784
785
786
787
788
789
790
791
792
793
794
795
796
797
798
799
800
801
802
803
804
805
806
807
808
809
810
811
812
813
814
815
816
817
818
819
820
821
822
823
824
825
826
827
828
829
830
831
832
833
834
835
836
837
838
839
840
841
842
843
844
845
846
847
848
849
850
851
852
853
854
855
856
857
858
859
860
861
862
863
864
865
866
867
868
869
870
871
872
873
874
875
876
877
878
879
880
881
882
883
884
885
886
887
888
889
890
891
892
893
894
895
896
897
898
899
900
901
902
903
904
905
906
907
908
909
910
911
912
913
914
915
916
917
918
919
920
921
922
923
924
925
926
927
928
929
930
931
932
933
934
935
936
937
938
939
940
941
942
943
944
945
946
947
948
949
950
951
952
953
954
955
956
957
958
959
960
961
962
963
964
965
966
967
968
969
970
971
972
973
974
975
976
977
978
979
980
981
982
983
984
985
986
987
988
989
990
991
992
993
994
995
996
997
998
999
0.01475000000001198 0.009566987298109697 0
0.009749999999975134 0.0004330127018911014 0
0.005749999999986013 0.0004330127018908695 0
0.01225000000002068 0.009566987298109167 0
0.007750000000028233 0.009566987298109191 0
0.01374999999998348 0.0004330127018932683 0
0.005250000000013745 0.009566987298107224 0
0.009750000000025731 0.009566987298108367 0
0.00774999999997993 0.0004330127018906962 0
0.01174999999997762 0.0004330127018929574 0
0.01954508214174492 0.004769508375030966 0
0.0004549178582785598 0.00476950837503972 0
0.01574999999998838 0.0004330127018931805 0
0.00372997821334918 0.0004191013759582122 0
0.01954587692226359 0.006763990162831312 0
0.003250000000011074 0.009566987298107139 0
0.0004167505636856853 0.006758073703641587 0
0.01675000000000984 0.009566987298110508 0
0.01955102572476742 0.002777608549440312 0
0.0004774954047855638 0.003183509873470888 0
0.01724999999999425 0.0004330127018929799 0
0.002271644880019867 0.0004490051865268848 0
0.001750000000008868 0.009566987298108563 0
0.01956698729810698 0.008249999999995492 0
0.0003983015083525014 0.001720762253245101 0
0.00044817993236302 0.008258577173077326 0
0.01826773140080355 0.009524393310783023 0
0.006250000000020515 0.009566987298106299 0
0.01325000000001822 0.009566987298109569 0
0.008750000000026258 0.009566987298108063 0
0.01575000000001037 0.009566987298109149 0
0.01075000000002448 0.009566987298109057 0
0.010749999999976 0.0004330127018928063 0
0.000459550524836315 0.005720774599659879 0
0.01952323541918513 0.005709812863755541 0
0.014749999999987 0.0004330127018932061 0
0.004250000000011992 0.009566987298106736 0
0.004749999999988859 0.000433012701890972 0
0.01274999999998072 0.0004330127018932405 0
0.006771644880007381 0.0004490051865285222 0
0.01960169849166318 0.001720762253244596 0
0.01824999999999445 0.0004330127018912792 0
0.008749999999976766 0.0004330127018907157 0
0.01952144635515191 0.00382519843991164 0
0.001256753576066091 0.0004753894042892975 0
0.01920408719047036 0.009547151376278746 0
0.000769337567317363 0.00957815184779038 0
0.01928027864628261 0.0004144963431628244 0
0.0004240590088946051 0.0007492209605173007 0
0.009250000000025752 0.009566987298108105 0
0.009500000000026395 0.009133974596216699 0
0.01000000000002576 0.009133974596217391 0
0.009750000000026422 0.008700961894325855 0
0.01025000000002538 0.008700961894326535 0
0.01000000000002628 0.008267949192435014 0
0.009500000000027469 0.008267949192434397 0
0.009750000000027358 0.007834936490543508 0
0.009250000000028492 0.007834936490542925 0
0.009500000000028434 0.007401923788651986 0
0.009000000000029542 0.007401923788651384 0
0.01000000000002704 0.007401923788652739 0
0.009250000000029505 0.006968911086760419 0
0.008750000000030596 0.006968911086759813 0
0.00900000000003057 0.006535898384868847 0
0.008500000000031673 0.006535898384868235 0
0.008750000000031644 0.006102885682977292 0
0.008250000000032773 0.006102885682976677 0
0.008500000000032719 0.005669872981085758 0
0.008000000000033883 0.00566987298108514 0
0.009000000000031573 0.005669872981086357 0
0.008250000000033821 0.005236860279194245 0
0.00775000000003501 0.005236860279193629 0
0.007500000000035358 0.005669872981084341 0
0.007250000000036174 0.005236860279192946 0
0.007000000000036492 0.005669872981083744 0
0.00675000000003719 0.005236860279192076 0
0.006500000000037394 0.005669872981083187 0
0.006250000000038066 0.005236860279191372 0
0.006000000000038197 0.005669872981082642 0
0.005750000000038785 0.005236860279190975 0
0.005500000000038812 0.005669872981082171 0
0.005250000000039354 0.005236860279190302 0
0.005000000000039407 0.00566987298108157 0
0.004750000000040016 0.005236860279189729 0
0.008000000000034946 0.004803847577302755 0
0.006000000000038651 0.004803847577299326 0
0.004500000000039845 0.005669872981080926 0
0.004250000000040672 0.005236860279189186 0
0.00450000000004082 0.004803847577297872 0
0.00400000000004156 0.00480384757729732 0
0.004250000000041654 0.004370834875406023 0
0.004000000000040646 0.005669872981080255 0
0.003750000000042431 0.004370834875405489 0
0.006750000000038188 0.006102885682974339 0
0.004750000000040034 0.006102885682972582 0
0.004000000000042496 0.003937822173514171 0
0.003500000000043333 0.003937822173513687 0
0.003750000000043401 0.003504809471622366 0
0.004250000000042585 0.003504809471622946 0
0.00325000000004437 0.00350480947162196 0
0.003250000000043097 0.004370834875404983 0
0.008500000000031115 0.007401923788650515 0
0.00400000000004351 0.003071796769731178 0
0.004500000000042565 0.003071796769731734 0
0.004250000000043517 0.002638784067840084 0
0.004750000000042512 0.002638784067840667 0
0.005000000000041614 0.003071796769732296 0
0.005250000000041504 0.002638784067841214 0
0.005500000000040533 0.00307179676973278 0
0.005750000000040422 0.00263878406784178 0
0.006000000000039411 0.0030717967697333 0
0.006250000000039319 0.002638784067842338 0
0.006500000000038259 0.003071796769733814 0
0.006750000000038133 0.002638784067842923 0
0.007000000000037037 0.003071796769734319 0
0.007250000000036862 0.002641135809867893 0
0.007500000000035751 0.003072188726738896 0
0.007750000000035544 0.00264159309303986 0
0.00800000000003441 0.003072330266768663 0
0.008250000000034187 0.002639341154882772 0
0.008500000000033044 0.003071978533747803 0
0.008750000000032824 0.00263890720968679 0
0.009000000000031712 0.003071847587378931 0
0.009250000000031518 0.002641164803117223 0
0.009500000000030463 0.00307220202855627 0
0.009750000000030337 0.002641600142218806 0
0.01000000000002936 0.003072333658602969 0
0.0102500000000293 0.002639342895052849 0
0.01050000000002839 0.003071979389083464 0
0.01075000000002836 0.002638907642272239 0
0.01100000000002745 0.003071847802033791 0
0.01075000000002742 0.00350484841356993 0
0.01125000000002649 0.003504824467336253 0
0.01100000000002647 0.003937831163129155 0
0.01150000000002551 0.003937826171074279 0
0.01175000000002553 0.003504812637173958 0
0.01200000000002457 0.003937823367371822 0
0.01225000000002463 0.003504810198196812 0
0.01250000000002372 0.003937822493592317 0
0.01225000000002364 0.004370835127734112 0
0.01275000000002277 0.004370834970813181 0
0.01250000000002268 0.004803847635259197 0
0.0130000000000218 0.004803847602865379 0
0.01325000000002194 0.004370834895575135 0
0.01350000000002096 0.004803847584927177 0
0.01375000000002111 0.004370834880046166 0
0.01400000000002017 0.004803847579349779 0
0.01425000000002035 0.004370834876528953 0
0.01450000000001946 0.004803847577834483 0
0.01475000000001969 0.004370834875690594 0
0.01500000000001883 0.004803847577442657 0
0.0152500000000191 0.004370834875486046 0
0.01375000000001994 0.005236860280809531 0
0.01550000000001844 0.00480384757734371 0
0.01525000000001801 0.005236860279229347 0
0.01575000000001788 0.005236860279212337 0
0.01575000000001983 0.004370834875436123 0
0.01550000000001722 0.005669872981099861 0
0.01600000000001691 0.005669872981096839 0
0.01500000000002059 0.003937822173583426 0
0.01575000000001638 0.006102885682987024 0
0.01625000000001577 0.006102885682986881 0
0.01650000000001596 0.005669872981094779 0
0.0160000000000155 0.00653589838487792 0
0.01550000000001615 0.006535898384876952 0
0.01650000000001488 0.006535898384878368 0
0.01625000000001462 0.006968911086769612 0
0.01675000000001409 0.006968911086770286 0
0.00975000000002945 0.003504866696342513 0
0.003750000000044553 0.002638784067839462 0
0.01275000000002387 0.003504809646071025 0
0.01250000000002475 0.003071796919907514 0
0.01300000000002406 0.003071796783823499 0
0.01275000000002484 0.002638784095223577 0
0.01325000000002444 0.002638784074758656 0
0.009500000000029455 0.00653589838486945 0
0.01050000000002491 0.008267949192435654 0
0.01275000000002168 0.005236860293116572 0
0.01225000000002261 0.005236860291175985 0
0.01250000000002159 0.005669872982212644 0
0.01200000000002254 0.005669872983272192 0
0.01225000000002155 0.006102885683531394 0
0.01275000000002056 0.006102885683259908 0
0.01250000000002054 0.006535898385010241 0
0.01300000000001951 0.006535898384942043 0
0.0127500000000195 0.006968911086798142 0
0.01325000000001844 0.00696891108678147 0
0.01300000000001879 0.007401923788663973 0
0.01350000000001754 0.007401923788660075 0
0.01225000000002084 0.006968911086792299 0
0.01700000000001438 0.006535898384879092 0
0.01725000000001364 0.006968911086771026 0
0.01750000000001403 0.006535898384879681 0
0.01175000000002254 0.006102885683435413 0
0.01150000000002353 0.005669872981527838 0
0.005750000000039307 0.006102885682973535 0
0.01650000000001377 0.007401923788661609 0
0.01600000000001451 0.007401923788660923 0
0.01775000000001333 0.006968911086771713 0
0.01750000000001289 0.007401923788663208 0
0.01375000000001736 0.006968911086768327 0
0.01400000000001626 0.007401923788657615 0
0.008500000000033738 0.004803847577303373 0
0.01375000000001644 0.007834936490548127 0
0.01425000000001505 0.007834936490548162 0
0.01125000000002353 0.006102885683128269 0
0.01100000000002453 0.005669872981185445 0
0.01625000000001354 0.007834936490552778 0
0.01002002178667254 0.002220245175483229 0
0.008978355120007917 0.002190196194167679 0
0.008021997259795027 0.002192895088590925 0
0.006979978213386388 0.002220074648893389 0
0.006000000000040343 0.002205771365950858 0
0.005000000000042402 0.002205771365949643 0
0.004000000000044527 0.002205771365948439 0
0.003500000000045622 0.002205771365947833 0
0.01301966940692329 0.002217127509038451 0
0.01350327823450778 0.002210015799647286 0
0.0125028099152841 0.002157171195722006 0
0.01375054637243805 0.002639491474616174 0
0.01400063743450737 0.00220894841472535 0
0.01800000000001266 0.007401923788663985 0
0.01775000000001224 0.007834936490555529 0
0.01800000000001375 0.006535898384880002 0
0.01775000000001553 0.006102885682987949 0
0.007000000000037221 0.004803847577301317 0
0.01575000000001445 0.007834936490552162 0
0.01500000000001754 0.005669872981098397 0
0.00475000000004088 0.004370834875406612 0
0.008000000000033057 0.006535898384867453 0
0.01425019730117346 0.002639431477105825 0
0.01450013912262979 0.00220876051765353 0
0.01475005607064972 0.002639390161342529 0
0.01500003253222949 0.002208722315514689 0
0.01525001476716232 0.002639376908359209 0
0.01550000788324817 0.002208713739661246 0
0.01575000377508414 0.002639373270220074 0
0.01600000194307156 0.002208711703996143 0
0.01625000095304164 0.002639372324586371 0
0.01650000048270168 0.002206359465088792 0
0.01675000023930619 0.002638980127163162 0
0.0170000001203507 0.002205902059034122 0
0.01725000005995831 0.002638838526583797 0
0.01700000004989269 0.003071838522751765 0
0.01750000001832352 0.003071812805034914 0
0.01725000001138433 0.003504819103019675 0
0.01750000003006738 0.002205802224595451 0
0.01775000000496582 0.003504813749416109 0
0.01750000000273956 0.003937824491722464 0
0.01800000000129826 0.003937823272858042 0
0.01775000000068706 0.004370835445007844 0
0.01800000000389643 0.003071800155257192 0
0.01725000000058515 0.004370835356717465 0
0.01400000000001518 0.008267949192438732 0
0.01350000000001664 0.008267949192438067 0
0.009000000000029013 0.008267949192433647 0
0.01450000000001379 0.008267949192439153 0
0.01627199766407366 0.001759909440860468 0
0.0152500000000247 0.00177275866406688 0
0.01425000000002492 0.001772758664065871 0
0.01332630524796388 0.001773035055492151 0
0.01824359069893144 0.007831236078852069 0
0.01824944004877241 0.004371158441764725 0
0.01825000000001483 0.006102885682988086 0
0.01725000002508607 0.001772785589353742 0
0.01775000000241496 0.00177276117100787 0
0.003750000000045563 0.001775110406081872 0
0.003250000000046663 0.001775502363085398 0
0.003000000000046713 0.002206228649118849 0
0.002750000000047687 0.001775643903114223 0
0.002500000000047643 0.002206328452985172 0
0.002250000000048541 0.001775684127096227 0
0.00200000000004835 0.002206351790959455 0
0.002250000000047555 0.002638784067838077 0
0.001750000000048075 0.002638880805339793 0
0.00200000000004733 0.003071812892646745 0
0.001750000000049187 0.001773342978729941 0
0.007750000000035057 0.003504888166697852 0
0.01675000001022778 0.003504818035701632 0
0.006750000000037716 0.003504809471625556 0
0.008750000000032825 0.003504848235237521 0
0.01425000000001624 0.006968911086766164 0
0.005750000000039621 0.003504809471624397 0
0.01125000000002556 0.004370837039939734 0
0.01075000000002697 0.004370836734434968 0
0.01400000000001734 0.006535898384874446 0
0.01400000000002157 0.003937822174482239 0
0.01125000000002748 0.002638813168967561 0
0.01100000000002834 0.002205796811879925 0
0.01799990667492353 0.004803901599967792 0
0.01075000000002455 0.006102885683019591 0
0.01050000000002599 0.005669872981110162 0
0.01100000000002387 0.006535898384901983 0
0.01600000000001344 0.008267949192443289 0
0.01650000000001248 0.008267949192444434 0
0.01799893178316491 0.008249089866598915 0
0.003000000000047782 0.001339745962164615 0
0.01845950355711477 0.007374865582076004 0
0.01849933116905709 0.004804233797003747 0
0.01846184232895792 0.008247427719454142 0
0.0184972440533654 0.003936985595524695 0
0.001507265856092689 0.00306762063585558 0
0.001758476832099602 0.003499921192518383 0
0.001251210976055842 0.00263810416844177 0
0.01550000000001295 0.00826794919244141 0
0.01475000000001416 0.007834936490548955 0
0.0174998219638707 0.008264805971471983 0
0.01600000000002327 0.003071796769744158 0
0.01800000000542908 0.00220577692689083 0
0.01825000000132316 0.0017727600087152 0
0.01850000000114024 0.002205772516891692 0
0.004250000000044404 0.001773150621061656 0
0.008250000000034867 0.004370834875411901 0
0.008750000000033651 0.004370834875412503 0
0.01550000000001487 0.00740192378866003 0
0.009000000000032546 0.004803847577303981 0
0.009250000000032234 0.004370834875413229 0
0.009500000000031353 0.004803847577304618 0
0.007750000000036105 0.004370834875411288 0
0.01325000000001956 0.006102885683039551 0
0.01450000000001629 0.006535898384874308 0
0.01849109826067017 0.006530758963274278 0
0.01425000000001748 0.006102885682982833 0
0.01425000000001395 0.008700961894329621 0
0.002251412805388563 0.003503997445590764 0
0.002001648272945519 0.003936872122657586 0
0.001513794513903874 0.00394095601199695 0
0.00175313374940546 0.004371522128196932 0
0.00225079700375516 0.004370791075727807 0
0.002000655125557012 0.004803954819482192 0
0.001501191430758018 0.004804303281313166 0
0.001750307759416204 0.005236954103554646 0
0.002250000000044744 0.005236860279187953 0
0.002000051293273239 0.005669888618473558 0
0.002500008548915203 0.005669875587311961 0
0.002250009973727225 0.006102888723575125 0
0.002750001575090132 0.006102886163144339 0
0.002500001924831312 0.006535898971658675 0
0.003000000416689429 0.006535898511883035 0
0.002750000390281265 0.00696891120572382 0
0.003250000000041701 0.006968911086754839 0
0.003000000065081302 0.007401923808474879 0
0.003500000010881265 0.007401923791951801 0
0.002500000075921398 0.007401923811779055 0
0.002750000023527666 0.007834936497698753 0
0.00225000001660207 0.007834936495586994 0
0.002000000015448326 0.007401923793342956 0
0.002500000006715154 0.008267949194465402 0
0.003000000003629535 0.008267949193523524 0
0.002000000003913134 0.008267949193610782 0
0.001752113877830936 0.006101674243472291 0
0.003750000001848316 0.006968911087306025 0
0.004000000002149021 0.007401923789290065 0
0.002250000001797865 0.008700961894858361 0
0.002750001424855431 0.005236860713560262 0
0.00375000000219888 0.007834936491193937 0
0.004250000000040927 0.007834936490539809 0
0.004500000000392437 0.007401923788754899 0
0.004750000000099361 0.007834936490556386 0
0.005000000000109283 0.007401923788668643 0
0.005250000000040663 0.007834936490540265 0
0.005500000000052231 0.007401923788651735 0
0.005750000000042448 0.007834936490541107 0
0.006000000000042958 0.007401923788649213 0
0.006250000000040444 0.007834936490540784 0
0.006500000000041011 0.007401923788648916 0
0.00675000000004045 0.007834936490541095 0
0.005500000000036148 0.008267949192429336 0
0.004500000000042403 0.008267949192431536 0
0.006500000000040181 0.008267949192433193 0
0.007000000000040288 0.008267949192433453 0
0.007000000000040554 0.007401923788649039 0
0.00675000000003999 0.008700961894324443 0
0.01075000000002431 0.008700961894327178 0
0.01100000000002374 0.008267949192436272 0
0.01125000000002335 0.008700961894327619 0
0.01150000000002268 0.008267949192436778 0
0.0112500000000236 0.007834936490545391 0
0.01175000000002223 0.007834936490546047 0
0.01200000000002133 0.00826794919243738 0
0.01150000000002751 0.002205773732463446 0
0.01125000000002836 0.001775115041494265 0
0.0107500000000292 0.001773155634622919 0
0.01150000000002342 0.007401923788654511 0
0.0110000000000243 0.007401923788653669 0
0.01450002154524237 0.003071903360112139 0
0.01170833333335299 0.001768718887329691 0
0.01050000000002508 0.006535898384882273 0
0.009750000000030332 0.004370834875413203 0
0.0100000000000297 0.00480384757730455 0
0.01475000000001237 0.008700961894330389 0
0.005250000000054132 0.006968911086760322 0
0.009750000000029922 0.005236860279195885 0
0.006250000000040964 0.006968911086756971 0
0.01625000000001215 0.008700961894334351 0
0.007250000000040278 0.008700961894324408 0
0.007500000000040611 0.008267949192433517 0
0.007750000000040566 0.008700961894324467 0
0.008000000000038806 0.008267949192432527 0
0.008250000000039438 0.008700961894325423 0
0.001750000000978608 0.008700961894606634 0
0.001500000000842534 0.008267949192674016 0
0.001250000000040522 0.008700961894321404 0
0.01675000000001137 0.008700961894336241 0
0.01781027309405143 0.008732720149643148 0
0.007750000000038421 0.007834936490540604 0
0.006250000000036096 0.008700961894321808 0
0.001250249865060432 0.005236951867251102 0
0.01100000000002916 0.001339745962172656 0
0.01057382508571404 0.00133499808797175 0
0.00402164488006021 0.001324210760705891 0
0.004503607480046698 0.001339573830115465 0
0.0175000000046003 0.001342102609572299 0
0.01702199726472603 0.001326705928221347 0
0.001979978213397895 0.001354242251053756 0
0.001496663035608031 0.001344611138115336 0
0.01873670122195314 0.006095207629894565 0
0.01475000000001542 0.006968911086766528 0
0.01125000000002455 0.005236860279285692 0
0.01824987297400995 0.005236933652928472 0
0.01774998126268097 0.005236871112229647 0
0.01874986735719059 0.005236936878107229 0
0.01225000000002072 0.007834936490546457 0
0.01250000000001989 0.008267949192437868 0
0.003250000331991141 0.006102885784170312 0
0.0132500000000232 0.003504809503052911 0
0.01175000000002652 0.002638789312452578 0
0.01225000000002043 0.008700961894328629 0
0.01275000000001917 0.008700961894328516 0
0.007000000000032831 0.009133974596215382 0
0.001264401499664459 0.001782302721724147 0
0.01873504234006535 0.001781394889235988 0
0.01849750705691444 0.001343537299171559 0
0.001058831365394266 0.001386582086547581 0
0.01894791158685409 0.001377917160272118 0
0.01898074390492678 0.002215729920064192 0
0.01873382060974968 0.002632955761870839 0
0.01872501572324725 0.0009052181604704931 0
0.00427842225639661 0.0008977444532487386 0
0.001674198107783459 0.0009126475409545936 0
0.01904955536671307 0.006526861527328261 0
0.001020984539655014 0.003096941138376932 0
0.0007540471574739923 0.002687387757707975 0
0.000814694694954623 0.003582241777520815 0
0.0009945274704345457 0.004794374862677834 0
0.0007487823589209858 0.005240247114286538 0
0.0007896466824549197 0.004361669614594279 0
0.0009997171130414252 0.00568368897792789 0
0.0007770979295303571 0.006138688937309024 0
0.01900557916659656 0.004794360783776761 0
0.01924838594165087 0.005238415313625849 0
0.01924342035928003 0.004330050280827234 0
0.0009913633222283329 0.008266387189244809 0
0.001248560553872743 0.007834676156714505 0
0.0007500000000408781 0.008700961894321022 0
0.0007500000000418544 0.007834936490537315 0
0.00100873468856013 0.007407061885214992 0
0.0004871810576581366 0.007363061855536185 0
0.002000000000478241 0.00913397459635179 0
0.002500000000391936 0.009133974596329154 0
0.001003222927918346 0.009135835354492186 0
0.008000000000036823 0.00913397459621682 0
0.009000000000029068 0.009133974596216086 0
0.009000000000032496 0.003937828634122745 0
0.008000000000035217 0.003937835289364758 0
0.01124999999997684 0.0004306609598678749 0
0.0114999999999775 0.0008660254037849198 0
0.01201966940688429 0.000854669266413816 0
0.01024999999997503 0.0004306609598671067 0
0.009978355119959977 0.0008816259314110316 0
0.009496392519972571 0.0008686254917197562 0
0.009702501513275213 0.001338759994915374 0
0.009261504125509617 0.001292180442598555 0
0.009499999999973524 0.001732050807563161 0
0.007500000000036384 0.003937837475338006 0
0.01075000000002494 0.006968911086769448 0
0.0112500000000236 0.006968911086769068 0
0.01898954983516353 0.00566870040875167 0
0.01125000000002361 0.009566987298109383 0
0.01500000000001619 0.006535898384875827 0
0.01726001584299479 0.008705731066725321 0
0.01750000000001102 0.009133974596230303 0
0.01956934664506626 0.008745913491190291 0
0.01916187840561884 0.008499318915194761 0
0.01917020555731469 0.008014336307955084 0
0.0191530632349436 0.009002977454969172 0
0.01869453149429616 0.008691604348650704 0
0.01872289375215747 0.009238531666689137 0
0.01827160083406272 0.008997232839677337 0
0.006750000000024643 0.009566987298107886 0
0.01700163963448569 0.008268220184347636 0
0.01525000000001066 0.009566987298109415 0
0.01550000000001061 0.009133974596220232 0
0.005750000000015444 0.009566987298106391 0
0.005500000000018624 0.009133974596213526 0
0.005000000000015165 0.009133974596215287 0
0.005250000000028496 0.008700961894320857 0
0.00600000000002497 0.009133974596212843 0
0.01954962946319065 0.006260436889987846 0
0.01913597512677582 0.007048707653326733 0
0.01025000000002588 0.009566987298108787 0
0.001501215876334387 0.007402736749886459 0
0.001264355800323013 0.006977233761333993 0
0.0162500000000103 0.009566987298110561 0
0.01624999999998987 0.0004330127018932546 0
0.01598033059308968 0.0008546692664180328 0
0.01549672176550503 0.0008617809721999768 0
0.0156736947520474 0.001298761715182085 0
0.01641571628504773 0.0008505568242630464 0
0.0004762391357802904 0.002241213556623627 0
0.01175000000002214 0.009566987298109635 0
0.01671628330726848 0.0004190784679380651 0
0.0122532782344639 0.0004311200123310216 0
0.0125038246068783 0.0008638172659633326 0
0.01300063743446441 0.0008633056387906071 0
0.01272874641378295 0.001311654084608631 0
0.01229204007125541 0.001303312957024878 0
0.01325010623906261 0.0004325594077272161 0
0.01350012394557644 0.0008631448185676163 0
0.0140000206575836 0.0008631935642248271 0
0.01375398010469248 0.001326921788825142 0
0.0003874230353513458 0.001236190773557257 0
0.01150000000002289 0.009133974596218822 0
0.003750000000010782 0.009566987298106521 0
0.004000000000011613 0.009133974596213181 0
0.003500000000015961 0.009133974596211552 0
0.003750000000020878 0.008700961894317917 0
0.004250000000024683 0.008700961894320959 0
0.0152494536275737 0.0004323052966287535 0
0.0149993625655047 0.0008628483556194933 0
0.01449989720383903 0.0008626721804732142 0
0.01474999999998722 0.001299038105678656 0
0.002753607479998704 0.0004333263739720054 0
0.002528422256358891 0.0008750401905753308 0
0.01030568471870252 0.001797564982859937 0
0.01424999501100689 0.0004326370299501314 0
0.006750000000040447 0.006968911086757203 0
0.007250000000039177 0.006968911086757074 0
0.007000000000039121 0.006535898384865546 0
0.00750000000003832 0.007401923788648777 0
0.01275000000001925 0.007834936490547896 0
0.01100000000002569 0.004803847751868484 0
0.01150000000002458 0.004803847967168338 0
0.0107500000000261 0.005236860308324778 0
0.01275000000001969 0.009566987298109243 0
0.01775000001961619 0.002638802451036138 0
0.004750000000043146 0.001772758664057978 0
0.005000601246710418 0.001342069015516922 0
0.00824999999997823 0.0004330127018906927 0
0.007999999999979048 0.0008660254037814686 0
0.007499999999980625 0.0008660254037813822 0
0.00773033059308238 0.001287681968305237 0
0.008249999999978188 0.00129903810567236 0
0.007290011525547273 0.001333833869436072 0
0.007499999999980381 0.001732050807563013 0
0.01550000000002324 0.003071796769743618 0
0.01575000000002225 0.003504809471635945 0
0.01625000000172333 0.003504810898980524 0
0.01600000000030461 0.003937822411421554 0
0.01650000000205337 0.003937823878412188 0
0.01625000000040628 0.004370835199218962 0
0.01675000000051791 0.004370835293750371 0
0.01650000000007372 0.004803847622387916 0
0.01700000000006829 0.004803847618298442 0
0.01600000000009243 0.004803847638800211 0
0.0167500000000237 0.005236860282937952 0
0.01724999687713826 0.005236862092161825 0
0.0169999994795374 0.005669873283877737 0
0.01525000000002179 0.003504809471644735 0
0.002250000401094809 0.006968911209019896 0
0.001752595348880871 0.006970433713884595 0
0.001509003947762242 0.006538272155471765 0
0.005750000000045148 0.006968911086758 0
0.006000000000040973 0.006535898384864802 0
0.002500235467603588 0.003071664119211114 0
0.01575000000001529 0.006968911086769044 0
0.01525000000001587 0.00696891108676854 0
0.01500000400803148 0.003071853409527757 0
0.01525000000001369 0.007834936490550067 0
0.004500000000041729 0.003937822173514785 0
0.005000000000040857 0.003937822173515285 0
0.005250000000040011 0.004370834875407059 0
0.01475000000001856 0.005236860279316163 0
0.01375000000001561 0.00870096189432909 0
0.01400000000001493 0.009133974596219709 0
0.01957712543442604 0.007756383536691703 0
0.01150000000002294 0.006535898384978352 0
0.007250000000039773 0.007834936490541079 0
0.003247264282220247 0.0004283946842239775 0
0.003423465687592335 0.000865255030679168 0
0.01824954067726147 0.003504671502406746 0
0.01873848308193631 0.003502631491349467 0
0.004750000000113195 0.006968911086777978 0
0.005000000000054459 0.006535898384868915 0
0.004250000000764194 0.006968911086976122 0
0.004000000000151387 0.006535898384896899 0
0.005500000000041397 0.002205771365950218 0
0.00575000000004139 0.001772758664059384 0
0.006250000000040194 0.001772758664059993 0
0.006000000000041313 0.001342097704193309 0
0.006500000000039986 0.001339745962169162 0
0.006176174914324227 0.0009055777284338792 0
0.005500100207820262 0.001342876836755054 0
0.006738707690130237 0.001779397316787486 0
0.0140001275364872 0.003072040337473805 0
0.01824730343997565 0.002637817430282119 0
0.01849485796880682 0.003070278851818712 0
0.01906486917388424 0.003046761311626423 0
0.01650000020903581 0.003071936113154602 0
0.01250000000001979 0.007401923788661068 0
0.01425002484696929 0.00350486783147701 0
0.005250000000042434 0.001772758664058727 0
0.005250000000043526 0.00090673326027649 0
0.006497337236726275 0.00220755214279402 0
0.005000000000040054 0.004803847577298388 0
0.005500000000039267 0.004803847577298793 0
0.005750000000039286 0.004370834875407556 0
0.006250000000038533 0.004370834875407988 0
0.006000000000039071 0.003937822173516267 0
0.001500000000045795 0.005669872981078468 0
0.01025000000002835 0.003504945417440045 0
0.0100000000000292 0.003937854368608783 0
0.0105000000000279 0.003937858495432617 0
0.006500000000038052 0.00480384757729957 0
0.006750000000037967 0.004370834875409056 0
0.002500643013703883 0.003937521194086132 0
0.01200000000002182 0.006535898385085295 0
0.003500000000044558 0.003071796769730646 0
0.009750000000028416 0.006968911086761074 0
0.01425000000001917 0.005236860279915483 0
0.01799958451088401 0.001343123010197255 0
0.01775000000002585 0.0009067332602858182 0
0.0132500000000208 0.005236860287316458 0
0.008500000000033939 0.002205771365953838 0
0.008721734253110248 0.001763775590831231 0
0.004500000000043417 0.002205836692116411 0
0.01025000000002643 0.006102885682991527 0
0.002750010215736366 0.002638822320983763 0
0.003500000089388633 0.006535898412101673 0
0.00850000000003372 0.003937831896862675 0
0.01450000000001511 0.007401923788657551 0
0.01051261775091504 0.002212502190361849 0
0.004750000000041676 0.003504809471623467 0
0.009250000000030274 0.006102885682978037 0
0.01963072899852989 0.001230337707781603 0
0.003750000000041527 0.005236860279188578 0
0.01175000000002357 0.005236860346622618 0
0.01025000000002606 0.007834936490544181 0
0.0115000000000265 0.003071814026283999 0
0.006250000000038687 0.00350480947162505 0
0.01350000000001966 0.005669872982721393 0
0.007250000000036752 0.003504890463942078 0
0.01300000000002293 0.003937822280438185 0
0.007500000000036137 0.004803847577302098 0
0.01300000000002064 0.005669872985277754 0
0.01175000000002458 0.004370836208432326 0
0.00849999999997739 0.0008636736617572256 0
0.008750000000032628 0.00523686027919486 0
0.01949512884451166 0.00223321839559241 0
0.001749962744502198 0.007835028596969282 0
0.01700000000328122 0.003937824925689541 0
0.01200000000002361 0.004803847929398763 0
0.004750000000013259 0.009566987298107172 0
0.01450000000001795 0.005669872981231256 0
0.008250000000034043 0.003504952064779878 0
0.01956698729810907 0.003249999999991887 0
0.005500000000039924 0.003937822173515721 0
0.0170000000000132 0.007401923788662329 0
0.007750000000034573 0.006102885682975676 0
0.003500000000042378 0.004803847577296814 0
0.00300000023751201 0.004803847649692074 0
0.008250000000032351 0.006968911086758817 0
0.003500000055366582 0.005669872997946496 0
0.01350000000002399 0.003071796769741241 0
0.009250000000031393 0.005236860279195448 0
0.01674999991326885 0.006102885733450943 0
0.01749998080268055 0.004803858870730502 0
0.01350000000001844 0.006535898384897995 0
0.01675027327242514 0.007834981655870521 0
0.00925000000003131 0.003504902559193503 0
0.007250000000037064 0.004370837425713267 0
0.01525000000001682 0.006102885682985259 0
0.01075000000002476 0.007834936490544743 0
0.004500000000016174 0.009133974596215113 0
0.01350000000002217 0.003937822200871321 0
0.009500000000029856 0.005669872981086998 0
0.009249398753308675 0.0004334460498805112 0
0.007000000000037322 0.00393783864759082 0
0.00600000000003925 0.008267949192430438 0
0.002002287579021232 0.006536346502847057 0
0.01375000000001852 0.006102885683267867 0
0.005250000000040702 0.003504809471623991 0
0.01050000000002551 0.007401923788654541 0
0.008750000000030239 0.007834936490541988 0
0.01500000000001215 0.008267949192439953 0
0.01823776087878664 0.006961407020363676 0
0.003250000017559867 0.007834936495877312 0
0.0172500000000122 0.007834936490554337 0
0.01425000000001406 0.009566987298109963 0
0.001502602079319153 0.002207458971856666 0
0.002750000002097511 0.008700961894949909 0
0.007253607479985551 0.0004356781159970066 0
0.01400000000001879 0.005669872981821394 0
0.0132500000000172 0.008700961894328525 0
0.010500000000025 0.009133974596217953 0
0.003250001702660601 0.002638866657225118 0
0.01200000000002561 0.003071801193643869 0
0.006500000000038216 0.003937824919195789 0
0.01100000000002401 0.009133974596218458 0
0.009001215899786934 0.000862644333562231 0
0.01675733259282724 0.001770919816146966 0
0.003250000286310089 0.005236860366460722 0
0.007054167074296802 0.0009116228008576342 0
0.003000002037088096 0.005669873602099014 0
0.01500000000001448 0.007401923788658406 0
0.01625000000002949 0.005236860288582895 0
0.002500000000044377 0.004803847577297036 0
0.009250000000028766 0.008700961894324765 0
0.01325000000001787 0.007834936490549317 0
0.01475000000001705 0.00610288568300798 0
0.01225046831923536 0.002630685680484419 0
0.0137500253972579 0.003504859802849754 0
0.003750000079496327 0.006102885707194528 0
0.003000107168987375 0.00393777201027567 0
0.01200000000002637 0.002205771365956973 0
0.01450000000001287 0.00913397459621991 0
0.002750399742628929 0.003504593501752632 0
0.01175000000002191 0.008700961894328176 0
0.003000107854786402 0.003071758806754205 0
0.001014707801745833 0.002230173449300358 0
0.00275025790400765 0.004370769063747283 0
0.01300000000001834 0.008267949192438362 0
0.01375000000001619 0.009566987298109961 0
0.004250000013301429 0.006102885687014926 0
0.01450000414117887 0.003937831900566077 0
0.01200000000002159 0.007401923788660743 0
0.0135000000000167 0.009133974596219329 0
0.01175000000002236 0.006968911086823377 0
0.01475000909024407 0.00350484802448519 0
0.01300000000001905 0.009133974596219062 0
0.01550000000006803 0.003937822213201304 0
0.004500000002404116 0.00653589838558457 0
0.01250000000001986 0.009133974596219232 0
0.01200000000002132 0.009133974596218942 0
0.01500000000001016 0.009133974596220231 0
0.01050000000002755 0.004803847921090267 0
0.01025000000002884 0.004370839170833586 0
0.01849895839358088 0.005669495505876359 0
0.01025000000002633 0.006968911086765158 0
0.01000000000002797 0.005669872981090209 0
0.01000000000002729 0.006535898384874794 0
0.005250000000041906 0.006102885682974001 0
0.01025000000002787 0.005236860341352642 0
0.01799980210505315 0.005669824103017793 0
0.009750000000028548 0.006102885682981836 0
0.01724999989881115 0.00610288574186194 0
0.01749996327053941 0.005669867002689482 0
0.005500000000045987 0.006535898384866594 0
0.009500000000030855 0.003937844669708244 0
0.006250000000038587 0.006102885682973643 0
0.01525000000001047 0.008700961894330351 0
0.00650000000003942 0.006535898384865574 0
0.007250000000036763 0.006102885682974815 0
0.01575000000001247 0.008700961894331624 0
0.007500000000036576 0.006535898384865928 0
0.01600000000001066 0.009133974596221254 0
0.007750000000035812 0.00696891108675768 0
0.01725000000000877 0.009566987298113757 0
0.01700166930717441 0.009134769458289796 0
0.01650027821787145 0.009134107073233784 0
0.008000000000035215 0.007401923788649258 0
0.008250000000034749 0.007834936490540883 0
0.008500000000034412 0.008267949192432728 0
0.008250000000028773 0.009566987298109604 0
0.008750000000033328 0.008700961894323424 0
0.01773715668661573 0.009569009595507223 0
0.00850000000003228 0.00913397459621657 0
0.001253760082549124 0.009569158182766073 0
0.006500000000029841 0.009133974596214777 0
0.001501163835328951 0.009134646536774439 0
0.007250000000027253 0.009566987298107149 0
0.007500000000034331 0.009133974596216234 0
0.002250000000149132 0.009566987298151136 0
0.005750000000030597 0.008700961894321468 0
0.004750000000027906 0.008700961894321166 0
0.005000000000045829 0.008267949192433257 0
0.002750000000029862 0.009566987298121265 0
0.004000000000394722 0.008267949192537524 0
0.003500000003971621 0.008267949193627651 0
0.003250000001626706 0.008700961894806312 0
0.003000000000695508 0.009133974596420886 0
0.0004605031985184919 0.009185560527543886 0
0.00126299682992095 0.004376419894615087 0
0.01874706646276058 0.004361221201596567 0
0.01957064117185194 0.007261076936313921 0
0.0182444214582132 0.0009863248864032806 0
0.01877099811449166 0.0004254350182339881 0
0.01775000000000096 0.0003545517328140154 0
0.009498376906640729 0.002132866656306289 0
0.008765383564046565 0.001286421801683068 0
0.00825654493294517 0.001796815417404366 0
0.007501975473136779 0.002133397085550663 0
0.01725801649460123 0.0009313718526535767 0
0.01046098939588433 0.0008792752359909729 0
0.01097174529162491 0.0008623758749760699 0
0.01655726320522907 0.001307873483918779 0
0.01578901021441891 0.001758124098113535 0
0.01148734327806484 0.00136925178637791 0
0.006289010604092819 0.0004486966404752919 0
0.01523395581661381 0.001219037562549418 0
0.005735255024443067 0.0009860596463099201 0
0.0142502029345025 0.001269306351760472 0
0.01475000893665391 0.001803929335181004 0
0.01250471928006626 0.00169078584278429 0
0.005249999999998669 0.0003545517328116663 0
0.01321164399855372 0.00131699800512192 0
0.004754661569039176 0.0009658315265569135 0
0.01376684020433928 0.00185833594455116 0
0.00423430644131286 0.0004203388444323377 0
0.003538688077147555 0.0013244937877867 0
0.002990551941243592 0.0007883524483230195 0
0.002484306441364372 0.001352698420764629 0
0.001789579267142337 0.0004545831303444375 0
0.001260917219113136 0.001013278319495574 0
0.01899073168232493 0.003909347834866797 0
0.0012613071638617 0.006104731152732427 0
0.01918698639979463 0.0009433434842738058 0
0.001047632316669351 0.006539987945806208 0
0.01917013139502469 0.007531592069219948 0
0.01958990664028167 0.009234663237123042 0
0.0007505278693700844 0.0004209533442298906 0
0.0003835963372903812 0.003752236337903095 0
0.01874665654676924 0.007792253102607606 0
0.001279229987670998 0.003514822590986201 0
0.001054370003156515 0.003962296044351518 0
0.01869874373116518 0.006942867150683998 0
0.0008099488055680281 0.006959729661520442 0
0.01918641025942778 0.003503463171194274 0
0.01962260358163086 0.0007417583483394337 0
0.0003643654380524143 0.006254275081077491 0
0.0008216939496730395 0.0009527946791791565 0
0.01916973426124111 0.006052203863943576 0
0.01965646938602676 0.004249999999988913 0
0.0003633294663703585 0.004239887814967733 0
0.01916713539465282 0.002584854713205615 0
0.0003415793224052686 0.002750000000007286 0
0.0003349364905665779 0.008749999999987282 0
0.01875000000000099 0.009665063509457967 0
0.0003334484348690534 0.00525000000001264 0
0.01966655156516918 0.005249999999987572 0
0.0008397459621812661 0.001824573519447965 0
0.01916025403785926 0.0018245735194856 0
0.000344791281172747 0.007780208718859668 0
0.01790520871885997 0.009188702367916277 0
0.01824743590690663 0.008583614984804849 0
0.01963397459621551 0.009633974596215468 0
0.0003660254037862793 0.009633974596214241 0
0.0003660254037850747 0.0003660254037858751 0
0.007878286761850626 0.001718484765851598 0
0.0128717386584639 0.001815793046715559 0
0.01611466878565107 0.001304982471459324 0
0.01688198355859463 0.0007978885795791094 0
0.01213912791997426 0.001782331593779714 0
0.01186534461027688 0.001255149086442533 0
0.01963762744517802 0.0003623725548211691 0
0.009861313020580187 0.001791865462472281 0
0.01014711147568604 0.001337348282603557 0
0.003877582467133872 0.0008171080316516716 0
0.007143122435073697 0.00178915904713925 0
0.002127652906981002 0.0009562063465669923 0
0.006886388185269095 0.001381486881145588 0
0.006621210264590284 0.0009403416665683383 0
0.009120892328214765 0.00173291524885833 0
0.01884220207136994 0.007338057111582857 0
0.01886602540378982 0.008249999999995577 0
0.0006658573100337276 0.00399766637639578 0
0.0006735596386223143 0.006493795659531681 0
0.0006840376841471368 0.001500000000004105 0
0.01930551590294021 0.001419386825011545 0
$EndNodes
$Elements
5 1996 1 1996
1 1 1 40
1 1 5 
2 5 6 
3 6 7 
4 7 8 
5 8 9 
6 9 10 
7 10 11 
8 11 12 
9 12 13 
10 13 14 
11 14 15 
12 15 16 
13 16 17 
14 17 18 
15 18 19 
16 19 20 
17 20 21 
18 21 22 
19 22 23 
20 23 24 
21 24 25 
22 25 26 
23 26 27 
24 27 28 
25 28 29 
26 29 30 
27 30 31 
28 31 32 
29 32 33 
30 33 34 
31 34 35 
32 35 36 
33 36 37 
34 37 38 
35 38 39 
36 39 40 
37 40 41 
38 41 42 
39 42 43 
40 43 2 
1 2 1 20
41 2 44 
42 44 45 
43 45 46 
44 46 47 
45 47 48 
46 48 49 
47 49 50 
48 50 51 
49 51 52 
50 52 53 
51 53 54 
52 54 55 
53 55 56 
54 56 57 
55 57 58 
56 58 59 
57 59 60 
58 60 61 
59 61 62 
60 62 3 
1 3 1 40
61 3 63 
62 63 64 
63 64 65 
64 65 66 
65 66 67 
66 67 68 
67 68 69 
68 69 70 
69 70 71 
70 71 72 
71 72 73 
72 73 74 
73 74 75 
74 75 76 
75 76 77 
76 77 78 
77 78 79 
78 79 80 
79 80 81 
80 81 82 
81 82 83 
82 83 84 
83 84 85 
84 85 86 
85 86 87 
86 87 88 
87 88 89 
88 89 90 
89 90 91 
90 91 92 
91 92 93 
92 93 94 
93 94 95 
94 95 96 
95 96 97 
96 97 98 
97 98 99 
98 99 100 
99 100 101 
100 101 4 
1 4 1 20
101 4 102 
102 102 103 
103 103 104 
104 104 105 
105 105 106 
106 106 107 
107 107 108 
108 108 109 
109 109 110 
110 110 111 
111 111 112 
112 112 113 
113 113 114 
114 114 115 
115 115 116 
116 116 117 
117 117 118 
118 118 119 
119 119 120 
120 120 1 
2 1 2 1876
121 562 140 563 
122 107 137 578 
123 164 572 945 
124 530 924 925 
125 529 530 925 
126 563 140 966 
127 755 673 920 
128 673 755 921 
129 722 123 929 
130 123 722 931 
131 158 733 937 
132 733 158 935 
133 417 654 941 
134 654 417 942 
135 560 165 943 
136 165 560 944 
137 380 641 932 
138 641 380 938 
139 162 558 916 
140 558 162 917 
141 379 652 930 
142 652 379 933 
143 752 141 918 
144 141 752 923 
145 752 162 916 
146 162 752 918 
147 379 628 927 
148 628 379 930 
149 380 652 933 
150 652 380 932 
151 641 381 936 
152 381 641 938 
153 587 529 925 
154 529 587 928 
155 733 123 931 
156 123 733 935 
157 158 559 939 
158 559 158 937 
159 417 710 940 
160 710 417 941 
161 917 168 947 
162 558 917 947 
163 919 330 993 
164 929 160 992 
165 943 142 990 
166 590 924 987 
167 531 940 988 
168 378 927 981 
169 534 926 982 
170 636 936 980 
171 331 922 979 
172 594 919 993 
173 722 929 992 
174 560 943 990 
175 924 530 987 
176 940 710 988 
177 927 628 981 
178 926 629 982 
179 936 381 980 
180 922 675 979 
181 728 139 786 
182 572 164 963 
183 135 561 619 
184 951 165 961 
185 165 944 961 
186 606 166 608 
187 983 507 984 
188 637 983 984 
189 578 137 957 
190 106 107 578 
191 139 728 965 
192 154 566 568 
193 571 155 598 
194 561 135 620 
195 102 103 912 
196 132 565 566 
197 570 131 571 
198 619 561 962 
199 140 562 564 
200 608 166 968 
201 146 573 575 
202 608 147 609 
203 154 568 569 
204 102 912 977 
205 565 132 567 
206 131 570 572 
207 850 630 971 
208 779 556 972 
209 573 146 576 
210 164 945 958 
211 566 154 969 
212 155 571 970 
213 563 630 850 
214 525 609 974 
215 609 525 975 
216 166 606 950 
217 954 447 955 
218 728 786 958 
219 630 145 971 
220 161 779 972 
221 132 566 969 
222 571 131 970 
223 555 947 999 
224 947 765 999 
225 556 779 965 
226 598 155 962 
227 609 147 974 
228 620 135 915 
229 564 954 955 
230 565 567 913 
231 572 570 914 
232 569 568 946 
233 140 564 952 
234 146 575 967 
235 147 608 968 
236 615 617 904 
237 148 618 899 
238 617 488 904 
239 618 527 899 
240 167 581 898 
241 136 907 911 
242 898 581 900 
243 579 580 903 
244 903 580 907 
245 125 901 902 
246 901 550 902 
247 143 898 900 
248 579 143 900 
249 618 615 904 
250 143 579 903 
251 905 489 906 
252 100 167 898 
253 648 489 905 
254 648 647 908 
255 610 148 899 
256 908 647 909 
257 86 125 894 
258 125 582 894 
259 692 471 810 
260 435 699 835 
261 29 159 633 
262 804 648 905 
263 699 426 835 
264 588 634 637 
265 874 345 877 
266 691 692 810 
267 24 25 589 
268 122 24 589 
269 633 159 634 
270 677 679 861 
271 760 585 785 
272 401 584 760 
273 401 760 785 
274 600 285 697 
275 398 585 595 
276 585 398 785 
277 800 289 879 
278 153 26 586 
279 398 595 772 
280 84 150 170 
281 617 905 906 
282 538 600 697 
283 170 150 583 
284 596 413 597 
285 505 596 597 
286 82 83 128 
287 277 681 685 
288 541 874 877 
289 277 679 681 
290 588 633 634 
291 82 128 621 
292 634 636 637 
293 400 808 828 
294 622 623 691 
295 283 686 688 
296 687 684 797 
297 541 687 797 
298 122 589 590 
299 283 688 796 
300 467 622 691 
301 584 401 800 
302 684 373 797 
303 601 524 611 
304 682 373 684 
305 699 425 815 
306 427 601 611 
307 651 640 656 
308 772 595 808 
309 629 625 632 
310 373 682 781 
311 488 617 906 
312 659 657 882 
313 72 121 612 
314 71 72 612 
315 679 277 861 
316 91 127 614 
317 614 615 618 
318 707 747 858 
319 128 172 621 
320 682 680 781 
321 625 37 632 
322 111 112 132 
323 27 130 586 
324 279 276 836 
325 28 29 633 
326 27 28 130 
327 687 541 877 
328 622 467 780 
329 694 693 878 
330 31 126 638 
331 681 683 685 
332 691 623 692 
333 90 91 614 
334 680 399 781 
335 881 425 884 
336 25 153 589 
337 697 435 835 
338 346 745 801 
339 427 611 818 
340 597 413 707 
341 426 699 815 
342 172 174 825 
343 308 661 730 
344 614 127 615 
345 621 172 825 
346 678 399 680 
347 384 345 874 
348 640 126 656 
349 151 71 612 
350 35 36 133 
351 76 77 665 
352 467 466 780 
353 119 169 642 
354 596 505 813 
355 285 600 802 
356 138 69 624 
357 661 543 730 
358 214 659 882 
359 686 283 836 
360 346 744 745 
361 400 772 808 
362 70 71 151 
363 537 384 868 
364 156 650 651 
365 196 198 744 
366 156 649 650 
367 69 70 624 
368 243 245 800 
369 343 427 818 
370 156 34 649 
371 712 727 728 
372 26 27 586 
373 25 26 153 
374 714 713 862 
375 711 372 727 
376 117 118 145 
377 56 135 619 
378 89 90 148 
379 783 157 804 
380 616 783 804 
381 276 685 836 
382 868 384 874 
383 32 33 656 
384 807 591 830 
385 34 35 649 
386 698 689 859 
387 59 60 144 
388 399 678 729 
389 126 32 656 
390 60 61 603 
391 274 277 685 
392 801 745 808 
393 668 723 732 
394 634 159 635 
395 149 76 665 
396 157 644 645 
397 660 526 708 
398 70 151 624 
399 89 148 610 
400 276 274 685 
401 723 668 733 
402 80 81 152 
403 586 130 587 
404 30 31 638 
405 635 638 639 
406 638 126 639 
407 118 119 642 
408 31 32 126 
409 348 802 840 
410 117 145 630 
411 35 133 649 
412 93 94 157 
413 725 731 842 
414 742 743 867 
415 613 881 884 
416 128 170 171 
417 148 614 618 
418 206 736 737 
419 54 55 155 
420 644 136 646 
421 685 683 836 
422 689 280 859 
423 604 603 606 
424 316 694 878 
425 79 80 599 
426 151 612 613 
427 214 195 883 
428 206 737 738 
429 144 60 603 
430 597 707 858 
431 429 431 726 
432 712 711 727 
433 538 697 835 
434 683 686 836 
435 316 199 880 
436 83 84 170 
437 38 39 141 
438 86 87 125 
439 815 425 881 
440 93 157 783 
441 77 78 124 
442 215 714 862 
443 133 625 626 
444 403 739 787 
445 21 22 163 
446 163 807 830 
447 346 196 744 
448 808 745 828 
449 100 101 167 
450 157 94 644 
451 584 800 879 
452 770 400 828 
453 155 55 619 
454 59 144 706 
455 145 118 642 
456 607 606 608 
457 128 83 170 
458 215 203 872 
459 148 90 614 
460 643 496 848 
461 825 494 829 
462 206 200 736 
463 144 603 604 
464 144 605 706 
465 80 152 599 
466 42 43 168 
467 526 517 708 
468 604 606 607 
469 667 668 732 
470 489 648 908 
471 496 643 829 
472 591 593 830 
473 122 590 591 
474 198 206 744 
475 401 243 800 
476 334 667 732 
477 283 279 836 
478 613 612 865 
479 329 655 762 
480 114 115 140 
481 496 497 848 
482 372 726 727 
483 539 663 767 
484 159 30 638 
485 577 576 578 
486 509 742 867 
487 361 364 729 
488 327 412 664 
489 539 662 663 
490 549 544 852 
491 431 557 726 
492 689 677 861 
493 84 85 150 
494 731 407 842 
495 245 289 800 
496 595 801 808 
497 21 163 669 
498 372 365 666 
499 461 459 759 
500 787 701 812 
501 651 650 652 
502 802 600 840 
503 466 470 780 
504 133 626 627 
505 318 435 696 
506 81 82 621 
507 690 691 810 
508 364 399 729 
509 287 318 696 
510 615 127 616 
511 281 285 802 
512 8 9 142 
513 285 696 697 
514 607 608 609 
515 574 573 576 
516 667 334 756 
517 95 136 644 
518 200 202 736 
519 29 30 159 
520 174 494 825 
521 645 647 648 
522 459 545 759 
523 601 525 602 
524 152 81 621 
525 506 353 698 
526 289 742 879 
527 308 309 839 
528 482 512 693 
529 365 363 666 
530 662 539 664 
531 739 770 828 
532 690 467 691 
533 494 496 829 
534 715 472 716 
535 343 416 427 
536 610 550 901 
537 666 429 726 
538 539 327 664 
539 460 464 690 
540 252 254 743 
541 427 416 525 
542 739 403 770 
543 704 444 705 
544 458 460 690 
545 55 56 619 
546 133 36 625 
547 10 11 709 
548 219 224 763 
549 464 467 690 
550 634 635 636 
551 94 95 644 
552 573 523 575 
553 518 517 519 
554 104 105 146 
555 676 428 677 
556 678 428 729 
557 519 517 526 
558 522 573 574 
559 714 215 872 
560 574 576 577 
561 333 719 734 
562 703 348 784 
563 320 343 818 
564 486 514 657 
565 724 332 734 
566 464 466 467 
567 645 646 647 
568 767 663 782 
569 639 640 641 
570 403 787 812 
571 142 9 653 
572 454 471 740 
573 353 355 698 
574 367 386 429 
575 473 472 715 
576 79 599 631 
577 357 428 676 
578 347 425 699 
579 470 474 521 
580 696 435 697 
581 661 308 839 
582 521 474 579 
583 293 295 794 
584 128 171 172 
585 738 737 739 
586 653 10 709 
587 372 666 726 
588 275 348 703 
589 359 361 729 
590 349 700 701 
591 470 521 522 
592 116 117 630 
593 374 444 704 
594 518 519 520 
595 349 211 700 
596 427 525 601 
597 343 382 416 
598 9 10 653 
599 659 214 883 
600 866 664 873 
601 599 152 829 
602 492 657 658 
603 254 405 743 
604 431 552 556 
605 598 537 868 
606 431 430 552 
607 550 610 899 
608 723 718 732 
609 718 717 732 
610 361 362 363 
611 466 468 470 
612 22 23 807 
613 421 711 712 
614 202 204 735 
615 347 414 425 
616 529 503 530 
617 391 389 758 
618 429 430 431 
619 658 657 659 
620 334 226 756 
621 643 599 829 
622 492 486 657 
623 739 737 787 
624 750 784 823 
625 19 20 129 
626 423 396 445 
627 287 317 318 
628 374 377 444 
629 429 386 430 
630 719 724 734 
631 333 717 718 
632 11 134 709 
633 333 230 717 
634 357 359 428 
635 320 342 343 
636 776 260 782 
637 19 129 822 
638 530 503 655 
639 122 591 807 
640 224 227 763 
641 677 428 678 
642 364 363 365 
643 475 791 832 
644 119 120 169 
645 421 370 711 
646 486 484 514 
647 645 644 646 
648 361 363 364 
649 248 329 762 
650 363 367 666 
651 363 362 367 
652 284 287 696 
653 470 468 474 
654 124 78 631 
655 655 503 762 
656 318 328 347 
657 514 693 694 
658 157 645 804 
659 423 445 446 
660 639 126 640 
661 444 377 511 
662 854 215 862 
663 347 328 414 
664 250 248 762 
665 546 293 794 
666 615 616 617 
667 56 57 135 
668 484 482 693 
669 669 163 777 
670 374 325 377 
671 707 314 747 
672 413 326 707 
673 447 446 448 
674 394 391 758 
675 627 626 628 
676 232 333 734 
677 677 678 679 
678 367 429 666 
679 791 790 832 
680 726 557 727 
681 318 317 328 
682 326 314 707 
683 522 523 573 
684 306 308 730 
685 663 776 782 
686 17 18 160 
687 514 484 693 
688 273 267 750 
689 435 347 699 
690 95 96 136 
691 206 738 744 
692 324 325 374 
693 741 252 743 
694 725 506 731 
695 37 38 632 
696 451 450 452 
697 351 506 725 
698 375 374 704 
699 700 219 763 
700 645 648 804 
701 345 876 877 
702 451 452 528 
703 478 473 715 
704 522 574 780 
705 472 461 759 
706 281 284 285 
707 482 480 512 
708 310 730 856 
709 204 209 735 
710 368 365 372 
711 512 713 714 
712 727 557 728 
713 487 486 492 
714 23 122 807 
715 428 359 729 
716 355 357 676 
717 366 365 368 
718 448 450 451 
719 359 360 361 
720 368 372 711 
721 271 275 703 
722 423 446 447 
723 383 370 421 
724 289 247 741 
725 432 387 531 
726 211 216 700 
727 36 37 625 
728 202 735 736 
729 335 432 756 
730 448 449 450 
731 308 307 309 
732 477 473 478 
733 784 443 823 
734 230 228 717 
735 907 580 911 
736 275 278 348 
737 432 667 756 
738 333 718 719 
739 396 394 695 
740 129 671 822 
741 566 528 568 
742 314 302 747 
743 144 604 605 
744 532 531 559 
745 705 444 846 
746 364 365 366 
747 452 454 740 
748 695 394 758 
749 626 625 629 
750 77 124 665 
751 202 203 204 
752 679 678 680 
753 289 741 742 
754 335 387 432 
755 542 419 570 
756 431 556 557 
757 402 538 761 
758 216 218 219 
759 335 336 387 
760 361 360 362 
761 285 284 696 
762 224 223 225 
763 480 478 713 
764 309 322 324 
765 370 368 711 
766 676 677 689 
767 324 322 325 
768 512 480 713 
769 340 351 725 
770 616 127 783 
771 713 478 715 
772 717 334 732 
773 548 544 549 
774 267 269 750 
775 20 21 669 
776 219 218 223 
777 565 528 566 
778 344 313 345 
779 317 288 788 
780 228 334 717 
781 33 156 656 
782 744 738 745 
783 247 249 741 
784 535 536 560 
785 719 718 720 
786 318 347 435 
787 298 263 753 
788 432 531 532 
789 228 226 334 
790 175 177 768 
791 422 396 423 
792 13 14 158 
793 163 22 807 
794 747 310 858 
795 409 250 762 
796 269 703 750 
797 355 676 698 
798 517 491 708 
799 204 207 208 
800 208 207 212 
801 414 415 515 
802 351 353 506 
803 475 832 834 
804 219 223 224 
805 306 307 308 
806 719 720 721 
807 275 276 278 
808 226 225 756 
809 209 211 349 
810 278 281 802 
811 448 446 449 
812 454 456 471 
813 225 290 335 
814 330 242 754 
815 330 754 755 
816 232 230 333 
817 269 271 703 
818 208 212 766 
819 254 253 255 
820 263 265 753 
821 233 232 234 
822 721 720 722 
823 574 622 780 
824 771 440 775 
825 235 234 236 
826 224 225 226 
827 502 409 503 
828 463 461 472 
829 204 203 207 
830 445 396 695 
831 635 159 638 
832 204 208 209 
833 679 680 681 
834 310 306 730 
835 231 230 232 
836 236 234 332 
837 324 374 375 
838 265 273 753 
839 237 236 238 
840 622 577 623 
841 229 228 230 
842 182 296 749 
843 388 390 417 
844 500 544 548 
845 502 503 529 
846 516 517 518 
847 297 175 768 
848 349 701 702 
849 369 368 370 
850 492 658 660 
851 216 217 218 
852 240 238 331 
853 281 282 284 
854 252 253 254 
855 58 59 706 
856 357 358 359 
857 701 763 812 
858 225 335 756 
859 262 261 263 
860 233 234 235 
861 227 226 228 
862 479 478 480 
863 528 452 740 
864 452 450 453 
865 284 286 287 
866 231 232 233 
867 701 700 763 
868 265 267 273 
869 500 543 544 
870 91 92 127 
871 681 680 682 
872 216 219 700 
873 235 236 237 
874 304 306 310 
875 249 252 741 
876 301 300 302 
877 304 305 306 
878 302 304 747 
879 278 279 281 
880 198 200 206 
881 209 349 735 
882 371 370 383 
883 753 771 775 
884 271 274 275 
885 262 263 298 
886 252 251 253 
887 260 261 262 
888 451 528 565 
889 299 298 300 
890 186 187 188 
891 184 185 186 
892 211 213 216 
893 287 288 317 
894 299 300 301 
895 716 472 759 
896 239 238 240 
897 719 721 724 
898 191 192 205 
899 127 92 783 
900 295 340 794 
901 229 230 231 
902 302 303 304 
903 720 718 723 
904 301 302 314 
905 182 183 184 
906 503 409 762 
907 188 189 191 
908 387 336 388 
909 179 182 749 
910 784 348 840 
911 411 508 757 
912 254 255 404 
913 98 99 143 
914 249 251 252 
915 184 186 764 
916 194 196 346 
917 315 314 326 
918 299 767 782 
919 351 352 353 
920 508 413 596 
921 335 290 336 
922 709 134 710 
923 667 532 668 
924 262 298 299 
925 492 660 708 
926 133 627 649 
927 411 413 508 
928 481 480 482 
929 225 223 290 
930 367 385 386 
931 306 305 307 
932 716 759 843 
933 194 346 774 
934 234 232 734 
935 248 246 329 
936 366 368 369 
937 584 434 760 
938 227 228 229 
939 301 314 315 
940 411 326 413 
941 364 366 399 
942 310 856 858 
943 309 321 322 
944 694 316 880 
945 485 484 486 
946 327 326 411 
947 182 184 296 
948 237 238 239 
949 240 331 754 
950 242 240 754 
951 275 274 276 
952 274 272 277 
953 412 411 757 
954 174 173 175 
955 516 491 517 
956 191 189 192 
957 218 220 748 
958 483 482 484 
959 552 430 553 
960 244 242 330 
961 323 205 433 
962 433 439 585 
963 177 179 181 
964 742 741 743 
965 302 300 303 
966 312 320 788 
967 315 326 327 
968 736 702 737 
969 670 669 777 
970 179 180 182 
971 494 495 496 
972 344 345 384 
973 188 187 189 
974 587 130 588 
975 497 499 500 
976 414 328 415 
977 186 185 187 
978 410 383 419 
979 327 411 412 
980 304 303 305 
981 452 453 454 
982 433 585 760 
983 209 210 211 
984 681 682 683 
985 68 69 138 
986 568 528 740 
987 544 543 661 
988 224 226 227 
989 332 234 734 
990 353 354 355 
991 437 434 584 
992 174 297 494 
993 304 310 747 
994 184 183 185 
995 463 472 473 
996 241 240 242 
997 446 445 746 
998 191 205 323 
999 315 327 539 
1000 405 404 662 
1001 355 356 357 
1002 172 173 174 
1003 202 201 203 
1004 799 788 818 
1005 186 190 764 
1006 477 478 479 
1007 611 799 818 
1008 433 205 439 
1009 585 439 595 
1010 487 492 708 
1011 683 684 686 
1012 500 499 543 
1013 221 790 791 
1014 254 404 405 
1015 683 682 684 
1016 470 522 780 
1017 432 532 667 
1018 494 297 495 
1019 296 184 764 
1020 257 259 260 
1021 52 53 131 
1022 129 20 669 
1023 392 397 535 
1024 260 262 782 
1025 369 370 371 
1026 298 753 775 
1027 440 303 775 
1028 239 240 241 
1029 434 433 760 
1030 263 264 265 
1031 271 272 274 
1032 249 250 251 
1033 686 687 688 
1034 209 208 210 
1035 309 307 321 
1036 303 300 775 
1037 186 188 190 
1038 438 510 513 
1039 399 366 781 
1040 702 701 787 
1041 291 546 773 
1042 312 319 320 
1043 88 89 610 
1044 177 181 768 
1045 548 863 864 
1046 591 590 592 
1047 188 191 778 
1048 233 235 400 
1049 315 539 767 
1050 191 323 778 
1051 200 201 202 
1052 737 702 787 
1053 15 16 123 
1054 260 259 261 
1055 323 433 434 
1056 174 175 297 
1057 177 178 179 
1058 182 180 183 
1059 753 273 771 
1060 299 301 767 
1061 751 533 752 
1062 496 495 497 
1063 542 570 571 
1064 591 592 593 
1065 340 341 351 
1066 631 599 643 
1067 416 382 420 
1068 305 303 440 
1069 205 192 774 
1070 172 171 173 
1071 11 12 134 
1072 676 689 698 
1073 402 441 538 
1074 237 239 398 
1075 662 404 663 
1076 353 352 354 
1077 485 486 487 
1078 263 261 264 
1079 438 509 510 
1080 686 684 687 
1081 181 179 749 
1082 210 208 766 
1083 301 315 767 
1084 337 294 339 
1085 369 373 781 
1086 210 766 790 
1087 515 415 524 
1088 366 369 781 
1089 300 298 775 
1090 359 358 360 
1091 824 549 852 
1092 217 213 221 
1093 207 203 215 
1094 245 247 289 
1095 190 188 778 
1096 343 342 382 
1097 265 266 267 
1098 438 437 509 
1099 459 457 545 
1100 278 276 279 
1101 497 498 499 
1102 504 498 505 
1103 323 436 778 
1104 454 455 456 
1105 438 513 795 
1106 288 312 788 
1107 497 495 498 
1108 229 231 403 
1109 271 270 272 
1110 464 465 466 
1111 449 446 746 
1112 672 670 673 
1113 369 371 373 
1114 216 213 217 
1115 218 217 220 
1116 47 48 779 
1117 504 505 597 
1118 349 702 735 
1119 317 788 799 
1120 436 434 437 
1121 223 218 748 
1122 436 437 438 
1123 479 480 481 
1124 323 434 436 
1125 377 325 426 
1126 404 255 776 
1127 322 402 761 
1128 750 703 784 
1129 192 194 774 
1130 295 338 340 
1131 351 341 352 
1132 92 93 783 
1133 400 235 772 
1134 371 383 410 
1135 201 199 316 
1136 499 498 504 
1137 262 299 782 
1138 231 233 770 
1139 175 176 177 
1140 408 250 409 
1141 253 251 769 
1142 454 453 455 
1143 235 237 772 
1144 501 409 502 
1145 439 205 774 
1146 72 73 121 
1147 574 577 622 
1148 766 212 793 
1149 261 259 773 
1150 735 702 736 
1151 291 293 546 
1152 221 213 790 
1153 237 398 772 
1154 673 670 777 
1155 211 210 213 
1156 269 270 271 
1157 241 242 243 
1158 538 441 600 
1159 23 24 122 
1160 247 248 249 
1161 441 406 443 
1162 233 400 770 
1163 249 248 250 
1164 192 193 194 
1165 265 264 266 
1166 282 279 283 
1167 476 473 477 
1168 456 455 457 
1169 674 672 675 
1170 471 456 810 
1171 481 482 483 
1172 267 268 269 
1173 284 282 286 
1174 179 178 180 
1175 795 513 806 
1176 508 869 871 
1177 241 243 401 
1178 552 553 555 
1179 671 672 674 
1180 255 253 256 
1181 402 406 441 
1182 257 260 776 
1183 663 404 776 
1184 322 321 402 
1185 508 596 869 
1186 192 189 193 
1187 243 242 244 
1188 325 322 761 
1189 671 670 672 
1190 281 279 282 
1191 45 46 765 
1192 649 627 650 
1193 593 592 594 
1194 109 110 154 
1195 194 195 196 
1196 48 49 139 
1197 255 256 257 
1198 455 453 475 
1199 408 409 501 
1200 340 725 794 
1201 410 540 541 
1202 522 521 523 
1203 287 286 288 
1204 46 47 161 
1205 130 28 633 
1206 403 231 770 
1207 255 257 776 
1208 305 440 798 
1209 272 270 280 
1210 410 419 540 
1211 490 493 527 
1212 348 278 802 
1213 398 239 785 
1214 239 241 785 
1215 320 319 342 
1216 388 389 390 
1217 402 321 406 
1218 340 338 341 
1219 373 371 797 
1220 442 384 537 
1221 757 508 871 
1222 259 291 773 
1223 832 793 834 
1224 386 533 751 
1225 196 197 198 
1226 356 354 379 
1227 483 484 485 
1228 355 354 356 
1229 175 173 176 
1230 264 261 773 
1231 297 768 803 
1232 312 311 313 
1233 213 210 790 
1234 251 250 408 
1235 257 258 259 
1236 408 501 547 
1237 241 401 785 
1238 360 358 378 
1239 395 394 396 
1240 410 541 797 
1241 495 297 803 
1242 406 321 798 
1243 511 377 815 
1244 290 223 748 
1245 505 498 803 
1246 436 438 795 
1247 595 439 801 
1248 505 803 813 
1249 273 750 823 
1250 371 410 797 
1251 282 283 796 
1252 357 356 358 
1253 540 419 542 
1254 307 305 798 
1255 408 547 769 
1256 129 670 671 
1257 187 185 350 
1258 198 199 200 
1259 524 415 611 
1260 774 346 801 
1261 321 307 798 
1262 267 266 268 
1263 757 871 875 
1264 189 187 789 
1265 177 176 178 
1266 18 19 822 
1267 388 336 389 
1268 806 870 875 
1269 460 462 464 
1270 190 778 795 
1271 142 653 654 
1272 481 483 488 
1273 50 51 164 
1274 227 229 812 
1275 763 227 812 
1276 288 286 311 
1277 778 436 795 
1278 352 341 380 
1279 251 408 769 
1280 485 487 490 
1281 458 690 810 
1282 803 768 813 
1283 319 313 344 
1284 194 193 195 
1285 439 774 801 
1286 280 855 859 
1287 269 268 270 
1288 535 397 536 
1289 190 795 806 
1290 764 190 806 
1291 501 502 507 
1292 171 170 583 
1293 33 34 156 
1294 288 311 312 
1295 498 495 803 
1296 49 50 786 
1297 247 246 248 
1298 245 244 246 
1299 259 258 291 
1300 268 266 407 
1301 791 475 837 
1302 493 516 550 
1303 161 47 779 
1304 291 258 292 
1305 848 548 864 
1306 328 317 799 
1307 490 527 809 
1308 243 244 245 
1309 295 337 338 
1310 196 195 197 
1311 761 538 835 
1312 295 294 337 
1313 377 426 815 
1314 245 246 247 
1315 152 825 829 
1316 490 487 491 
1317 395 396 422 
1318 491 487 708 
1319 311 286 796 
1320 256 253 769 
1321 48 139 779 
1322 798 440 811 
1323 293 294 295 
1324 837 449 851 
1325 156 651 656 
1326 671 674 833 
1327 291 292 293 
1328 293 292 294 
1329 46 161 765 
1330 390 391 392 
1331 527 618 904 
1332 193 189 789 
1333 393 391 394 
1334 462 461 463 
1335 847 695 849 
1336 415 328 799 
1337 197 195 214 
1338 440 771 811 
1339 611 415 799 
1340 6 7 165 
1341 257 256 258 
1342 367 362 385 
1343 185 183 792 
1344 198 197 199 
1345 344 384 442 
1346 811 771 823 
1347 463 473 476 
1348 477 479 489 
1349 390 389 391 
1350 430 386 751 
1351 450 449 837 
1352 73 74 819 
1353 266 264 805 
1354 426 325 761 
1355 443 811 823 
1356 200 199 201 
1357 286 282 796 
1358 121 73 819 
1359 518 520 582 
1360 790 766 832 
1361 375 704 824 
1362 542 571 598 
1363 406 798 811 
1364 264 773 805 
1365 443 406 811 
1366 456 457 458 
1367 545 457 834 
1368 229 403 812 
1369 149 665 860 
1370 758 389 826 
1371 312 313 319 
1372 338 337 381 
1373 490 491 493 
1374 139 49 786 
1375 187 350 789 
1376 738 739 828 
1377 793 212 843 
1378 844 221 851 
1379 393 394 395 
1380 773 546 805 
1381 768 181 813 
1382 794 725 842 
1383 38 141 632 
1384 392 391 393 
1385 466 465 468 
1386 63 64 166 
1387 183 180 222 
1388 579 474 580 
1389 745 738 828 
1390 464 462 465 
1391 309 324 839 
1392 129 669 670 
1393 493 491 516 
1394 819 705 846 
1395 424 422 562 
1396 488 483 809 
1397 178 176 376 
1398 458 457 459 
1399 350 185 792 
1400 386 385 533 
1401 395 422 424 
1402 407 266 805 
1403 497 500 848 
1404 545 793 843 
1405 796 688 876 
1406 455 475 834 
1407 853 149 857 
1408 822 671 833 
1409 392 393 397 
1410 460 459 461 
1411 339 294 841 
1412 483 485 809 
1413 360 378 831 
1414 152 621 825 
1415 485 490 809 
1416 173 171 838 
1417 613 865 881 
1418 180 178 814 
1419 160 18 822 
1420 536 551 554 
1421 389 336 826 
1422 344 442 816 
1423 456 458 810 
1424 336 290 826 
1425 382 342 418 
1426 441 443 840 
1427 777 163 830 
1428 290 748 826 
1429 463 476 817 
1430 730 543 856 
1431 256 769 827 
1432 506 698 859 
1433 75 76 149 
1434 50 164 786 
1435 716 854 862 
1436 107 108 137 
1437 475 453 837 
1438 771 273 823 
1439 442 537 561 
1440 788 320 818 
1441 443 784 840 
1442 319 344 816 
1443 258 256 827 
1444 553 430 751 
1445 280 689 861 
1446 746 445 847 
1447 793 545 834 
1448 362 360 831 
1449 462 463 817 
1450 220 847 849 
1451 458 459 460 
1452 292 258 827 
1453 460 461 462 
1454 78 79 631 
1455 769 547 827 
1456 827 547 841 
1457 468 465 469 
1458 536 397 551 
1459 424 562 563 
1460 183 222 792 
1461 457 455 834 
1462 292 827 841 
1463 342 319 816 
1464 575 523 581 
1465 220 217 844 
1466 510 866 873 
1467 510 509 867 
1468 791 837 851 
1469 533 385 534 
1470 826 748 849 
1471 418 342 816 
1472 453 450 837 
1473 385 362 831 
1474 40 41 162 
1475 426 761 835 
1476 65 66 147 
1477 178 376 814 
1478 766 793 832 
1479 474 468 821 
1480 713 715 862 
1481 746 844 851 
1482 544 661 852 
1483 543 499 856 
1484 222 180 814 
1485 555 553 558 
1486 393 395 820 
1487 693 512 878 
1488 407 731 855 
1489 549 860 863 
1490 207 215 854 
1491 171 583 838 
1492 855 731 859 
1493 824 704 857 
1494 805 546 842 
1495 501 507 845 
1496 160 822 833 
1497 407 805 842 
1498 324 375 839 
1499 176 173 838 
1500 465 462 817 
1501 395 424 820 
1502 397 393 820 
1503 758 826 849 
1504 705 853 857 
1505 534 385 831 
1506 600 441 840 
1507 759 545 843 
1508 716 843 854 
1509 469 465 817 
1510 546 794 842 
1511 221 791 851 
1512 695 758 849 
1513 445 695 847 
1514 268 407 855 
1515 217 221 844 
1516 742 509 879 
1517 376 176 838 
1518 876 688 877 
1519 820 424 850 
1520 612 121 865 
1521 580 474 821 
1522 294 292 841 
1523 844 746 847 
1524 839 375 852 
1525 819 74 853 
1526 280 270 855 
1527 468 469 821 
1528 551 397 820 
1529 272 280 861 
1530 588 130 633 
1531 748 220 849 
1532 547 501 845 
1533 500 548 848 
1534 444 511 846 
1535 551 820 850 
1536 339 841 845 
1537 860 665 863 
1538 662 664 866 
1539 345 313 876 
1540 220 844 847 
1541 121 819 846 
1542 643 848 864 
1543 657 514 882 
1544 661 839 852 
1545 311 796 876 
1546 75 149 853 
1547 596 813 869 
1548 74 75 853 
1549 548 549 863 
1550 743 405 867 
1551 449 746 851 
1552 212 207 854 
1553 764 806 875 
1554 841 547 845 
1555 203 201 872 
1556 704 705 857 
1557 509 437 879 
1558 375 824 852 
1559 705 819 853 
1560 813 181 869 
1561 870 757 875 
1562 542 598 868 
1563 499 504 856 
1564 270 268 855 
1565 856 504 858 
1566 824 857 860 
1567 504 597 858 
1568 424 563 850 
1569 857 149 860 
1570 731 506 859 
1571 549 824 860 
1572 151 613 886 
1573 524 889 890 
1574 665 124 863 
1575 866 510 867 
1576 843 212 854 
1577 863 124 864 
1578 277 272 861 
1579 715 716 862 
1580 199 197 880 
1581 582 125 902 
1582 664 412 873 
1583 414 515 884 
1584 872 316 878 
1585 124 631 864 
1586 714 872 878 
1587 405 662 866 
1588 195 193 883 
1589 749 296 871 
1590 121 846 865 
1591 631 643 864 
1592 412 757 870 
1593 869 749 871 
1594 540 542 868 
1595 181 749 869 
1596 871 296 875 
1597 541 540 874 
1598 412 870 873 
1599 540 868 874 
1600 870 513 873 
1601 513 510 873 
1602 296 764 875 
1603 201 316 872 
1604 806 513 870 
1605 313 311 876 
1606 880 214 882 
1607 688 687 877 
1608 512 714 878 
1609 437 584 879 
1610 846 511 865 
1611 694 880 882 
1612 197 214 880 
1613 613 884 886 
1614 511 815 881 
1615 405 866 867 
1616 514 694 882 
1617 865 511 881 
1618 524 601 889 
1619 68 138 888 
1620 193 789 883 
1621 601 602 889 
1622 658 659 885 
1623 660 658 887 
1624 526 660 891 
1625 895 583 897 
1626 425 414 884 
1627 889 138 890 
1628 520 519 893 
1629 85 86 894 
1630 99 100 898 
1631 519 526 892 
1632 884 515 886 
1633 624 886 890 
1634 624 151 886 
1635 658 885 887 
1636 883 789 885 
1637 886 515 890 
1638 125 87 901 
1639 660 887 891 
1640 659 883 885 
1641 520 893 895 
1642 521 579 900 
1643 789 350 885 
1644 469 909 910 
1645 88 610 901 
1646 147 66 896 
1647 519 892 893 
1648 138 624 890 
1649 493 550 899 
1650 98 143 903 
1651 885 350 887 
1652 526 891 892 
1653 350 792 887 
1654 67 68 888 
1655 550 516 902 
1656 515 524 890 
1657 518 582 902 
1658 838 583 895 
1659 581 523 900 
1660 481 488 906 
1661 887 792 891 
1662 809 527 904 
1663 150 894 897 
1664 489 479 906 
1665 888 138 889 
1666 520 895 897 
1667 602 888 889 
1668 136 96 907 
1669 792 222 891 
1670 616 804 905 
1671 477 489 908 
1672 894 582 897 
1673 891 222 892 
1674 67 888 896 
1675 222 814 892 
1676 583 150 897 
1677 469 817 909 
1678 888 602 896 
1679 892 814 893 
1680 150 85 894 
1681 814 376 893 
1682 582 520 897 
1683 893 376 895 
1684 66 67 896 
1685 376 838 895 
1686 143 99 898 
1687 527 493 899 
1688 87 88 901 
1689 523 521 900 
1690 516 518 902 
1691 97 98 903 
1692 488 809 904 
1693 617 616 905 
1694 97 903 907 
1695 909 647 910 
1696 479 481 906 
1697 96 97 907 
1698 581 167 912 
1699 476 477 908 
1700 646 136 911 
1701 476 908 909 
1702 817 476 909 
1703 647 646 910 
1704 910 646 911 
1705 821 469 910 
1706 821 910 911 
1707 580 821 911 
1708 575 581 912 
1709 447 448 913 
1710 451 565 913 
1711 383 421 914 
1712 570 419 914 
1713 448 451 913 
1714 419 383 914 
1715 946 692 948 
1716 564 562 954 
1717 914 421 945 
1718 135 57 915 
1719 58 706 915 
1720 561 620 956 
1721 642 961 998 
1722 590 589 924 
1723 42 168 917 
1724 162 41 917 
1725 141 39 918 
1726 751 752 916 
1727 586 587 925 
1728 558 553 916 
1729 641 640 932 
1730 40 162 918 
1731 329 246 919 
1732 244 330 919 
1733 755 754 921 
1734 673 777 920 
1735 331 238 922 
1736 236 332 922 
1737 830 593 920 
1738 651 652 932 
1739 752 533 923 
1740 652 650 930 
1741 723 733 931 
1742 639 641 936 
1743 733 668 937 
1744 17 160 929 
1745 502 529 928 
1746 123 16 929 
1747 356 379 927 
1748 722 720 931 
1749 627 628 930 
1750 378 358 927 
1751 379 354 933 
1752 636 635 936 
1753 158 14 935 
1754 352 380 933 
1755 15 123 935 
1756 532 559 937 
1757 13 158 939 
1758 134 12 939 
1759 531 387 940 
1760 380 341 938 
1761 338 381 938 
1762 534 831 926 
1763 388 417 940 
1764 709 710 941 
1765 654 653 941 
1766 392 535 942 
1767 417 390 942 
1768 8 142 943 
1769 165 7 943 
1770 560 536 944 
1771 572 914 945 
1772 471 692 946 
1773 568 740 946 
1774 915 706 949 
1775 330 755 993 
1776 674 989 991 
1777 674 675 989 
1778 833 991 992 
1779 833 674 991 
1780 986 592 987 
1781 594 592 986 
1782 160 833 992 
1783 592 590 987 
1784 559 531 988 
1785 142 654 990 
1786 57 58 915 
1787 569 946 948 
1788 961 554 998 
1789 620 915 949 
1790 606 603 950 
1791 61 62 950 
1792 5 6 951 
1793 114 140 952 
1794 41 42 917 
1795 553 751 916 
1796 39 40 918 
1797 153 586 925 
1798 246 244 919 
1799 924 153 925 
1800 777 830 920 
1801 754 331 921 
1802 589 153 924 
1803 238 236 922 
1804 640 651 932 
1805 637 636 934 
1806 533 534 923 
1807 831 378 926 
1808 507 502 928 
1809 16 17 929 
1810 358 356 927 
1811 650 627 930 
1812 635 639 936 
1813 720 723 931 
1814 354 352 933 
1815 14 15 935 
1816 668 532 937 
1817 341 338 938 
1818 12 13 939 
1819 387 388 940 
1820 653 709 941 
1821 390 392 942 
1822 7 8 943 
1823 536 554 944 
1824 421 712 945 
1825 740 471 946 
1826 921 331 979 
1827 507 928 984 
1828 637 934 983 
1829 923 534 982 
1830 926 378 981 
1831 934 636 980 
1832 154 569 960 
1833 949 953 994 
1834 949 605 953 
1835 420 382 953 
1836 555 558 947 
1837 567 132 964 
1838 131 572 963 
1839 423 447 954 
1840 562 422 954 
1841 779 139 965 
1842 442 561 956 
1843 418 816 956 
1844 692 623 948 
1845 577 578 957 
1846 169 951 961 
1847 607 420 995 
1848 706 605 949 
1849 603 61 950 
1850 6 165 951 
1851 113 114 952 
1852 45 765 959 
1853 109 154 960 
1854 137 108 960 
1855 561 537 962 
1856 630 563 966 
1857 134 939 988 
1858 329 919 986 
1859 942 535 990 
1860 922 332 989 
1861 920 593 993 
1862 52 131 963 
1863 164 51 963 
1864 132 112 964 
1865 728 557 965 
1866 140 115 966 
1867 116 630 966 
1868 948 957 997 
1869 166 64 968 
1870 65 147 968 
1871 104 146 967 
1872 111 132 969 
1873 154 110 969 
1874 54 155 970 
1875 131 53 970 
1876 554 551 971 
1877 552 555 972 
1878 525 416 975 
1879 602 525 974 
1880 147 896 974 
1881 155 619 962 
1882 919 594 986 
1883 939 559 988 
1884 654 942 990 
1885 675 922 989 
1886 755 920 993 
1887 912 167 977 
1888 4 102 977 
1889 120 1 978 
1890 101 4 977 
1891 1 5 978 
1892 3 63 976 
1893 62 3 976 
1894 632 141 982 
1895 672 673 979 
1896 337 339 980 
1897 626 629 981 
1898 587 588 984 
1899 339 845 983 
1900 948 623 957 
1901 604 607 995 
1902 765 947 959 
1903 642 169 961 
1904 447 913 955 
1905 576 146 973 
1906 420 607 975 
1907 382 418 953 
1908 947 168 959 
1909 43 2 985 
1910 2 44 985 
1911 712 728 958 
1912 141 923 982 
1913 673 921 979 
1914 629 926 981 
1915 339 934 980 
1916 928 587 984 
1917 934 339 983 
1918 422 423 954 
1919 953 418 994 
1920 945 712 958 
1921 113 952 964 
1922 957 137 997 
1923 816 442 956 
1924 623 577 957 
1925 786 164 958 
1926 913 567 955 
1927 146 105 973 
1928 607 609 975 
1929 44 45 959 
1930 912 103 967 
1931 106 578 973 
1932 108 109 960 
1933 537 598 962 
1934 105 106 973 
1935 51 52 963 
1936 112 113 964 
1937 557 556 965 
1938 115 116 966 
1939 420 953 995 
1940 944 554 961 
1941 103 104 967 
1942 64 65 968 
1943 575 912 967 
1944 110 111 969 
1945 53 54 970 
1946 551 850 971 
1947 556 552 972 
1948 578 576 973 
1949 896 602 974 
1950 416 420 975 
1951 950 62 976 
1952 5 951 978 
1953 972 555 999 
1954 554 971 998 
1955 964 952 996 
1956 959 168 985 
1957 168 43 985 
1958 167 101 977 
1959 169 120 978 
1960 63 166 976 
1961 418 956 994 
1962 137 960 997 
1963 675 672 979 
1964 381 337 980 
1965 629 632 982 
1966 628 626 981 
1967 588 637 984 
1968 845 507 983 
1969 952 564 996 
1970 655 329 986 
1971 655 986 987 
1972 530 655 987 
1973 710 134 988 
1974 332 724 989 
1975 535 560 990 
1976 989 724 991 
1977 724 721 991 
1978 991 721 992 
1979 721 722 992 
1980 593 594 993 
1981 953 605 995 
1982 605 604 995 
1983 145 642 998 
1984 765 161 999 
1985 166 950 976 
1986 951 169 978 
1987 564 955 996 
1988 620 949 994 
1989 569 948 997 
1990 956 620 994 
1991 44 959 985 
1992 567 964 996 
1993 955 567 996 
1994 960 569 997 
1995 971 145 998 
1996 161 972 999 
$EndElements
