$MeshFormat
4.1 0 8
$EndMeshFormat
$Entities
8 8 2 0
1 0 0 0 0 
2 0.02 0 0 0 
3 0.02 0.01 0 0 
4 0 0.01 0 0 
5 0.006 0.003 0 0 
6 0.014 0.003 0 0 
7 0.014 0.007 0 0 
8 0.006 0.007 0 0 
1 0 0 0 0.02 0 0 1 1 2 1 -2 
2 0.02 0 0 0.02 0.01 0 1 2 2 2 -3 
3 0 0.01 0 0.02 0.01 0 1 3 2 3 -4 
4 0 0 0 0 0.01 0 1 4 2 4 -1 
5 0.006 0.003 0 0.014 0.003 0 0 2 5 -6 
6 0.014 0.003 0 0.014 0.007 0 0 2 6 -7 
7 0.006 0.007 0 0.014 0.007 0 0 2 7 -8 
8 0.006 0.003 0 0.006 0.007 0 0 2 8 -5 
1 0 0 0 0.02 0.01 0 1 1 8 1 2 3 4 -8 -7 -6 -5 
2 0.006 0.003 0 0.014 0.007 0 1 2 4 5 6 7 8 
$EndEntities
$Nodes
18 1023 1 1023
0 1 0 1
1
0 0 0
0 2 0 1
2
0.02 0 0
0 3 0 1
3
0.02 0.01 0
0 4 0 1
4
0 0.01 0
0 5 0 1
5
0.006 0.003 0
0 6 0 1
6
0.014 0.003 0
0 7 0 1
7
0.014 0.007 0
0 8 0 1
8
0.006 0.007 0
1 1 0 39
9
10
11
12
13
14
15
16
17
18
19
20
21
22
23
24
25
26
27
28
29
30
31
32
33
34
35
36
37
38
39
40
41
42
43
44
45
46
47
0.0004999999999990619 0 0
0.0009999999999980118 0 0
0.001499999999997144 0 0
0.00199999999999639 0 0
0.002499999999995619 0 0
0.00299999999999406 0 0
0.003499999999992672 0 0
0.003999999999991045 0 0
0.004499999999989554 0 0
0.004999999999988165 0 0
0.005499999999986776 0 0
0.005999999999985251 0 0
0.006499999999983659 0 0
0.006999999999982302 0 0
0.00749999999998088 0 0
0.007999999999979423 0 0
0.008499999999977116 0 0
0.008999999999976235 0 0
0.00949999999997583 0 0
0.009999999999973931 0 0
0.01049999999997562 0 0
0.01099999999997637 0 0
0.01149999999997698 0 0
0.01199999999997901 0 0
0.01249999999998104 0 0
0.01299999999998192 0 0
0.0134999999999824 0 0
0.01399999999998443 0 0
0.01449999999998646 0 0
0.0149999999999868 0 0
0.01549999999998714 0 0
0.01599999999998917 0 0
0.0164999999999912 0 0
0.01699999999999323 0 0
0.01749999999999527 0 0
0.01799999999999499 0 0
0.01849999999999391 0 0
0.01899999999999594 0 0
0.01949999999999797 0 0
1 2 0 19
48
49
50
51
52
53
54
55
56
57
58
59
60
61
62
63
64
65
66
0.02 0.0004999999999990059 0
0.02 0.000999999999998195 0
0.02 0.00149999999999703 0
0.02 0.001999999999995523 0
0.02 0.002499999999994082 0
0.02 0.002999999999992625 0
0.02 0.003499999999991151 0
0.02 0.003999999999989711 0
0.02 0.004499999999988118 0
0.02 0.004999999999986965 0
0.02 0.005499999999988185 0
0.02 0.005999999999989505 0
0.02 0.006499999999990961 0
0.02 0.006999999999992215 0
0.02 0.007499999999993399 0
0.02 0.007999999999994584 0
0.02 0.008499999999996616 0
0.02 0.008999999999997496 0
0.02 0.009499999999997968 0
1 3 0 39
67
68
69
70
71
72
73
74
75
76
77
78
79
80
81
82
83
84
85
86
87
88
89
90
91
92
93
94
95
96
97
98
99
100
101
102
103
104
105
0.01949999999999808 0.01 0
0.01899999999999983 0.01 0
0.01850000000000212 0.01 0
0.0180000000000044 0.01 0
0.01750000000000669 0.01 0
0.01700000000000897 0.01 0
0.01650000000001031 0.01 0
0.01600000000001043 0.01 0
0.01550000000001028 0.01 0
0.01500000000001066 0.01 0
0.01450000000001295 0.01 0
0.01400000000001524 0.01 0
0.01350000000001752 0.01 0
0.01300000000001981 0.01 0
0.0125000000000204 0.01 0
0.01200000000002099 0.01 0
0.01150000000002328 0.01 0
0.01100000000002414 0.01 0
0.01050000000002453 0.01 0
0.01000000000002642 0.01 0
0.009500000000024704 0.01 0
0.009000000000023942 0.01 0
0.008500000000023314 0.01 0
0.008000000000021266 0.01 0
0.007500000000019219 0.01 0
0.007000000000018318 0.01 0
0.006500000000017827 0.01 0
0.006000000000015779 0.01 0
0.00550000000001373 0.01 0
0.005000000000013372 0.01 0
0.004500000000013016 0.01 0
0.004000000000010967 0.01 0
0.00350000000000892 0.01 0
0.003000000000006872 0.01 0
0.002500000000004825 0.01 0
0.002000000000005078 0.01 0
0.001500000000006146 0.01 0
0.001000000000004098 0.01 0
0.0005000000000020474 0.01 0
1 4 0 19
106
107
108
109
110
111
112
113
114
115
116
117
118
119
120
121
122
123
124
0 0.009499999999999915 0
0 0.009000000000002201 0
0 0.008500000000004487 0
0 0.008000000000005215 0
0 0.007500000000005332 0
0 0.007000000000007618 0
0 0.006500000000009904 0
0 0.006000000000010497 0
0 0.005500000000012072 0
0 0.005000000000013208 0
0 0.004500000000011971 0
0 0.004000000000010633 0
0 0.003500000000009159 0
0 0.00300000000000789 0
0 0.002500000000006686 0
0 0.002000000000005484 0
0 0.001500000000003436 0
0 0.001000000000002539 0
0 0.0005000000000020492 0
1 5 0 15
125
126
127
128
129
130
131
132
133
134
135
136
137
138
139
0.006499999999999301 0.003 0
0.006999999999998264 0.003 0
0.007499999999996209 0.003 0
0.007999999999996866 0.003 0
0.008499999999999048 0.003 0
0.008999999999996823 0.003 0
0.009499999999993583 0.003 0
0.009999999999989666 0.003 0
0.01049999999998981 0.003 0
0.0109999999999903 0.003 0
0.01149999999999248 0.003 0
0.01199999999999466 0.003 0
0.01249999999999685 0.003 0
0.01299999999999903 0.003 0
0.01349999999999951 0.003 0
1 6 0 7
140
141
142
143
144
145
146
0.014 0.003499999999999132 0
0.014 0.003999999999998433 0
0.014 0.004499999999998412 0
0.014 0.004999999999994833 0
0.014 0.005499999999995151 0
0.014 0.005999999999997332 0
0.014 0.006499999999999513 0
1 7 0 15
147
148
149
150
151
152
153
154
155
156
157
158
159
160
161
0.01349999999999882 0.007 0
0.01300000000000203 0.007 0
0.01250000000000525 0.007 0
0.01200000000000339 0.007 0
0.01150000000000118 0.007 0
0.01100000000000339 0.007 0
0.0105000000000066 0.007 0
0.0100000000000105 0.007 0
0.009500000000010334 0.007 0
0.009000000000009823 0.007 0
0.008500000000007621 0.007 0
0.008000000000005419 0.007 0
0.007500000000004064 0.007 0
0.007000000000002709 0.007 0
0.006500000000001355 0.007 0
1 8 0 7
162
163
164
165
166
167
168
0.006 0.006500000000001016 0
0.006 0.006000000000001694 0
0.006 0.005500000000001694 0
0.006 0.00500000000000525 0
0.006 0.004500000000004912 0
0.006 0.00400000000000271 0
0.006 0.003500000000001354 0
2 1 0 718
169
170
171
172
173
174
175
176
177
178
179
180
181
182
183
184
185
186
187
188
189
190
191
192
193
194
195
196
197
198
199
200
201
202
203
204
205
206
207
208
209
210
211
212
213
214
215
216
217
218
219
220
221
222
223
224
225
226
227
228
229
230
231
232
233
234
235
236
237
238
239
240
241
242
243
244
245
246
247
248
249
250
251
252
253
254
255
256
257
258
259
260
261
262
263
264
265
266
267
268
269
270
271
272
273
274
275
276
277
278
279
280
281
282
283
284
285
286
287
288
289
290
291
292
293
294
295
296
297
298
299
300
301
302
303
304
305
306
307
308
309
310
311
312
313
314
315
316
317
318
319
320
321
322
323
324
325
326
327
328
329
330
331
332
333
334
335
336
337
338
339
340
341
342
343
344
345
346
347
348
349
350
351
352
353
354
355
356
357
358
359
360
361
362
363
364
365
366
367
368
369
370
371
372
373
374
375
376
377
378
379
380
381
382
383
384
385
386
387
388
389
390
391
392
393
394
395
396
397
398
399
400
401
402
403
404
405
406
407
408
409
410
411
412
413
414
415
416
417
418
419
420
421
422
423
424
425
426
427
428
429
430
431
432
433
434
435
436
437
438
439
440
441
442
443
444
445
446
447
448
449
450
451
452
453
454
455
456
457
458
459
460
461
462
463
464
465
466
467
468
469
470
471
472
473
474
475
476
477
478
479
480
481
482
483
484
485
486
487
488
489
490
491
492
493
494
495
496
497
498
499
500
501
502
503
504
505
506
507
508
509
510
511
512
513
514
515
516
517
518
519
520
521
522
523
524
525
526
527
528
529
530
531
532
533
534
535
536
537
538
539
540
541
542
543
544
545
546
547
548
549
550
551
552
553
554
555
556
557
558
559
560
561
562
563
564
565
566
567
568
569
570
571
572
573
574
575
576
577
578
579
580
581
582
583
584
585
586
587
588
589
590
591
592
593
594
595
596
597
598
599
600
601
602
603
604
605
606
607
608
609
610
611
612
613
614
615
616
617
618
619
620
621
622
623
624
625
626
627
628
629
630
631
632
633
634
635
636
637
638
639
640
641
642
643
644
645
646
647
648
649
650
651
652
653
654
655
656
657
658
659
660
661
662
663
664
665
666
667
668
669
670
671
672
673
674
675
676
677
678
679
680
681
682
683
684
685
686
687
688
689
690
691
692
693
694
695
696
697
698
699
700
701
702
703
704
705
706
707
708
709
710
711
712
713
714
715
716
717
718
719
720
721
722
723
724
725
726
727
728
729
730
731
732
733
734
735
736
737
738
739
740
741
742
743
744
745
746
747
748
749
750
751
752
753
754
755
756
757
758
759
760
761
762
763
764
765
766
767
768
769
770
771
772
773
774
775
776
777
778
779
780
781
782
783
784
785
786
787
788
789
790
791
792
793
794
795
796
797
798
799
800
801
802
803
804
805
806
807
808
809
810
811
812
813
814
815
816
817
818
819
820
821
822
823
824
825
826
827
828
829
830
831
832
833
834
835
836
837
838
839
840
841
842
843
844
845
846
847
848
849
850
851
852
853
854
855
856
857
858
859
860
861
862
863
864
865
866
867
868
869
870
871
872
873
874
875
876
877
878
879
880
881
882
883
884
885
886
0.01443301270189094 0.004749999999996539 0
0.00556698729810747 0.005250000000002288 0
0.005566987298107279 0.003250000000001114 0
0.01443301270189294 0.00674999999999948 0
0.0004199875646432381 0.006753085866633997 0
0.01958253528101399 0.003249999999994028 0
0.01956698729810668 0.005749999999988843 0
0.0004122867597278733 0.004241359573452193 0
0.003250000000007756 0.009566987298106287 0
0.01668044853154033 0.0004750004405943425 0
0.01725000000000783 0.009566987298109756 0
0.00274999999999484 0.0004330127018908695 0
0.005566987298107241 0.006749999999998656 0
0.01443301270189156 0.003249999999999635 0
0.01958001243535607 0.007246914133367472 0
0.0004199875646441958 0.002753085866632711 0
0.00426069498368404 0.0004438495390168916 0
0.01574516916821123 0.00951931099487411 0
0.01829018713624125 0.0004767645808267564 0
0.001750000000005755 0.009566987298107744 0
0.004725749223172295 0.009588374122919302 0
0.01523165276816921 0.0004224199226637845 0
0.00556698729810724 0.002750000000000603 0
0.005133974596214981 0.003000000000000871 0
0.01445534180126169 0.007250000000000194 0
0.01486974692034698 0.006999999999999976 0
0.009739673868988198 0.002574509710570554 0
0.01025000000000855 0.007433012701888844 0
0.01327744338463089 0.007446483599345938 0
0.007741422826909333 0.0004481799323461243 0
0.01171404920462774 0.009550302475901416 0
0.01321730316365017 0.0004933324882141386 0
0.01122811720902481 0.0005046656419908966 0
0.008680448531563023 0.009524999559404822 0
0.006264223282037713 0.007457648149028104 0
0.007206637172658003 0.009551851937518377 0
0.006795912809526759 0.002547151376279893 0
0.01224538730445656 0.002627503001449387 0
0.01445534180126052 0.002750000000000541 0
0.01486974692034419 0.002999999999999989 0
0.01425605026443301 0.009559962256418926 0
0.005749999999986013 0.0004330127018908695 0
0.01958771324026857 0.001741359573446021 0
0.0004541574856333176 0.008288712937953975 0
0.005133974596215 0.002500000000000872 0
0.004700961894322888 0.002750000000000833 0
0.00470096189432277 0.003250000000000762 0
0.00426794919243074 0.00300000000000062 0
0.004267949192430863 0.003500000000000896 0
0.003834936490538869 0.003250000000000481 0
0.003834936490538907 0.003750000000000704 0
0.003401923788647201 0.003500000000000434 0
0.003401923788647028 0.003999999999999935 0
0.003401923788647161 0.003000000000000848 0
0.002968911086755532 0.003750000000000079 0
0.002968911086755537 0.004249999999999371 0
0.003401923788646847 0.004499999999999006 0
0.002968911086755623 0.0047499999999984 0
0.003401923788646798 0.004999999999997794 0
0.002968911086755723 0.005249999999997135 0
0.003401923788646758 0.00549999999999642 0
0.002968911086755666 0.005749999999995702 0
0.003401923788646744 0.005999999999994933 0
0.002968911086755651 0.006249999999994243 0
0.00340192378864678 0.006499999999993515 0
0.002968911086755783 0.006749999999992837 0
0.003401923788646912 0.006999999999992183 0
0.002968911086755745 0.007249999999991596 0
0.002535898384864833 0.005499999999996508 0
0.003401923788647014 0.007499999999991095 0
0.01487036717310697 0.007500000000000455 0
0.01529938792892352 0.007250000000000241 0
0.01529971666231254 0.006750000000000033 0
0.01573222220421691 0.007000000000000342 0
0.0157321924664496 0.006499999999998805 0
0.01616507709128247 0.006750000000000157 0
0.01616508938291143 0.006249999999998728 0
0.01659808278723224 0.006500000000000103 0
0.0165980816195754 0.006000000000000428 0
0.01659807957097066 0.007000000000000457 0
0.01703108943317239 0.006250000000000625 0
0.01703108990127044 0.005750000000001112 0
0.01659807727739528 0.005500000000001364 0
0.01703108925558998 0.005250000000001911 0
0.016598076446085 0.005000000000002274 0
0.01703108900942478 0.004750000000002909 0
0.01659807626650412 0.004500000000002073 0
0.01703108893846663 0.004250000000003821 0
0.01746410161513685 0.004500000000003443 0
0.01745891660751618 0.004000000000004591 0
0.01703022474951184 0.003750000000005183 0
0.01746309341991116 0.003500000000005729 0
0.01703077685341855 0.003250000000006257 0
0.01746388157262817 0.003000000000006692 0
0.01703100022952235 0.002750000000007112 0
0.009249999999976034 0.0004330127018910156 0
0.008249999999997957 0.002566987298108459 0
0.008285950795395357 0.007449697524096209 0
0.01746405016076501 0.002500000000007563 0
0.01071816178856976 0.002601268496474738 0
0.009250000000009697 0.00742264973080934 0
0.009750000000025563 0.009566987298108263 0
0.01279336282736832 0.009551851937522955 0
0.01075000000002434 0.009566987298108965 0
0.01023904959307169 0.0003957139431555844 0
0.01957217230993225 0.008249999999995573 0
0.0004278276900678802 0.001750000000004481 0
0.00172107554532622 0.0004807238100265617 0
0.01125000000000299 0.007422649730809309 0
0.005761560141039511 0.009625685184301102 0
0.01424999999998532 0.0004230088528346764 0
0.01226055419029412 0.007502048869817853 0
0.01828229251165997 0.00949604365403903 0
0.004267949192430679 0.002500000000000666 0
0.01573213767755225 0.007500000000000809 0
0.01487036717310446 0.002500000000000953 0
0.002968911086755676 0.007749999999990566 0
0.002535898384864375 0.007499999999991011 0
0.006804911113973628 0.0004758321978182683 0
0.0132173031636616 0.002506667511788688 0
0.007202550663843371 0.007450507409434911 0
0.01224999999998003 0.0004330127018934794 0
0.002535898384864193 0.006499999999993691 0
0.0004199875646417924 0.005746914133383715 0
0.01956698729810835 0.004249999999988742 0
0.002535898384863825 0.003999999999999689 0
0.002535898384863743 0.003500000000000062 0
0.01746410186646288 0.006000000000000916 0
0.01746410174367969 0.006500000000000668 0
0.005566987298106942 0.002250000000000803 0
0.01445978694604358 0.007750000000000592 0
0.01445978694604218 0.002250000000001418 0
0.01703106555689611 0.002250000000007739 0
0.01616506372625593 0.005249999999998822 0
0.003834936490538282 0.004749999999998882 0
0.003834936490538465 0.006249999999994444 0
0.01659788017409099 0.0035000000000033 0
0.003834936490538341 0.007249999999991599 0
0.003834936490538432 0.007749999999990689 0
0.005133974596215003 0.002000000000001176 0
0.01487121140603053 0.008000000000000684 0
0.002102885682971789 0.003749999999999927 0
0.002102885682971739 0.003250000000000009 0
0.01789462010404247 0.006254320213277953 0
0.01789669863628892 0.006750720035546943 0
0.01788053413364874 0.003750000000002311 0
0.01789706906754832 0.002750000000007183 0
0.01789711012156091 0.002250000000008112 0
0.002535898384864272 0.00799999999999001 0
0.002102885682972971 0.007749999999990462 0
0.01659805753800648 0.002500000000006779 0
0.01659806920640399 0.002000000000007614 0
0.01487121140602819 0.002000000000001727 0
0.01486664565654326 0.003499999999999084 0
0.01443301270189292 0.005749999999996419 0
0.005566987298107048 0.004250000000003809 0
0.01788653214489988 0.005759360462098669 0
0.002102885682972482 0.004249999999999545 0
0.004267949192429933 0.007499999999991022 0
0.004267949192429986 0.007999999999990393 0
0.00470096189432196 0.007749999999990904 0
0.001669872981079556 0.003500000000000057 0
0.01833011877809523 0.002500000000007793 0
0.01832714776033548 0.006505160254748434 0
0.017031083853029 0.001750000000008063 0
0.01833012494620469 0.002000000000008754 0
0.00166987298107955 0.003000000000000037 0
0.00210288568297176 0.002750000000000016 0
0.001669872981079611 0.002500000000000012 0
0.002102885682971756 0.002250000000000094 0
0.001672367257378653 0.002004320213278049 0
0.01832956119570076 0.00700098004838309 0
0.0178970308558085 0.007250144564960671 0
0.01833001880484814 0.007500187435557799 0
0.01789710267494432 0.007750020165241019 0
0.01832761276659623 0.007995714386855429 0
0.01789669333462805 0.008249289092016129 0
0.01746402951105691 0.007999884876209878 0
0.002103301395688342 0.001750720035546652 0
0.002535967670316418 0.002000120005924525 0
0.003834936490538327 0.008249999999990012 0
0.004700961894321682 0.00824999999999009 0
0.002107576598706006 0.008241875095605533 0
0.005566987298106829 0.001750000000001278 0
0.005133974596214998 0.001500000000001751 0
0.01443833940962559 0.008250000000000453 0
0.01486777752211467 0.008500000000000462 0
0.01443833940962379 0.001750000000002027 0
0.01529976173389416 0.003249999999999331 0
0.01529926208583751 0.003749999999998194 0
0.01529945146519323 0.002250000000001393 0
0.01530056963904894 0.001751036297109919 0
0.005133974596213567 0.007999999999990544 0
0.00251534361317261 0.008514169091463915 0
0.001670654800370501 0.007998645849259117 0
0.001670003284296541 0.007499774308202551 0
0.005133974596213759 0.008499999999990187 0
0.005566987298105655 0.008249999999990862 0
0.01659807420049226 0.001500000000007613 0
0.001691020475941033 0.008463371464440773 0
0.01832196205129366 0.00849484703320046 0
0.00168052449110344 0.001509480468027101 0
0.01746401943405767 0.008499862328037375 0
0.01703106319905301 0.008249957867374721 0
0.002535979217891997 0.001500140006912421 0
0.002968936106502228 0.001750043335473002 0
0.0191867099887135 0.009512237821793617 0
0.0004218481522081069 0.0007693375672997738 0
0.0007693375673007852 0.009578151847791287 0
0.01922759036383983 0.0004453529869076287 0
0.01529917480826248 0.00624999999999698 0
0.004700961894322826 0.003750000000002165 0
0.004700961894322333 0.00724999999999244 0
0.01530019445910642 0.00825000000000075 0
0.004700961894323429 0.001750000000001394 0
0.01832762382756982 0.002995679786728531 0
0.01789711327233164 0.001750000000009075 0
0.01833012649935153 0.001500000000009673 0
0.01790044737779968 0.001247263133981462 0
0.01398282485165104 0.007927984127740607 0
0.01399802525989848 0.008487997354623189 0
0.01356698729811004 0.008250000000000821 0
0.01356665817476003 0.008747999559102979 0
0.01313391974232802 0.008499666593184215 0
0.005997640653039208 0.001995913491194604 0
0.005999606775505015 0.001499318915200605 0
0.006430194593021678 0.001745118892260199 0
0.01398282485164977 0.002072015872261016 0
0.01399999999999912 0.001500000000002295 0
0.01356698729810705 0.001750000000002355 0
0.001239506575905956 0.00774541647962726 0
0.01875795299006237 0.002250000000008404 0
0.001240314421683599 0.002251312018123945 0
0.01875968001682856 0.007748697614828774 0
0.001239354555486263 0.003254320213278261 0
0.01876005459754726 0.006746703170577421 0
0.001239770268202504 0.003746399822269154 0
0.001239817322144678 0.007253518677910918 0
0.00167038753877651 0.007000548831014252 0
0.01874140304834124 0.006250310570883319 0
0.01703108891324574 0.001250000000007487 0
0.001245114641137141 0.006754998131430581 0
0.001669872981081628 0.006499999999994007 0
0.001242849410859041 0.0062504250111742 0
0.001670871169693094 0.006000070835192215 0
0.001245700594408124 0.005745762427785215 0
0.001671512731720075 0.005499305543827905 0
0.001241101233131349 0.005244857781991107 0
0.004699429992602637 0.001242134212311906 0
0.004267693875477795 0.001498689035386524 0
0.01530789626323383 0.008735496824527329 0
0.01573371989273392 0.008497582804088509 0
0.01702588944516036 0.00874099543635307 0
0.00297411021442526 0.001259005153280119 0
0.01443058365186057 0.001262087112299935 0
0.01356698729810681 0.001250000000002242 0
0.01313397459621445 0.001500000000002509 0
0.006438527744086293 0.001259552333292798 0
0.006866025403780839 0.001500000000001261 0
0.01573220874229563 0.003499999999998593 0
0.01573211446004736 0.003999999999997221 0
0.01529908604444858 0.004249999999996702 0
0.01573219773472328 0.003000000000000298 0
0.01573206940610889 0.004499999999996887 0
0.01529904919522682 0.004749999999995039 0
0.01616505922974302 0.002250000000004713 0
0.01659720534764141 0.008498492217288111 0
0.01659792678170384 0.007999741680777763 0
0.01659188300384797 0.008989273346058249 0
0.003402794479883279 0.001501508081459411 0
0.003402073073810883 0.002000258569488746 0
0.003408116910672021 0.001010726802006176 0
0.001670853098511808 0.004999027220968953 0
0.001242915469576145 0.00474898083382645 0
0.005544658198737414 0.007249999999996802 0
0.004694645089028233 0.008788748402209985 0
0.005560937033682638 0.008739520634609706 0
0.005998991622594886 0.008498253439093439 0
0.005129542839152916 0.0009999716202289774 0
0.01491818276499448 0.009067082310801574 0
0.000820125938352968 0.0074998225262567 0
0.0008262895435129903 0.004990332676085348 0
0.0008200927592907834 0.003500120005928598 0
0.01916860583162707 0.006486541650405383 0
0.01309115604354638 0.009077663202405335 0
0.01270096189432947 0.008749999999999375 0
0.01269257933975075 0.008264447607671454 0
0.01226655210000923 0.008502407934612275 0
0.01354005649272036 0.009202493714814885 0
0.01226425722411325 0.00898336940651267 0
0.01184199413850113 0.008733936266719792 0
0.01184248581874392 0.008246254478917055 0
0.0114207043199067 0.008474369358236459 0
0.01143971859840852 0.009062798297266059 0
0.01098352179580867 0.008747220013034695 0
0.01099600381424575 0.008231910392058317 0
0.01053589838487761 0.008500000000000996 0
0.005999219151039655 0.008963426719014551 0
0.006432714497497886 0.008743613359678231 0
0.006438845202683404 0.008259123831837606 0
0.006866025403784613 0.00849999999998987 0
0.006418622336758672 0.009237134563802457 0
0.006910721749098968 0.007934648455466315 0
0.007299038105677636 0.008249999999989373 0
0.007307411517941054 0.008735496824517486 0
0.007733446376281335 0.008497582804077683 0
0.007745043915404735 0.008993841312306287 0
0.00816746162222127 0.008748570686057394 0
0.008157789964962666 0.008263052205150521 0
0.008597263639399316 0.008501937148527492 0
0.008562817410573454 0.007933386699677861 0
0.009031088913249096 0.008249999999989011 0
0.009025771999052115 0.00874134826186416 0
0.009469198526919607 0.00847622894426695 0
0.008188950321821658 0.009249554291772356 0
0.00948458354901505 0.009069709972863773 0
0.009896958539099025 0.008664367417022005 0
0.009846544731557969 0.008223765168575467 0
0.01053925413748754 0.007960752025373937 0
0.01053834436938427 0.00903772686712521 0
0.01747500948717805 0.009071441979185529 0
0.002525232455431855 0.0009286020484789017 0
0.006000731688237181 0.0009286641481231298 0
0.01659807621135307 0.001000000000007141 0
0.01616506317431653 0.001250000000006851 0
0.01618711799374512 0.0007495423746996143 0
0.01575446275480887 0.0009985402646104995 0
0.006866025403780566 0.00100000000000257 0
0.007299038105671634 0.001250000000001684 0
0.007299038105671914 0.001750000000000224 0
0.007732050807562682 0.001500000000000695 0
0.007720338769511723 0.001989783727983352 0
0.008157251639499204 0.001752709838439785 0
0.008163761531127659 0.001250451639741264 0
0.008580211201406774 0.001522856012400212 0
0.008589700227759156 0.001012859204907615 0
0.009021533928773424 0.001264927132434151 0
0.009031088913235291 0.001749999999998885 0
0.009468492181859987 0.001524816954775946 0
0.007277227649342005 0.002241999768953527 0
0.00947502623450794 0.0009329297139011682 0
0.009897114317016047 0.001250000000000485 0
0.009900637929076859 0.001753813542185342 0
0.01033071428758391 0.001500635590363802 0
0.01037403565546548 0.001942605182135946 0
0.01076733851909593 0.001743608608734933 0
0.01077265151796111 0.001264133997278438 0
0.01119843752193396 0.00150129043433457 0
0.01121447044617974 0.001995481674990445 0
0.01163259897837195 0.001749462018219876 0
0.01162279802995416 0.001262804459687698 0
0.01206168895300258 0.001502044412983229 0
0.01164647717131013 0.002219132568967713 0
0.01203784587357741 0.0009300312572269034 0
0.01239164579741357 0.00124706917775317 0
0.01245708664019456 0.001657640562030555 0
0.0131774351512418 0.001009599345468596 0
0.01317743515124479 0.001990400654536445 0
0.01833084727816572 0.00100748644064398 0
0.01876076540112554 0.001246927526837916 0
0.01876313972081206 0.0007500000000114289 0
0.01919615242270358 0.001000000000011176 0
0.004267949192431918 0.001000000000002604 0
0.01574436515372719 0.008985895261775366 0
0.007292916848616658 0.0007505435265273288 0
0.007728785710323038 0.002515564966571654 0
0.008174133814306758 0.0007593803430248507 0
0.008653901909682116 0.0004850909294162097 0
0.01573205579171555 0.00499999999999646 0
0.01529904078462446 0.005249999999993676 0
0.01616507722715494 0.004250000000000146 0
0.01616506350945623 0.003249999999999104 0
0.01573237424309623 0.002000172716188195 0
0.01486603524183652 0.004499999999996679 0
0.008749999999997673 0.002577350269190926 0
0.008537075819926427 0.002094886436547055 0
0.01175000000000466 0.007433012701892537 0
0.0114657553746699 0.007902878877744206 0
0.0157320521208831 0.005499999999995543 0
0.01529906155481781 0.005749999999994998 0
0.01616517164142887 0.008249302783692892 0
0.01280378226531692 0.007464258587000911 0
0.01025639072825165 0.009560327841392059 0
0.0161650698106374 0.004749999999999443 0
0.009250000000025854 0.009566987298107449 0
0.01956698729810752 0.005249999999987698 0
0.0191364688725133 0.005495679786709931 0
0.01913439030893203 0.004999279964441058 0
0.01870663190431833 0.00524915995851578 0
0.01870197618144268 0.0047497399871506 0
0.01828177007933748 0.005002954907770105 0
0.01828327544253261 0.004504769362428615 0
0.01870617959349378 0.004255071771533424 0
0.01872461078394931 0.005749191719346954 0
0.005566987298107062 0.003750000000002479 0
0.00876175811976501 0.007434382382906668 0
0.002750000000006214 0.009566987298106322 0
0.003016440738561197 0.009143466661042991 0
0.003502740123100618 0.009139272698201154 0
0.003259489360091215 0.00873260909943575 0
0.002501637137207992 0.009054964257417178 0
0.01373748809067674 0.007447890653229886 0
0.0172384080885864 0.0004296476872621768 0
0.005133974596214766 0.00400000000000311 0
0.005133974596214773 0.004500000000003446 0
0.004700961894323185 0.004250000000002983 0
0.00470096189432341 0.00475000000000244 0
0.005133974596214834 0.005000000000002256 0
0.004700961894323469 0.005250000000000826 0
0.005133974596215491 0.005500000000000255 0
0.004700961894323489 0.005749999999998492 0
0.005133974596214905 0.005999999999997949 0
0.004700961894322665 0.006249999999995976 0
0.004267949192431812 0.005499999999998628 0
0.005133974596213096 0.006499999999995744 0
0.005566987298107354 0.004750000000003658 0
0.004267949192431238 0.004000000000002658 0
0.005566987298106578 0.006249999999998497 0
0.01957021081370387 0.008745913491190258 0
0.01914800074863294 0.008496427644226114 0
0.01915433218119717 0.008981546969240662 0
0.001253222927887967 0.009568848056388168 0
0.001003760082534334 0.009140525387812543 0
0.0004605799348814232 0.009186230532305625 0
0.0007294806727421329 0.008739776690837893 0
0.001501163835073727 0.009166465434438156 0
0.01443301270189313 0.006249999999998672 0
0.01443301270189142 0.0052499999999948 0
0.01522174172768128 0.009556801317429081 0
0.002102971442588751 0.006750091471830109 0
0.01444860654084561 0.008748700578854979 0
0.01443301434156725 0.004249999999997925 0
0.009750000000010086 0.007421903708576107 0
0.00947811888168113 0.007915447077782809 0
0.009733686506911898 0.0004304245479941847 0
0.01374966481252449 0.000432540489521934 0
0.01400284912999794 0.0009093251109177533 0
0.01573210564046455 0.005999999999997603 0
0.002102885682972734 0.005749999999996551 0
0.01486617601202094 0.003999999999997966 0
0.008604150943154611 0.008996816528084265 0
0.01071314093056867 0.0004047177826418447 0
0.01616507110484539 0.00774984074407917 0
0.01659805313224583 0.007499930404143272 0
0.003836071239923841 0.001251820653142925 0
0.003825827472368133 0.0007585313792207351 0
0.004710337660049087 0.0007478866054268061 0
0.005175524371069242 0.0004817370048279295 0
0.003345871398988066 0.0004847867083234706 0
0.01443314145200384 0.003749999999998695 0
0.0004183080183927059 0.00625000000000995 0
0.01616623475814064 0.008745091068817264 0
0.01617758659607325 0.009232463231728693 0
0.01665447696662316 0.009514294389535648 0
0.01957655981397243 0.007749632634920776 0
0.002250272856206069 0.009553818908307666 0
0.01023202220267853 0.002611253325314797 0
0.0004302877749745272 0.001253222927886124 0
0.0008585254791928195 0.001003760082532859 0
0.0008136338772657666 0.0004605799348802128 0
0.001275439646310696 0.0007566573330541491 0
0.0008452183747963068 0.001505484048349783 0
0.01774443973979848 0.0004322214334831224 0
0.01748127846413595 0.0009090552950681349 0
0.0004234401860277459 0.00225036736507942 0
0.01474694212801677 0.0004195760814531956 0
0.01499171275786636 0.0008095299641972575 0
0.003750456687191458 0.009567870315104062 0
0.004004059469226944 0.009174064190042151 0
0.004248321886028235 0.009575525780473406 0
0.01225782315941734 0.00948804928947042 0
0.01573255548022404 0.007999454388643837 0
0.004267949192431464 0.004500000000002033 0
0.003834936490539485 0.001750000000000798 0
0.01486678153308246 0.006499999999999135 0
0.01372746472051456 0.002544301198626797 0
0.01789711431702997 0.008749999999999692 0
0.01831322337503926 0.008971536944882235 0
0.01575902144653867 0.0004730162993340306 0
0.003834961371399433 0.002250043094915161 0
0.003401952816317824 0.002500050277400815 0
0.005133974596214829 0.003500000000001527 0
0.01616507829458095 0.005749999999998747 0
0.005986082878861824 0.002475894839095791 0
0.01176686778105261 0.0004489639844481632 0
0.01123854378609254 0.009563929763028679 0
0.01271985871766171 0.002592745745545572 0
0.01746407374723993 0.007500008267735532 0
0.006724468330570653 0.007442613367702512 0
0.005566987298106383 0.001250000000001991 0
0.01746401380158473 0.007000145478040625 0
0.002535909932439166 0.002500020000987463 0
0.002535900309459635 0.003000003333498173 0
0.002535898384864281 0.00449999999999895 0
0.003834936490538122 0.004249999999999947 0
0.01745984390709981 0.005505880290294603 0
0.007748558569886427 0.009517155097684948 0
0.00774106562958151 0.007509911961022024 0
0.01875419982556706 0.001745167707869302 0
0.004267910786415597 0.001999788688384259 0
0.01956705658356075 0.004749879994063362 0
0.01913509409362569 0.004500661952860936 0
0.01913752507194588 0.004005275834003307 0
0.01872564347526947 0.003756044814199026 0
0.005130253079652978 0.006999999999994982 0
0.00426794919242997 0.006999999999992516 0
0.002098921378622057 0.001256010006119488 0
0.006024482056535617 0.007932557373175844 0
0.005215209287283703 0.00951791793471474 0
0.00773298780491103 0.0009964758028617863 0
0.01875936241735811 0.002744959751182954 0
0.01917393247483841 0.002490519531977914 0
0.01874298635004053 0.00324512717874062 0
0.01789122723040519 0.003244959751181161 0
0.001980684167645206 0.009150783734019471 0
0.004700955493320433 0.0022499647813982 0
0.01272062750023694 0.0004173402050126328 0
0.003834936490539002 0.005249999999998137 0
0.002535912678133634 0.007000015245298503 0
0.01957266465084683 0.003755199518937477 0
0.00253589838486462 0.00499999999999786 0
0.002259993345581371 0.0004439224597469201 0
0.001257240855027579 0.008209117300102611 0
0.003834936490539317 0.005749999999996495 0
0.01075000000000476 0.007433012701888912 0
0.01745571630837822 0.005005300261661396 0
0.009248278978161209 0.002580331166448417 0
0.009475173583612304 0.002079818981095254 0
0.01309373130892173 0.007939250233190691 0
0.002103322327651274 0.00524972212746443 0
0.002535898384864148 0.005999999999995069 0
0.01226794919243879 0.00800000000000284 0
0.006907886937249399 0.009073174430359902 0
0.01616506350946286 0.00725000000000135 0
0.003834938829343981 0.002750004050930018 0
0.01530042209268685 0.007749935046267733 0
0.00210300983527213 0.007250071642721147 0
0.007733041202792467 0.008031620960645641 0
0.01486617811728889 0.005999999999996444 0
0.006249999999984497 0.0004330127018909546 0
0.01486602683760995 0.004999999999993935 0
0.01659790181086407 0.004000000000002066 0
0.0147275481742619 0.009561828282059233 0
0.003834936490537837 0.006749999999992776 0
0.006847875863579598 0.002001625164109659 0
0.002103066341010758 0.00625002705116694 0
0.0174640874299534 0.002000000000008338 0
0.01703107604164755 0.006750024246340366 0
0.01204502926160579 0.001944896275144561 0
0.01875426081488249 0.007245107831613216 0
0.001670357979249392 0.003999399970378014 0
0.001245527444160065 0.002755258918511828 0
0.0161650635094559 0.003749999999997872 0
0.01659797363565813 0.003000000000004333 0
0.003000058635093167 0.008305204998118767 0
0.01873537596981576 0.009633500677381343 0
0.01401367118845908 0.00907713424346018 0
0.01774089086880646 0.009552263667052441 0
0.01703103921409085 0.007749920516040149 0
0.01485374485808447 0.001528306025438797 0
0.01703105591796326 0.007250004818716733 0
0.002968911407521515 0.003250000555583402 0
0.01120377871990849 0.001033254770573779 0
0.002968918223523435 0.002750012361245022 0
0.00426794919242942 0.006499999999993758 0
0.005164991176123603 0.008992925534552892 0
0.01529983293567226 0.002750000000000484 0
0.004253275445227115 0.008481162586300928 0
0.002968959637151658 0.002250084091753262 0
0.004267949192431652 0.00500000000000054 0
0.002103121809991013 0.004749791558071605 0
0.003401923788647008 0.007999999999990126 0
0.01573232985298036 0.002500028786033089 0
0.01616511514360282 0.001750028786036581 0
0.01746751655174923 0.001484386404847093 0
0.005566987298107407 0.005750000000000395 0
0.01037503368631509 0.001060597937894108 0
0.001246114596906812 0.004244809891135206 0
0.004700341641561742 0.006749999999994235 0
0.004267949192431507 0.005999999999996329 0
0.001669872981081617 0.004499999999999894 0
0.01486605544968757 0.005499999999995044 0
0.005129632826891872 0.007499999999993394 0
0.01573670214983863 0.001500999307766623 0
0.01616511358342791 0.002750004797674719 0
0.005566987298102982 0.007749999999994691 0
0.01123493340611941 0.002518893653968618 0
0.0152580351237879 0.001220196506872352 0
0.003799408667715676 0.008719117108690905 0
0.001250000000001699 0.008727241335944875 0
0.006731189544470666 0.009583481263171269 0
0.01959087126330501 0.009228945479739242 0
0.006418856620134401 0.002225480947162853 0
0.0132717520160731 0.009575287547514891 0
0.0008246052713137814 0.007973842138046174 0
0.0008283196761947575 0.005496311169878285 0
0.0195874642393184 0.002246979850902667 0
0.0178748245178136 0.005253915986968814 0
0.01831222885082591 0.006003057203390106 0
0.0008258541105517535 0.003997114882132641 0
0.01915008505766361 0.005978908744520031 0
0.01958062925940922 0.006244241732481051 0
0.001684590194805364 0.001012344635885887 0
0.0008269807646268338 0.007001904200374762 0
0.001256877985420528 0.001753432791297744 0
0.01916764235771963 0.003001087956924466 0
0.01915483286447272 0.003502122550466488 0
0.01917699510174482 0.001497242468028523 0
0.01874239850968065 0.008247614446517651 0
0.0004125727637374142 0.004746948708262692 0
0.01830848831119371 0.00350295546841808 0
0.0008269669075110163 0.003002130834059969 0
0.01829502086703691 0.004003140236097579 0
0.01917101575965486 0.006995877797659355 0
0.000831362815032414 0.006501735534939196 0
0.0008310880132548059 0.00599852471286176 0
0.01873129903575785 0.0087251991581902 0
0.0008318586428102213 0.002502025833735437 0
0.0191677689179767 0.007497705002064151 0
0.01786954204504189 0.004752016728433704 0
0.000406798984083151 0.007250409234125932 0
0.01787259534541819 0.004251181705592845 0
0.0195852623921484 0.002748097889964296 0
0.01959809736905472 0.001249999999997612 0
0.0008276722073354981 0.004494924427482422 0
0.000406794984405899 0.003250453801589908 0
0.001266862695271526 0.001256859893191254 0
0.0195833772143412 0.006745595885649405 0
0.0008349153328347055 0.00200000000000475 0
0.0191650846671658 0.007999999999995325 0
0.0004176146132305362 0.007752131139398887 0
0.0004145282580144924 0.005246751114605886 0
0.01917304297863327 0.001995211522038805 0
0.0004082851105031866 0.003748696221803201 0
0.01829839962910325 0.005501500020238592 0
0.01959807621134778 0.0007521206258260085 0
0.004466405168576675 0.009204320599656125 0
0.01003195076776281 0.009108186566085195 0
0.00210246866885367 0.008710640589518133 0
0.01001539823471112 0.007850981342635784 0
0.01451711094944149 0.0008177377027740505 0
0.009000000000024903 0.009196152422701514 0
0.01100014476091665 0.007794128411780148 0
0.01699960841468911 0.009182185327808521 0
0.009008323458986582 0.002216477370656107 0
0.003000475854215791 0.0008176897955090384 0
0.01700000000000036 0.000803847577300125 0
0.01100000000001381 0.009196152422703868 0
0.008998594614382224 0.0008195021195920384 0
0.009008549318910958 0.007797381047157615 0
0.01245137874581032 0.00216324686714125 0
0.01252001410686567 0.0008419798605502872 0
0.005596933051373439 0.009195742330760039 0
0.006472039190012433 0.0008194122762255441 0
0.01353068571156572 0.007812876192292277 0
0.005524557239310347 0.0008186770950145794 0
0.01353334094404298 0.002176804693233602 0
0.01447022471590671 0.009191241291726335 0
0.01353937299694862 0.0008172214026740663 0
0.006469314288439817 0.007812876192285755 0
0.0137897429250742 0.009587031749537721 0
0.006250000000016803 0.009644337567297309 0
0.01794943999922821 0.0008145581768006913 0
0.01003602744706445 0.0007928389115127907 0
0.01003629959739798 0.002212438902527494 0
0.01794170611194274 0.009168257249031784 0
0.002059588152179068 0.000823427908061162 0
0.0115756992601532 0.0008331241035832629 0
0.01175602051193895 0.00264285960200504 0
0.008250000000022281 0.009661857195043332 0
0.01624999999999017 0.0003381428049524361 0
0.0119035684650136 0.009163691147174071 0
0.00810227458932628 0.00783599840459908 0
0.007249999999981587 0.0003349364905417648 0
0.007249999999997235 0.002665063509460151 0
0.0003288436186513747 0.008742944032220836 0
0.001256137660091734 0.0003373118604650871 0
0.01875618344417659 0.0003344235135491628 0
0.012640076671846 0.00916560697486709 0
0.01262371925934446 0.007834001059536749 0
0.007373442181665041 0.00917106878524223 0
0.01534927857925852 0.009162980947160827 0
0.00737728347019879 0.007835337757311652 0
0.01081542443679994 0.002159440215424456 0
0.01081542443679946 0.0008405597845733741 0
0.01871735068264189 0.009181375322097075 0
0.008219791281138237 0.0003447912811483376 0
0.01191734891523028 0.007816838985674897 0
0.008078690387851672 0.002183986453530061 0
0.003781840864870914 0.0003428759969380964 0
0.01621544654618568 0.00965321372322769 0
0.002858593896825237 0.00875008282149572 0
0.004735222430679686 0.000327453369352781 0
0.01538991660908105 0.0008024687284118804 0
0.01413397459621397 0.007500000000000503 0
0.01963397459621551 0.009633974596215468 0
0.0003660254037862793 0.009633974596214241 0
0.0003660254037850748 0.0003660254037858753 0
0.006359295150222479 0.002638069461972816 0
0.005866025403784864 0.007500000000000459 0
0.01413397459621495 0.002500000000001123 0
0.01963517143705077 0.0003648285629484272 0
0.003470199780789478 0.008381742512660949 0
0.0008946263386335599 0.008375798614987348 0
0.004263975176558034 0.008874581831008461 0
0.001727075219137184 0.008852279493136066 0
0.0101832469080891 0.008324977658934675 0
0.01023727979384256 0.008727051701833615 0
0.01277144596598805 0.001254387823888732 0
0.01284904616409043 0.00176263579785511 0
0.01479500463371616 0.001138799298196482 0
0.004854495338968301 0.009224242428086496 0
0.006026500135134324 0.009347500202499087 0
0.01287424993766833 0.0007950701951372339 0
0.01286337108156778 0.002219734199620495 0
0.01202885859902435 0.00231952766294159 0
0.01046537723956396 0.0006932440331844417 0
0.01046509842192154 0.002308943158818386 0
2 2 0 137
887
888
889
890
891
892
893
894
895
896
897
898
899
900
901
902
903
904
905
906
907
908
909
910
911
912
913
914
915
916
917
918
919
920
921
922
923
924
925
926
927
928
929
930
931
932
933
934
935
936
937
938
939
940
941
942
943
944
945
946
947
948
949
950
951
952
953
954
955
956
957
958
959
960
961
962
963
964
965
966
967
968
969
970
971
972
973
974
975
976
977
978
979
980
981
982
983
984
985
986
987
988
989
990
991
992
993
994
995
996
997
998
999
1000
1001
1002
1003
1004
1005
1006
1007
1008
1009
1010
1011
1012
1013
1014
1015
1016
1017
1018
1019
1020
1021
1022
1023
0.00974999999999155 0.003433012701889642 0
0.01125000000000309 0.006566987298109444 0
0.008249999999997957 0.00343301270189154 0
0.009250000000010793 0.006566987298109178 0
0.01174999999999357 0.003433012701894108 0
0.007750000000005173 0.006566987298107714 0
0.01355567380354518 0.005255494650741755 0
0.006485036563809846 0.004724484681473816 0
0.01225000000000432 0.006566987298108368 0
0.01074999999999006 0.003433012701892495 0
0.01025000000000846 0.006566987298110486 0
0.01276383077037077 0.003475710685988617 0
0.007251243463936493 0.00341797274434443 0
0.006433012701890386 0.005750000000001694 0
0.01353183074142666 0.004306366288806536 0
0.01323066243270272 0.006578151847792212 0
0.006752118684642422 0.00657661397747124 0
0.006483078147055048 0.0037476374304954 0
0.01175000000000308 0.006566987298109095 0
0.01150000000000122 0.006133974596218672 0
0.01100000000000337 0.006133974596219754 0
0.01125000000000136 0.005700961894328348 0
0.01075000000000303 0.005700961894329034 0
0.01175000000000164 0.005700961894327387 0
0.0110000000000014 0.005267949192437614 0
0.01050000000000285 0.005267949192438018 0
0.01075000000000135 0.004834936490546964 0
0.01025000000000294 0.004834936490547871 0
0.01125000000000021 0.004834936490546039 0
0.01000000000000446 0.005267949192438771 0
0.009750000000004522 0.004834936490548662 0
0.009500000000006642 0.005267949192439616 0
0.009250000000006114 0.004834936490549484 0
0.009000000000008005 0.005267949192439862 0
0.008750000000007231 0.004834936490550003 0
0.008500000000008355 0.005267949192441061 0
0.008250000000007871 0.004834936490550812 0
0.008000000000009052 0.005267949192441996 0
0.007763753993952437 0.004826995618445819 0
0.009000000000005894 0.004430116778389169 0
0.007547548788631439 0.005266407927223013 0
0.008250000000009437 0.005700961894330081 0
0.00975000000000838 0.005700961894329435 0
0.010007965547532 0.004379493918660753 0
0.01099999999999991 0.004401923788655078 0
0.01149999999999922 0.004401923788654103 0
0.01174999999999968 0.004834936490545659 0
0.01199999999999873 0.00440192378865334 0
0.0122499999999991 0.004834936490544459 0
0.01249401997243562 0.004405376359175439 0
0.008002292332331604 0.004400600309975796 0
0.007516428381663711 0.004392438858090088 0
0.01274999999999837 0.004834936490543608 0
0.01249999999999957 0.0052679491924349 0
0.007750000000007351 0.003968911086769529 0
0.01224818390805104 0.003984082447303434 0
0.01124999999999856 0.003968911086762724 0
0.01298857701362629 0.004379824313570872 0
0.01301262393696432 0.00526587343548524 0
0.01275210398949423 0.005700615934833817 0
0.01324999999999737 0.005700961894323722 0
0.007256328082704093 0.003998617642617639 0
0.006976553902053564 0.004430939117196094 0
0.008250000000006039 0.003968911086768535 0
0.01076301039429835 0.00401523604498371 0
0.01325193516798277 0.004798749196524105 0
0.01317142171502887 0.003907703742458869 0
0.01299712773703275 0.006135777694581717 0
0.01353954689648704 0.006185552290415298 0
0.01225035066491716 0.005700904234411497 0
0.008757965547529778 0.003455442571887135 0
0.006433012701893122 0.004250000000002917 0
0.006890271291750923 0.004893787790036615 0
0.006548486766149772 0.005247192835072344 0
0.00689093074553492 0.00561687485604008 0
0.007749999999997986 0.003433012701892828 0
0.01124999999999182 0.003433012701893842 0
0.007250353114110205 0.006568591744667872 0
0.007511046928493585 0.006140585972691643 0
0.006938892464519004 0.006088167600663637 0
0.01024999999998997 0.003404819712158565 0
0.01000436026876394 0.003861712621809408 0
0.009513529473911295 0.003819187019132471 0
0.01200005844415497 0.00613396498623222 0
0.01225060004383046 0.003420343056631297 0
0.01274629836162491 0.006569148572783434 0
0.008750000000010041 0.006566987298108035 0
0.009000000000011305 0.006133974596219283 0
0.008250000000008122 0.006566987298108962 0
0.01200005844415286 0.005267939582450099 0
0.01052171054232718 0.004416422479872771 0
0.008500382055393959 0.004406402040500182 0
0.008754374476229336 0.003973390400979546 0
0.009500000000004522 0.00440192378865815 0
0.009750000000011418 0.006566987298110569 0
0.01000000000000925 0.006133974596220074 0
0.01150000974069286 0.005267947590772524 0
0.01174999999999816 0.003968911086761855 0
0.01249932319953806 0.006134566453491842 0
0.01075000000000528 0.00656698729811028 0
0.009271797055592328 0.00341842843960088 0
0.0102500000000053 0.005700961894328961 0
0.01050000000000578 0.006133974596219765 0
0.007770754028996044 0.005708150881586026 0
0.009500000000011877 0.006133974596220823 0
0.008750000000009098 0.005700961894328962 0
0.009250000000010184 0.005700961894329473 0
0.008000000000006766 0.00613397459621959 0
0.008500000000009127 0.006133974596219152 0
0.01324999999999928 0.003422825529430598 0
0.006767414884724536 0.003371702594693848 0
0.006416107755138439 0.006248798862803039 0
0.01360329112423126 0.00374999429488155 0
0.01269999059316715 0.003979066886423587 0
0.006830623025455743 0.004025154835969907 0
0.007309046079064726 0.005718511669446176 0
0.007311392879545638 0.004830510978998329 0
0.01366506350946029 0.005749999999996237 0
0.01367107695193313 0.004758061963267944 0
0.01035934957664579 0.00405340526844475 0
0.009109412821581266 0.003781487092989021 0
0.01363397459621619 0.006633974596216363 0
0.006366025403785227 0.00336602540378578 0
0.00636602540378583 0.006633974596214808 0
0.01363696265287916 0.003363037347120473 0
0.00708294609177957 0.00526221434280276 0
0.008000000000000219 0.003700961894328499 0
0.008474611621398856 0.003702362830619717 0
0.007499999999996333 0.003700961894324948 0
0.009725315248336922 0.004130357009391355 0
0.01099999999999021 0.003700961894324038 0
0.01199999999999762 0.003700961894328652 0
0.01149999999999499 0.003700961894327537 0
0.00925445265948897 0.004125402772315413 0
0.01050549771967887 0.003709359805875645 0
0.01247202235086295 0.003700440307303307 0
0.007004142293572887 0.003698579989537482 0
$EndNodes
$Elements
6 2044 1 2044
1 1 1 40
1 1 9 
2 9 10 
3 10 11 
4 11 12 
5 12 13 
6 13 14 
7 14 15 
8 15 16 
9 16 17 
10 17 18 
11 18 19 
12 19 20 
13 20 21 
14 21 22 
15 22 23 
16 23 24 
17 24 25 
18 25 26 
19 26 27 
20 27 28 
21 28 29 
22 29 30 
23 30 31 
24 31 32 
25 32 33 
26 33 34 
27 34 35 
28 35 36 
29 36 37 
30 37 38 
31 38 39 
32 39 40 
33 40 41 
34 41 42 
35 42 43 
36 43 44 
37 44 45 
38 45 46 
39 46 47 
40 47 2 
1 2 1 20
41 2 48 
42 48 49 
43 49 50 
44 50 51 
45 51 52 
46 52 53 
47 53 54 
48 54 55 
49 55 56 
50 56 57 
51 57 58 
52 58 59 
53 59 60 
54 60 61 
55 61 62 
56 62 63 
57 63 64 
58 64 65 
59 65 66 
60 66 3 
1 3 1 40
61 3 67 
62 67 68 
63 68 69 
64 69 70 
65 70 71 
66 71 72 
67 72 73 
68 73 74 
69 74 75 
70 75 76 
71 76 77 
72 77 78 
73 78 79 
74 79 80 
75 80 81 
76 81 82 
77 82 83 
78 83 84 
79 84 85 
80 85 86 
81 86 87 
82 87 88 
83 88 89 
84 89 90 
85 90 91 
86 91 92 
87 92 93 
88 93 94 
89 94 95 
90 95 96 
91 96 97 
92 97 98 
93 98 99 
94 99 100 
95 100 101 
96 101 102 
97 102 103 
98 103 104 
99 104 105 
100 105 4 
1 4 1 20
101 4 106 
102 106 107 
103 107 108 
104 108 109 
105 109 110 
106 110 111 
107 111 112 
108 112 113 
109 113 114 
110 114 115 
111 115 116 
112 116 117 
113 117 118 
114 118 119 
115 119 120 
116 120 121 
117 121 122 
118 122 123 
119 123 124 
120 124 1 
2 1 2 1604
121 180 14 617 
122 179 72 622 
123 503 506 544 
124 461 464 546 
125 26 264 536 
126 550 197 697 
127 448 597 711 
128 289 471 657 
129 701 204 759 
130 271 453 762 
131 202 483 609 
132 462 199 654 
133 178 492 494 
134 479 266 564 
135 204 701 849 
136 550 697 848 
137 597 448 850 
138 453 271 847 
139 471 289 851 
140 589 375 854 
141 375 724 854 
142 290 522 653 
143 484 270 553 
144 506 507 696 
145 487 196 693 
146 179 489 726 
147 409 632 743 
148 180 490 690 
149 488 272 551 
150 509 264 603 
151 482 480 602 
152 491 210 708 
153 496 287 533 
154 423 397 605 
155 508 205 713 
156 397 424 605 
157 725 209 829 
158 483 202 838 
159 199 462 840 
160 178 494 839 
161 266 479 841 
162 632 387 743 
163 507 511 696 
164 486 482 602 
165 19 210 616 
166 180 617 814 
167 179 622 812 
168 544 506 813 
169 546 464 811 
170 536 264 817 
171 270 484 806 
172 196 487 808 
173 362 569 807 
174 488 551 806 
175 460 461 546 
176 14 15 617 
177 72 73 622 
178 501 503 544 
179 25 26 536 
180 527 187 529 
181 653 522 836 
182 106 107 592 
183 9 10 628 
184 529 378 530 
185 726 489 834 
186 509 603 832 
187 690 490 835 
188 569 362 860 
189 533 287 842 
190 205 508 843 
191 457 725 829 
192 281 646 854 
193 629 276 771 
194 18 19 616 
195 209 725 826 
196 210 491 824 
197 570 388 823 
198 491 708 822 
199 396 644 825 
200 676 203 828 
201 128 127 534 
202 533 198 678 
203 517 755 852 
204 201 731 853 
205 79 762 829 
206 106 592 865 
207 388 570 863 
208 9 628 866 
209 644 396 869 
210 203 676 868 
211 524 877 878 
212 524 523 877 
213 485 486 875 
214 485 875 876 
215 531 185 615 
216 506 696 813 
217 264 509 817 
218 272 488 816 
219 487 693 811 
220 489 179 812 
221 490 180 814 
222 484 553 810 
223 602 480 818 
224 632 409 815 
225 724 281 854 
226 198 535 678 
227 494 495 647 
228 265 128 534 
229 185 531 614 
230 475 483 665 
231 186 532 621 
232 453 457 762 
233 470 701 759 
234 529 187 846 
235 475 665 849 
236 700 280 848 
237 532 186 850 
238 639 458 847 
239 666 706 851 
240 447 417 615 
241 616 210 824 
242 517 521 755 
243 771 276 835 
244 375 589 760 
245 713 205 761 
246 522 290 820 
247 417 531 615 
248 610 201 853 
249 755 268 852 
250 458 639 840 
251 706 666 841 
252 423 605 809 
253 349 736 757 
254 762 457 829 
255 447 615 616 
256 378 529 846 
257 484 485 806 
258 569 683 807 
259 731 201 836 
260 202 609 810 
261 492 178 815 
262 462 654 816 
263 479 564 818 
264 779 672 781 
265 314 779 781 
266 681 774 775 
267 774 174 775 
268 530 378 804 
269 187 527 831 
270 646 281 834 
271 677 734 821 
272 697 197 823 
273 287 496 822 
274 448 711 826 
275 525 200 827 
276 288 526 825 
277 605 424 827 
278 657 471 828 
279 757 736 873 
280 734 677 880 
281 200 525 882 
282 526 288 883 
283 280 700 856 
284 486 602 808 
285 665 204 849 
286 186 597 850 
287 280 550 848 
288 271 639 847 
289 289 666 851 
290 647 495 862 
291 808 487 875 
292 488 806 876 
293 452 769 770 
294 452 408 769 
295 767 325 803 
296 370 773 795 
297 764 414 784 
298 718 782 787 
299 369 777 785 
300 720 780 786 
301 766 694 788 
302 410 772 783 
303 115 778 800 
304 667 776 801 
305 770 60 796 
306 768 746 793 
307 765 52 791 
308 534 127 843 
309 276 629 845 
310 212 593 844 
311 198 533 842 
312 625 833 886 
313 832 273 885 
314 245 243 606 
315 539 255 552 
316 432 539 552 
317 576 170 578 
318 302 537 552 
319 580 578 744 
320 707 323 750 
321 162 181 586 
322 578 170 744 
323 540 305 721 
324 537 302 547 
325 181 583 586 
326 319 722 753 
327 547 302 651 
328 245 606 651 
329 606 547 651 
330 170 576 584 
331 255 539 710 
332 305 710 721 
333 537 432 552 
334 243 379 606 
335 305 540 722 
336 277 151 545 
337 379 548 606 
338 548 379 707 
339 163 162 586 
340 686 582 692 
341 304 692 748 
342 166 165 584 
343 686 303 738 
344 585 641 663 
345 583 181 673 
346 277 545 546 
347 710 539 721 
348 608 600 618 
349 542 600 608 
350 582 686 738 
351 151 150 545 
352 380 574 585 
353 548 707 750 
354 542 169 600 
355 144 143 596 
356 493 742 752 
357 143 169 596 
358 692 582 748 
359 380 572 574 
360 150 149 280 
361 155 154 601 
362 433 538 709 
363 154 196 601 
364 641 303 663 
365 165 170 584 
366 303 641 738 
367 181 443 673 
368 434 541 742 
369 219 217 585 
370 129 128 265 
371 169 542 709 
372 188 103 590 
373 97 98 638 
374 189 97 638 
375 103 104 590 
376 156 269 564 
377 541 434 741 
378 259 256 710 
379 86 87 270 
380 280 149 550 
381 590 591 594 
382 324 166 584 
383 572 380 650 
384 549 420 640 
385 283 611 640 
386 435 437 620 
387 172 595 643 
388 624 188 683 
389 733 581 747 
390 42 43 571 
391 272 85 551 
392 586 580 744 
393 217 380 585 
394 563 572 650 
395 188 594 683 
396 100 101 565 
397 549 435 620 
398 674 733 747 
399 531 613 614 
400 420 549 620 
401 573 324 584 
402 148 197 550 
403 172 146 595 
404 531 418 613 
405 595 323 707 
406 129 265 543 
407 28 29 273 
408 88 202 553 
409 157 156 564 
410 722 540 753 
411 219 585 663 
412 532 620 621 
413 585 574 641 
414 293 670 671 
415 329 381 751 
416 171 563 650 
417 611 549 640 
418 200 35 604 
419 149 148 550 
420 188 590 594 
421 613 418 642 
422 263 261 722 
423 569 565 624 
424 576 573 584 
425 75 76 597 
426 543 265 544 
427 264 27 603 
428 102 188 624 
429 253 302 552 
430 293 671 688 
431 565 101 624 
432 571 43 631 
433 101 102 624 
434 44 187 631 
435 167 166 324 
436 150 280 545 
437 43 44 631 
438 542 433 709 
439 656 727 729 
440 598 291 687 
441 242 244 702 
442 146 145 595 
443 673 443 751 
444 171 168 563 
445 145 144 323 
446 355 448 599 
447 600 141 618 
448 742 541 752 
449 255 253 552 
450 626 627 630 
451 104 377 590 
452 123 376 626 
453 86 270 551 
454 291 598 714 
455 30 201 610 
456 709 538 750 
457 35 36 604 
458 82 199 639 
459 140 182 618 
460 732 660 737 
461 323 144 596 
462 305 259 710 
463 222 649 703 
464 256 255 710 
465 81 82 639 
466 141 140 618 
467 248 612 702 
468 133 132 625 
469 36 37 279 
470 569 624 683 
471 216 218 703 
472 83 84 654 
473 269 155 601 
474 183 62 623 
475 80 81 271 
476 85 86 551 
477 31 32 653 
478 201 31 653 
479 699 291 714 
480 63 64 274 
481 598 687 705 
482 590 377 591 
483 237 607 698 
484 626 376 627 
485 572 324 573 
486 27 28 603 
487 558 561 670 
488 121 122 275 
489 113 292 619 
490 184 120 633 
491 132 195 625 
492 575 573 576 
493 177 100 565 
494 178 42 571 
495 322 358 608 
496 388 389 390 
497 38 190 634 
498 64 65 587 
499 388 354 389 
500 670 561 671 
501 261 305 722 
502 199 83 654 
503 279 37 634 
504 84 85 272 
505 57 58 554 
506 727 612 729 
507 566 565 569 
508 56 57 669 
509 26 27 264 
510 299 354 388 
511 156 155 269 
512 620 437 621 
513 574 573 575 
514 244 248 702 
515 283 640 704 
516 266 157 564 
517 28 273 603 
518 636 567 637 
519 293 669 670 
520 293 56 669 
521 489 371 645 
522 104 105 377 
523 122 123 626 
524 274 64 587 
525 554 175 555 
526 733 304 748 
527 572 573 574 
528 177 565 566 
529 607 237 699 
530 112 113 619 
531 591 377 592 
532 554 555 556 
533 604 279 605 
534 478 479 480 
535 98 636 638 
536 596 169 709 
537 5 168 171 
538 612 248 729 
539 438 613 642 
540 5 191 652 
541 485 482 486 
542 145 323 595 
543 230 232 699 
544 8 161 203 
545 563 324 572 
546 607 415 698 
547 240 283 704 
548 588 587 589 
549 137 206 655 
550 649 222 732 
551 634 190 635 
552 218 222 703 
553 275 122 626 
554 37 38 634 
555 283 242 702 
556 274 587 588 
557 381 673 751 
558 164 163 744 
559 5 171 191 
560 627 376 628 
561 323 596 750 
562 478 481 609 
563 439 438 642 
564 484 482 485 
565 322 608 618 
566 418 383 668 
567 591 592 593 
568 282 216 703 
569 371 345 645 
570 649 732 737 
571 167 324 563 
572 269 601 602 
573 611 283 702 
574 556 558 670 
575 668 383 684 
576 268 133 625 
577 36 279 604 
578 491 394 658 
579 96 189 677 
580 319 263 722 
581 687 286 705 
582 597 76 711 
583 567 566 568 
584 94 95 278 
585 46 47 378 
586 481 480 482 
587 34 200 685 
588 33 34 685 
589 6 139 644 
590 575 576 577 
591 160 289 657 
592 134 133 268 
593 147 7 570 
594 168 167 563 
595 177 567 636 
596 430 433 542 
597 158 157 266 
598 182 322 618 
599 194 172 643 
600 659 656 729 
601 394 352 658 
602 247 245 651 
603 476 477 478 
604 607 699 714 
605 186 75 597 
606 275 626 630 
607 478 480 481 
608 63 274 623 
609 221 219 663 
610 90 91 665 
611 556 555 557 
612 643 595 707 
613 95 96 677 
614 390 389 391 
615 621 437 622 
616 271 81 639 
617 476 478 609 
618 240 194 241 
619 299 309 354 
620 481 482 484 
621 91 204 665 
622 87 88 553 
623 32 33 290 
624 478 477 479 
625 289 159 666 
626 400 334 667 
627 636 637 638 
628 415 441 698 
629 556 557 558 
630 57 554 669 
631 158 266 666 
632 237 230 699 
633 242 241 243 
634 232 291 699 
635 642 418 668 
636 483 476 609 
637 121 275 633 
638 62 63 623 
639 345 369 645 
640 503 505 506 
641 314 260 682 
642 354 355 599 
643 224 221 225 
644 23 24 198 
645 358 429 430 
646 308 213 684 
647 120 121 633 
648 76 77 711 
649 421 371 489 
650 250 247 251 
651 295 311 661 
652 270 87 553 
653 627 628 629 
654 29 30 610 
655 99 177 636 
656 343 344 345 
657 381 327 674 
658 464 465 487 
659 58 175 554 
660 355 419 448 
661 108 109 212 
662 216 215 217 
663 358 430 608 
664 347 370 675 
665 142 141 600 
666 364 399 406 
667 393 352 394 
668 224 225 226 
669 240 241 242 
670 671 561 672 
671 674 306 712 
672 645 369 646 
673 227 303 686 
674 430 542 608 
675 558 560 561 
676 191 213 298 
677 159 158 666 
678 84 272 654 
679 346 345 371 
680 406 399 449 
681 250 251 252 
682 393 394 395 
683 341 656 659 
684 390 391 392 
685 343 346 656 
686 325 296 664 
687 535 502 678 
688 434 319 753 
689 253 251 302 
690 282 648 668 
691 193 239 299 
692 389 354 599 
693 182 208 322 
694 298 352 393 
695 326 294 662 
696 260 262 682 
697 338 348 660 
698 383 308 684 
699 341 342 343 
700 123 124 376 
701 298 308 352 
702 334 386 667 
703 364 406 407 
704 577 576 578 
705 407 598 705 
706 574 575 641 
707 327 306 674 
708 648 282 703 
709 152 151 277 
710 227 225 303 
711 345 344 369 
712 364 407 705 
713 126 125 205 
714 99 100 177 
715 558 559 560 
716 61 62 183 
717 532 420 620 
718 614 440 617 
719 390 392 697 
720 239 240 704 
721 341 343 656 
722 130 129 543 
723 354 309 355 
724 372 371 421 
725 218 217 219 
726 313 341 659 
727 348 347 373 
728 226 225 227 
729 502 499 678 
730 278 95 677 
731 298 213 308 
732 352 308 353 
733 244 243 245 
734 343 345 346 
735 41 42 178 
736 395 394 426 
737 338 339 347 
738 58 59 175 
739 669 556 670 
740 116 117 176 
741 214 192 215 
742 558 557 559 
743 299 239 309 
744 74 75 186 
745 392 455 697 
746 243 241 379 
747 353 417 447 
748 192 171 650 
749 162 8 181 
750 571 631 632 
751 295 661 730 
752 386 527 528 
753 494 493 495 
754 374 373 422 
755 297 313 659 
756 407 406 410 
757 457 391 725 
758 214 215 216 
759 422 373 490 
760 336 338 660 
761 252 251 253 
762 438 422 440 
763 395 426 427 
764 140 6 182 
765 338 347 348 
766 384 331 679 
767 119 120 184 
768 297 659 716 
769 461 463 464 
770 430 429 432 
771 191 298 652 
772 220 219 221 
773 98 99 636 
774 649 648 703 
775 191 192 213 
776 427 496 497 
777 497 496 533 
778 311 336 661 
779 32 290 653 
780 262 267 315 
781 352 353 658 
782 506 505 507 
783 613 440 614 
784 315 316 331 
785 331 400 679 
786 315 331 384 
787 679 400 680 
788 336 337 338 
789 318 363 364 
790 503 504 505 
791 226 227 228 
792 427 426 496 
793 504 535 536 
794 353 383 417 
795 343 342 344 
796 290 33 685 
797 298 393 652 
798 583 673 747 
799 217 215 380 
800 439 642 648 
801 364 363 399 
802 137 136 206 
803 417 418 531 
804 229 227 686 
805 455 456 700 
806 246 245 247 
807 446 366 676 
808 612 611 702 
809 746 719 749 
810 313 340 341 
811 497 533 678 
812 236 286 687 
813 77 209 711 
814 322 357 358 
815 12 13 690 
816 348 373 374 
817 329 327 381 
818 223 221 224 
819 456 460 700 
820 331 334 400 
821 464 463 465 
822 96 97 189 
823 384 679 681 
824 353 447 658 
825 501 502 503 
826 331 316 334 
827 499 497 678 
828 386 528 667 
829 229 686 692 
830 315 267 316 
831 228 227 229 
832 54 55 688 
833 282 668 684 
834 55 293 688 
835 38 39 190 
836 242 243 244 
837 392 454 455 
838 228 229 230 
839 391 389 725 
840 476 474 477 
841 346 371 372 
842 239 194 240 
843 213 214 684 
844 374 422 438 
845 475 474 476 
846 91 92 204 
847 21 22 287 
848 347 339 370 
849 241 194 643 
850 468 446 676 
851 252 253 254 
852 475 476 483 
853 139 288 644 
854 177 566 567 
855 426 394 491 
856 438 440 613 
857 232 234 291 
858 182 6 207 
859 286 317 318 
860 456 459 460 
861 138 137 655 
862 430 432 433 
863 661 660 732 
864 311 335 336 
865 53 54 174 
866 262 315 682 
867 336 660 661 
868 501 499 502 
869 249 247 250 
870 386 387 527 
871 392 391 453 
872 214 282 684 
873 353 308 383 
874 102 103 188 
875 257 256 258 
876 338 337 339 
877 39 40 647 
878 315 384 682 
879 322 208 357 
880 174 54 688 
881 419 382 420 
882 503 502 504 
883 355 382 419 
884 304 231 692 
885 215 192 650 
886 341 340 342 
887 216 217 218 
888 460 459 461 
889 254 256 257 
890 455 454 456 
891 392 453 454 
892 193 194 239 
893 498 497 499 
894 214 216 282 
895 504 502 535 
896 258 260 314 
897 427 497 498 
898 244 246 248 
899 228 230 237 
900 417 383 418 
901 163 586 744 
902 152 277 693 
903 254 255 256 
904 407 410 411 
905 254 253 255 
906 160 159 289 
907 236 285 286 
908 466 467 470 
909 111 112 173 
910 44 45 187 
911 251 247 651 
912 730 661 732 
913 419 420 532 
914 648 642 668 
915 674 712 733 
916 420 382 640 
917 318 317 351 
918 461 462 463 
919 11 12 276 
920 554 556 669 
921 182 207 208 
922 470 467 701 
923 240 242 283 
924 7 172 193 
925 467 446 468 
926 302 251 651 
927 318 351 363 
928 373 347 675 
929 358 428 429 
930 363 351 368 
931 230 229 231 
932 500 499 501 
933 88 89 202 
934 218 219 220 
935 20 21 708 
936 130 543 695 
937 508 500 534 
938 30 31 201 
939 413 415 607 
940 439 648 649 
941 13 180 690 
942 193 172 194 
943 453 391 457 
944 139 138 288 
945 244 245 246 
946 435 421 437 
947 34 35 200 
948 320 319 434 
949 286 318 705 
950 336 335 337 
951 231 229 692 
952 303 225 663 
953 318 364 705 
954 113 114 292 
955 248 246 716 
956 258 259 260 
957 225 221 663 
958 291 234 687 
959 21 287 708 
960 469 473 701 
961 334 385 386 
962 307 306 327 
963 411 410 412 
964 507 510 511 
965 258 256 259 
966 498 499 500 
967 355 309 382 
968 310 294 326 
969 286 285 317 
970 312 296 325 
971 218 220 222 
972 7 146 172 
973 233 231 304 
974 436 611 612 
975 55 56 293 
976 469 472 473 
977 50 51 211 
978 473 472 474 
979 427 498 713 
980 372 421 435 
981 557 555 562 
982 226 228 689 
983 660 348 737 
984 228 237 689 
985 575 577 738 
986 161 160 657 
987 230 231 232 
988 213 192 214 
989 716 659 729 
990 181 8 443 
991 498 508 713 
992 250 252 664 
993 490 373 675 
994 413 607 714 
995 407 411 598 
996 234 236 687 
997 492 367 493 
998 224 226 662 
999 16 17 185 
1000 273 29 610 
1001 520 523 524 
1002 656 346 727 
1003 466 446 467 
1004 148 147 197 
1005 456 458 459 
1006 232 233 234 
1007 191 171 192 
1008 598 411 714 
1009 358 357 428 
1010 411 412 413 
1011 411 413 714 
1012 498 500 508 
1013 19 20 210 
1014 276 12 690 
1015 234 235 236 
1016 395 427 713 
1017 363 368 691 
1018 254 257 694 
1019 577 582 738 
1020 461 459 462 
1021 210 20 708 
1022 389 599 725 
1023 399 363 691 
1024 165 164 170 
1025 467 469 701 
1026 143 142 169 
1027 436 612 727 
1028 467 468 469 
1029 296 250 664 
1030 350 365 444 
1031 220 221 223 
1032 252 254 694 
1033 222 730 732 
1034 246 247 249 
1035 232 231 233 
1036 262 263 267 
1037 313 332 340 
1038 474 472 706 
1039 374 438 439 
1040 307 327 328 
1041 379 643 707 
1042 577 578 579 
1043 477 474 706 
1044 356 397 423 
1045 473 474 475 
1046 261 259 305 
1047 456 454 458 
1048 13 14 180 
1049 297 312 313 
1050 294 224 662 
1051 689 237 698 
1052 234 233 235 
1053 248 716 729 
1054 673 381 747 
1055 520 522 523 
1056 433 432 537 
1057 469 468 471 
1058 249 250 296 
1059 233 304 712 
1060 664 252 694 
1061 581 733 748 
1062 67 68 375 
1063 223 224 294 
1064 132 131 195 
1065 173 112 619 
1066 154 153 196 
1067 431 735 741 
1068 735 359 741 
1069 311 330 335 
1070 284 321 359 
1071 222 220 730 
1072 469 471 472 
1073 309 239 704 
1074 208 207 284 
1075 442 416 450 
1076 71 72 179 
1077 310 326 719 
1078 662 226 689 
1079 579 578 580 
1080 428 431 540 
1081 518 520 717 
1082 372 435 436 
1083 640 382 704 
1084 297 296 312 
1085 386 385 387 
1086 465 463 488 
1087 436 435 549 
1088 295 310 311 
1089 381 674 747 
1090 313 312 332 
1091 328 327 329 
1092 334 316 385 
1093 359 360 541 
1094 344 342 402 
1095 249 297 716 
1096 339 337 401 
1097 249 296 297 
1098 260 261 262 
1099 403 330 405 
1100 340 332 404 
1101 413 412 414 
1102 382 309 704 
1103 284 207 300 
1104 507 505 509 
1105 404 332 408 
1106 284 300 321 
1107 153 152 693 
1108 518 519 520 
1109 77 78 209 
1110 520 524 717 
1111 246 249 716 
1112 520 519 522 
1113 131 130 695 
1114 445 446 466 
1115 321 300 356 
1116 335 330 403 
1117 238 306 307 
1118 260 259 261 
1119 492 493 494 
1120 311 310 330 
1121 359 321 360 
1122 379 241 643 
1123 301 263 319 
1124 295 294 310 
1125 432 429 539 
1126 238 235 306 
1127 306 235 712 
1128 301 319 320 
1129 436 549 611 
1130 413 414 415 
1131 577 579 582 
1132 328 350 736 
1133 342 340 718 
1134 428 357 431 
1135 70 71 726 
1136 235 233 712 
1137 333 409 743 
1138 439 649 737 
1139 428 540 721 
1140 712 304 733 
1141 340 404 718 
1142 518 516 519 
1143 397 398 424 
1144 316 267 715 
1145 404 408 452 
1146 223 294 295 
1147 403 405 451 
1148 356 423 728 
1149 320 434 742 
1150 337 335 720 
1151 424 425 525 
1152 380 215 650 
1153 372 436 727 
1154 548 547 606 
1155 190 39 647 
1156 69 70 281 
1157 425 398 526 
1158 328 329 350 
1159 236 238 285 
1160 82 83 199 
1161 698 441 739 
1162 326 662 739 
1163 346 372 727 
1164 445 366 446 
1165 405 330 719 
1166 528 529 530 
1167 335 403 720 
1168 493 367 742 
1169 350 329 361 
1170 223 295 730 
1171 357 208 735 
1172 350 444 736 
1173 351 317 362 
1174 581 580 583 
1175 356 300 396 
1176 444 365 734 
1177 333 367 409 
1178 220 223 730 
1179 579 580 581 
1180 429 428 721 
1181 374 439 737 
1182 301 320 333 
1183 236 235 238 
1184 317 285 723 
1185 538 537 547 
1186 333 320 367 
1187 433 537 538 
1188 301 333 715 
1189 321 356 728 
1190 511 512 513 
1191 360 321 728 
1192 288 138 655 
1193 409 367 492 
1194 402 342 718 
1195 641 575 738 
1196 267 263 301 
1197 307 328 349 
1198 401 337 720 
1199 516 515 731 
1200 284 359 735 
1201 330 310 719 
1202 203 161 657 
1203 349 328 736 
1204 262 261 263 
1205 415 416 441 
1206 431 357 735 
1207 350 361 365 
1208 68 69 724 
1209 424 398 425 
1210 397 396 398 
1211 71 179 726 
1212 356 396 397 
1213 528 527 529 
1214 348 374 737 
1215 507 509 510 
1216 521 518 717 
1217 365 361 366 
1218 583 580 586 
1219 539 429 721 
1220 208 284 735 
1221 538 547 548 
1222 385 316 715 
1223 267 301 715 
1224 238 307 740 
1225 519 516 731 
1226 365 366 445 
1227 415 414 416 
1228 196 153 693 
1229 285 238 740 
1230 195 131 695 
1231 511 510 512 
1232 517 518 521 
1233 517 516 518 
1234 281 70 726 
1235 441 416 442 
1236 359 541 741 
1237 514 516 517 
1238 442 746 749 
1239 362 317 723 
1240 375 68 724 
1241 689 698 739 
1242 514 515 516 
1243 365 445 734 
1244 514 512 515 
1245 719 326 749 
1246 307 349 740 
1247 596 709 750 
1248 69 281 724 
1249 361 329 751 
1250 170 164 744 
1251 723 285 740 
1252 662 689 739 
1253 367 320 742 
1254 739 441 749 
1255 195 695 696 
1256 495 493 752 
1257 513 512 514 
1258 387 385 743 
1259 579 581 748 
1260 169 142 600 
1261 715 333 743 
1262 326 739 749 
1263 197 147 570 
1264 385 715 743 
1265 512 510 745 
1266 515 512 745 
1267 405 719 746 
1268 581 583 747 
1269 582 579 748 
1270 441 442 749 
1271 538 548 750 
1272 676 366 754 
1273 431 741 753 
1274 541 360 752 
1275 741 434 753 
1276 540 431 753 
1277 751 443 754 
1278 361 751 754 
1279 366 361 754 
1280 877 820 882 
1281 819 878 883 
1282 135 134 755 
1283 523 820 877 
1284 819 524 878 
1285 134 268 755 
1286 360 728 756 
1287 495 752 756 
1288 833 513 886 
1289 745 832 885 
1290 752 360 756 
1291 639 199 840 
1292 666 266 841 
1293 723 568 860 
1294 567 568 757 
1295 562 408 767 
1296 408 562 769 
1297 672 681 775 
1298 681 672 779 
1299 778 450 800 
1300 776 211 801 
1301 452 770 796 
1302 176 768 793 
1303 680 765 791 
1304 292 764 784 
1305 782 183 787 
1306 780 184 786 
1307 777 588 785 
1308 559 766 788 
1309 772 173 783 
1310 562 767 803 
1311 773 630 795 
1312 591 593 758 
1313 92 93 759 
1314 589 587 760 
1315 65 66 760 
1316 652 393 761 
1317 395 713 761 
1318 79 80 762 
1319 759 93 830 
1320 399 691 763 
1321 416 414 764 
1322 51 52 765 
1323 664 694 766 
1324 312 325 767 
1325 408 332 767 
1326 59 60 770 
1327 562 555 769 
1328 405 746 768 
1329 115 116 778 
1330 671 672 775 
1331 410 406 772 
1332 681 679 774 
1333 667 528 776 
1334 370 339 773 
1335 369 344 777 
1336 314 682 779 
1337 672 561 781 
1338 384 681 779 
1339 174 688 775 
1340 720 403 780 
1341 718 404 782 
1342 111 173 789 
1343 258 314 790 
1344 53 174 791 
1345 50 211 792 
1346 627 629 795 
1347 119 184 794 
1348 61 183 796 
1349 275 630 797 
1350 274 588 798 
1351 442 450 793 
1352 212 109 799 
1353 292 114 800 
1354 680 400 801 
1355 176 117 802 
1356 559 557 803 
1357 638 637 805 
1358 568 723 871 
1359 494 647 839 
1360 665 483 838 
1361 387 632 831 
1362 696 511 833 
1363 637 567 757 
1364 602 601 808 
1365 368 351 807 
1366 634 635 809 
1367 605 279 809 
1368 277 546 811 
1369 543 544 813 
1370 421 489 812 
1371 422 490 814 
1372 617 440 814 
1373 622 437 812 
1374 696 695 813 
1375 504 536 817 
1376 488 463 816 
1377 509 505 817 
1378 269 602 818 
1379 464 487 811 
1380 571 632 815 
1381 481 484 810 
1382 594 591 758 
1383 691 368 758 
1384 201 653 836 
1385 615 185 861 
1386 470 759 830 
1387 204 92 759 
1388 587 65 760 
1389 393 395 761 
1390 80 271 762 
1391 426 491 822 
1392 445 466 821 
1393 388 390 823 
1394 491 658 824 
1395 725 599 826 
1396 398 396 825 
1397 468 676 828 
1398 763 212 799 
1399 764 292 800 
1400 173 772 789 
1401 765 680 801 
1402 174 774 791 
1403 211 776 792 
1404 629 771 795 
1405 314 781 790 
1406 766 559 803 
1407 768 176 802 
1408 630 773 797 
1409 588 777 798 
1410 184 780 794 
1411 450 778 793 
1412 183 782 796 
1413 449 399 763 
1414 450 416 764 
1415 211 51 765 
1416 325 664 766 
1417 332 312 767 
1418 769 175 770 
1419 451 405 768 
1420 555 175 769 
1421 175 59 770 
1422 675 370 771 
1423 406 449 772 
1424 688 671 775 
1425 339 401 773 
1426 679 680 774 
1427 528 530 776 
1428 344 402 777 
1429 116 176 778 
1430 682 384 779 
1431 403 451 780 
1432 561 560 781 
1433 404 452 782 
1434 758 593 872 
1435 447 616 824 
1436 78 79 829 
1437 94 278 830 
1438 789 449 799 
1439 794 451 802 
1440 560 788 790 
1441 401 786 797 
1442 402 787 798 
1443 48 49 804 
1444 412 410 783 
1445 412 783 784 
1446 414 412 784 
1447 560 559 788 
1448 184 633 786 
1449 183 623 787 
1450 588 589 785 
1451 619 292 784 
1452 783 619 784 
1453 173 619 783 
1454 646 369 785 
1455 401 720 786 
1456 402 718 787 
1457 694 257 788 
1458 788 257 790 
1459 786 633 797 
1460 787 623 798 
1461 110 111 789 
1462 257 258 790 
1463 52 53 791 
1464 49 50 792 
1465 110 789 799 
1466 746 442 793 
1467 630 627 795 
1468 118 119 794 
1469 633 275 797 
1470 60 61 796 
1471 623 274 798 
1472 109 110 799 
1473 114 115 800 
1474 118 794 802 
1475 400 667 801 
1476 117 118 802 
1477 557 562 803 
1478 362 723 860 
1479 489 645 834 
1480 510 509 832 
1481 135 755 837 
1482 490 675 835 
1483 792 530 804 
1484 49 792 804 
1485 522 519 836 
1486 206 136 837 
1487 755 521 837 
1488 717 819 884 
1489 637 757 873 
1490 821 466 881 
1491 593 212 872 
1492 202 89 838 
1493 90 665 838 
1494 647 40 839 
1495 41 178 839 
1496 462 459 840 
1497 479 477 841 
1498 23 198 842 
1499 287 22 842 
1500 126 205 843 
1501 508 534 843 
1502 11 276 845 
1503 108 212 844 
1504 46 378 846 
1505 187 45 846 
1506 697 455 848 
1507 454 453 847 
1508 701 473 849 
1509 448 419 850 
1510 472 471 851 
1511 513 514 852 
1512 515 745 853 
1513 276 690 835 
1514 756 728 879 
1515 545 280 856 
1516 189 638 805 
1517 625 195 833 
1518 631 187 831 
1519 281 726 834 
1520 603 273 832 
1521 566 569 860 
1522 185 17 861 
1523 190 647 862 
1524 635 756 879 
1525 4 106 865 
1526 124 1 866 
1527 105 4 865 
1528 592 377 865 
1529 1 9 866 
1530 3 67 864 
1531 299 388 863 
1532 628 376 866 
1533 8 203 868 
1534 570 7 863 
1535 7 193 863 
1536 443 8 868 
1537 66 3 864 
1538 5 652 867 
1539 125 5 867 
1540 6 644 869 
1541 207 6 869 
1542 396 300 869 
1543 676 754 868 
1544 723 740 871 
1545 717 524 819 
1546 523 522 820 
1547 691 758 872 
1548 47 2 870 
1549 2 48 870 
1550 535 198 855 
1551 265 534 857 
1552 186 621 859 
1553 185 614 858 
1554 819 206 884 
1555 677 189 880 
1556 449 763 799 
1557 450 764 800 
1558 211 765 801 
1559 325 766 803 
1560 451 768 802 
1561 771 370 795 
1562 772 449 789 
1563 774 680 791 
1564 773 401 797 
1565 776 530 792 
1566 777 402 798 
1567 778 176 793 
1568 780 451 794 
1569 781 560 790 
1570 782 452 796 
1571 685 200 882 
1572 288 655 883 
1573 200 604 827 
1574 711 209 826 
1575 197 570 823 
1576 708 287 822 
1577 278 677 821 
1578 644 288 825 
1579 203 657 828 
1580 604 605 827 
1581 551 270 806 
1582 351 362 807 
1583 601 196 808 
1584 279 634 809 
1585 609 481 810 
1586 553 202 810 
1587 178 571 815 
1588 654 272 816 
1589 693 277 811 
1590 437 421 812 
1591 695 543 813 
1592 440 422 814 
1593 480 479 818 
1594 409 492 815 
1595 463 462 816 
1596 505 504 817 
1597 564 269 818 
1598 655 206 819 
1599 290 685 820 
1600 198 24 855 
1601 534 500 857 
1602 74 186 859 
1603 16 185 858 
1604 278 821 881 
1605 594 758 874 
1606 758 368 874 
1607 444 734 880 
1608 734 445 821 
1609 496 426 822 
1610 390 697 823 
1611 599 448 826 
1612 658 447 824 
1613 526 398 825 
1614 424 525 827 
1615 471 468 828 
1616 18 616 861 
1617 592 107 844 
1618 628 10 845 
1619 460 546 856 
1620 501 544 857 
1621 25 536 855 
1622 617 15 858 
1623 622 73 859 
1624 632 631 831 
1625 195 696 833 
1626 209 78 829 
1627 93 94 830 
1628 495 756 862 
1629 527 387 831 
1630 511 513 833 
1631 745 510 832 
1632 645 646 834 
1633 616 615 861 
1634 486 808 875 
1635 806 485 876 
1636 15 16 858 
1637 73 74 859 
1638 700 460 856 
1639 500 501 857 
1640 24 25 855 
1641 519 731 836 
1642 756 635 862 
1643 136 135 837 
1644 89 90 838 
1645 40 41 839 
1646 459 458 840 
1647 477 706 841 
1648 107 108 844 
1649 22 23 842 
1650 10 11 845 
1651 127 126 843 
1652 593 592 844 
1653 629 628 845 
1654 805 444 880 
1655 45 46 846 
1656 757 568 871 
1657 458 454 847 
1658 455 700 848 
1659 473 475 849 
1660 419 532 850 
1661 706 472 851 
1662 736 444 873 
1663 731 515 853 
1664 514 517 852 
1665 785 589 854 
1666 809 635 879 
1667 546 545 856 
1668 536 535 855 
1669 544 265 857 
1670 614 617 858 
1671 621 622 859 
1672 675 771 835 
1673 568 566 860 
1674 760 66 864 
1675 652 761 867 
1676 17 18 861 
1677 368 807 874 
1678 513 852 886 
1679 853 745 885 
1680 635 190 862 
1681 349 757 871 
1682 206 837 884 
1683 378 47 870 
1684 377 105 865 
1685 193 299 863 
1686 376 124 866 
1687 67 375 864 
1688 205 125 867 
1689 300 207 869 
1690 754 443 868 
1691 740 349 871 
1692 212 763 872 
1693 830 278 881 
1694 466 470 881 
1695 805 637 873 
1696 763 691 872 
1697 646 785 854 
1698 444 805 873 
1699 683 594 874 
1700 487 465 875 
1701 875 465 876 
1702 465 488 876 
1703 525 425 877 
1704 425 526 878 
1705 877 425 878 
1706 728 423 879 
1707 268 625 886 
1708 273 610 885 
1709 521 717 884 
1710 375 760 864 
1711 761 205 867 
1712 48 804 870 
1713 804 378 870 
1714 423 809 879 
1715 525 877 882 
1716 878 526 883 
1717 807 683 874 
1718 189 805 880 
1719 470 830 881 
1720 820 685 882 
1721 655 819 883 
1722 837 521 884 
1723 852 268 886 
1724 610 853 885 
2 2 2 320
1725 900 966 998 
1726 900 961 966 
1727 949 894 958 
1728 894 949 959 
1729 944 901 952 
1730 952 901 1005 
1731 898 953 1000 
1732 164 165 960 
1733 953 898 996 
1734 145 146 955 
1735 901 944 953 
1736 945 893 947 
1737 165 894 960 
1738 900 164 960 
1739 955 146 1008 
1740 893 945 952 
1741 966 903 998 
1742 894 959 960 
1743 960 959 1012 
1744 961 960 1012 
1745 949 958 1001 
1746 945 939 952 
1747 939 944 952 
1748 966 961 1002 
1749 900 960 961 
1750 947 893 1004 
1751 906 910 970 
1752 151 888 905 
1753 910 956 970 
1754 902 954 955 
1755 905 906 970 
1756 954 902 972 
1757 894 166 958 
1758 150 151 905 
1759 905 888 906 
1760 149 150 895 
1761 899 127 962 
1762 132 133 967 
1763 158 892 975 
1764 956 910 976 
1765 887 132 967 
1766 127 128 962 
1767 956 946 985 
1768 988 909 989 
1769 143 144 893 
1770 166 167 958 
1771 129 130 957 
1772 128 129 889 
1773 896 134 963 
1774 165 166 894 
1775 163 164 900 
1776 149 895 972 
1777 141 142 901 
1778 895 905 970 
1779 167 904 958 
1780 134 135 963 
1781 889 129 957 
1782 887 967 968 
1783 895 150 905 
1784 892 964 965 
1785 157 158 975 
1786 957 130 987 
1787 935 940 976 
1788 970 956 985 
1789 964 903 966 
1790 892 159 964 
1791 148 149 972 
1792 940 956 976 
1793 926 978 979 
1794 965 964 966 
1795 133 896 967 
1796 954 972 985 
1797 137 898 971 
1798 946 954 985 
1799 137 138 898 
1800 976 910 983 
1801 940 939 945 
1802 133 134 896 
1803 135 891 963 
1804 128 889 962 
1805 935 936 939 
1806 160 903 964 
1807 160 161 903 
1808 930 917 980 
1809 935 939 940 
1810 991 974 993 
1811 167 168 904 
1812 940 945 946 
1813 933 935 976 
1814 978 950 979 
1815 891 136 971 
1816 933 934 935 
1817 914 930 977 
1818 902 148 972 
1819 951 931 977 
1820 937 925 938 
1821 939 936 944 
1822 923 937 978 
1823 923 924 925 
1824 925 924 927 
1825 948 938 949 
1826 158 159 892 
1827 906 888 907 
1828 937 950 978 
1829 933 976 983 
1830 913 912 914 
1831 155 156 890 
1832 887 968 969 
1833 136 137 971 
1834 914 917 930 
1835 935 934 936 
1836 943 931 951 
1837 973 157 975 
1838 135 136 891 
1839 919 926 980 
1840 923 925 937 
1841 159 160 964 
1842 911 909 912 
1843 919 921 926 
1844 917 919 980 
1845 155 890 981 
1846 941 938 948 
1847 937 938 941 
1848 890 974 991 
1849 151 152 888 
1850 156 157 973 
1851 890 973 974 
1852 914 912 916 
1853 126 127 899 
1854 913 914 977 
1855 911 912 913 
1856 940 946 956 
1857 972 895 985 
1858 982 988 989 
1859 926 921 978 
1860 923 922 924 
1861 921 923 978 
1862 892 965 994 
1863 921 922 923 
1864 914 916 917 
1865 906 908 910 
1866 933 932 934 
1867 910 908 983 
1868 154 155 981 
1869 915 932 933 
1870 908 909 911 
1871 890 156 973 
1872 895 970 985 
1873 946 945 947 
1874 975 994 995 
1875 131 132 887 
1876 937 941 950 
1877 931 913 977 
1878 908 907 909 
1879 908 911 983 
1880 919 920 921 
1881 924 922 928 
1882 917 918 919 
1883 915 933 983 
1884 921 920 922 
1885 915 913 931 
1886 917 916 918 
1887 918 916 929 
1888 907 888 986 
1889 946 947 954 
1890 906 907 908 
1891 919 918 920 
1892 932 931 943 
1893 911 913 915 
1894 936 934 942 
1895 934 932 984 
1896 915 931 932 
1897 911 915 983 
1898 912 909 988 
1899 152 153 986 
1900 131 887 987 
1901 932 943 984 
1902 888 152 986 
1903 887 969 987 
1904 130 131 987 
1905 942 934 984 
1906 992 920 993 
1907 147 148 902 
1908 954 947 955 
1909 909 907 989 
1910 982 929 988 
1911 994 928 995 
1912 153 154 897 
1913 897 981 982 
1914 929 916 988 
1915 916 912 988 
1916 897 154 981 
1917 153 897 986 
1918 924 928 990 
1919 907 986 989 
1920 928 922 992 
1921 897 982 989 
1922 929 982 991 
1923 920 918 993 
1924 965 990 994 
1925 929 991 993 
1926 981 890 991 
1927 975 892 994 
1928 974 992 993 
1929 982 981 991 
1930 986 897 989 
1931 973 975 995 
1932 927 924 990 
1933 922 920 992 
1934 918 929 993 
1935 974 973 995 
1936 990 928 994 
1937 928 992 995 
1938 992 974 995 
1939 959 949 1003 
1940 904 997 1023 
1941 901 953 999 
1942 953 944 1000 
1943 898 138 996 
1944 1001 904 1023 
1945 138 139 996 
1946 125 126 997 
1947 162 163 998 
1948 930 968 1006 
1949 979 957 1007 
1950 898 1000 1022 
1951 141 901 999 
1952 944 936 1000 
1953 126 899 997 
1954 163 900 998 
1955 1003 927 1012 
1956 893 952 1005 
1957 965 966 1002 
1958 927 990 1002 
1959 953 996 999 
1960 925 927 1003 
1961 949 938 1003 
1962 893 144 1004 
1963 143 893 1005 
1964 901 142 1005 
1965 977 930 1006 
1966 957 987 1007 
1967 902 955 1008 
1968 161 8 1010 
1969 5 125 1009 
1970 8 162 1010 
1971 7 147 1008 
1972 168 5 1009 
1973 146 7 1008 
1974 140 141 999 
1975 936 942 1000 
1976 968 967 1021 
1977 926 979 1020 
1978 139 6 1011 
1979 6 140 1011 
1980 927 1002 1012 
1981 948 949 1001 
1982 958 904 1001 
1983 968 930 1016 
1984 957 979 1014 
1985 959 1003 1012 
1986 145 955 1004 
1987 990 965 1002 
1988 1006 968 1021 
1989 979 1007 1020 
1990 938 925 1003 
1991 144 145 1004 
1992 955 947 1004 
1993 142 143 1005 
1994 1002 961 1012 
1995 162 998 1010 
1996 125 997 1009 
1997 951 977 1006 
1998 987 969 1007 
1999 903 161 1010 
2000 904 168 1009 
2001 147 902 1008 
2002 996 139 1011 
2003 942 1018 1022 
2004 1017 951 1021 
2005 969 1016 1020 
2006 950 1013 1014 
2007 1013 889 1014 
2008 943 1017 1019 
2009 1017 963 1019 
2010 1013 941 1015 
2011 962 1013 1015 
2012 899 962 1015 
2013 930 980 1016 
2014 896 963 1017 
2015 941 948 1015 
2016 889 957 1014 
2017 962 889 1013 
2018 950 941 1013 
2019 963 891 1019 
2020 943 951 1017 
2021 891 971 1018 
2022 979 950 1014 
2023 969 968 1016 
2024 942 984 1018 
2025 984 943 1019 
2026 1018 984 1019 
2027 891 1018 1019 
2028 896 1017 1021 
2029 1016 980 1020 
2030 1018 971 1022 
2031 980 926 1020 
2032 967 896 1021 
2033 971 898 1022 
2034 998 903 1010 
2035 997 904 1009 
2036 999 996 1011 
2037 1015 948 1023 
2038 899 1015 1023 
2039 140 999 1011 
2040 997 899 1023 
2041 1000 942 1022 
2042 948 1001 1023 
2043 951 1006 1021 
2044 1007 969 1020 
$EndElements
