$MeshFormat
2.2 0 8
$EndMeshFormat
$Nodes
273
1 0 0 0
2 0.02 0 0
3 0.02 0.01 0
4 0 0.01 0
5 0.0009999999999980118 0 0
6 0.00199999999999639 0 0
7 0.00299999999999406 0 0
8 0.003999999999991045 0 0
9 0.004999999999988165 0 0
10 0.005999999999985251 0 0
11 0.006999999999982302 0 0
12 0.007999999999979423 0 0
13 0.008999999999976235 0 0
14 0.009999999999973931 0 0
15 0.01099999999997637 0 0
16 0.01199999999997901 0 0
17 0.01299999999998192 0 0
18 0.01399999999998443 0 0
19 0.0149999999999868 0 0
20 0.01599999999998917 0 0
21 0.01699999999999323 0 0
22 0.01799999999999499 0 0
23 0.01899999999999594 0 0
24 0.02 0.000999999999998195 0
25 0.02 0.001999999999995523 0
26 0.02 0.002999999999992625 0
27 0.02 0.003999999999989711 0
28 0.02 0.004999999999986965 0
29 0.02 0.005999999999989505 0
30 0.02 0.006999999999992215 0
31 0.02 0.007999999999994584 0
32 0.02 0.008999999999997496 0
33 0.01899999999999983 0.01 0
34 0.0180000000000044 0.01 0
35 0.01700000000000897 0.01 0
36 0.01600000000001043 0.01 0
37 0.01500000000001066 0.01 0
38 0.01400000000001524 0.01 0
39 0.01300000000001981 0.01 0
40 0.01200000000002099 0.01 0
41 0.01100000000002414 0.01 0
42 0.01000000000002642 0.01 0
43 0.009000000000023942 0.01 0
44 0.008000000000021266 0.01 0
45 0.007000000000018318 0.01 0
46 0.006000000000015779 0.01 0
47 0.005000000000013372 0.01 0
48 0.004000000000010967 0.01 0
49 0.003000000000006872 0.01 0
50 0.002000000000005078 0.01 0
51 0.001000000000004098 0.01 0
52 0 0.009000000000002201 0
53 0 0.008000000000005215 0
54 0 0.007000000000007618 0
55 0 0.006000000000010497 0
56 0 0.005000000000013208 0
57 0 0.004000000000010633 0
58 0 0.00300000000000789 0
59 0 0.002000000000005484 0
60 0 0.001000000000002539 0
61 0.01450000000001295 0.009133974596219518 0
62 0.005493571333612004 0.0008453590180482818 0
63 0.008499999999977829 0.0008660254037816781 0
64 0.01150000000002284 0.00913397459621826 0
65 0.01349999999997807 0.0008660254037910134 0
66 0.006500000000021349 0.009133974596208926 0
67 0.01915221718677762 0.004531597093708398 0
68 0.0008477828132219926 0.005468402906291935 0
69 0.01649999999998468 0.0008660254037906562 0
70 0.003500000000016335 0.009133974596207305 0
71 0.01655741768409074 0.009031775980623959 0
72 0.01913397459621361 0.006499999999992151 0
73 0.0008660254037864748 0.003500000000008234 0
74 0.01149999999997619 0.000866025403786195 0
75 0.008500000000024004 0.009133974596213758 0
76 0.003442582315910337 0.0009682240193750238 0
77 0.01910370387503873 0.002413274345295206 0
78 0.0008962961249601652 0.007586725654704314 0
79 0.0191563036955834 0.008461324865400877 0
80 0.0008436963044167478 0.001538675134599181 0
81 0.01849576263071357 0.0008467720450577276 0
82 0.001504237369286193 0.009153227954942148 0
83 0.01049999999997515 0.0008660254037844972 0
84 0.01102469636473768 0.001717792354725752 0
85 0.01200411606076815 0.001729674398765396 0
86 0.01152949843566153 0.002581045281569291 0
87 0.01250560241605193 0.002594841654926342 0
88 0.0120058501419306 0.003460724034104449 0
89 0.01103058779435318 0.003381057602921957 0
90 0.01300190875964178 0.003462999592232708 0
91 0.01250129315023828 0.004329380418268154 0
92 0.01350053365162236 0.004329818915001224 0
93 0.01302500083171395 0.005181718185769636 0
94 0.01400425574719604 0.005193695365902877 0
95 0.01450079823311232 0.004329666158809427 0
96 0.01500084233002402 0.005195666103228701 0
97 0.01202907869507481 0.005146671759817943 0
98 0.01549999999996258 0.004330127018936001 0
99 0.01600014038830312 0.005196071369473018 0
100 0.0135141266206443 0.006054021818241055 0
101 0.0155001637863581 0.006062083264380084 0
102 0.01500013303882408 0.003464024805130186 0
103 0.01600002217310816 0.003464088813483715 0
104 0.01648127656904231 0.00607298780438419 0
105 0.01599690672586801 0.006929989132913675 0
106 0.01699999999995201 0.006928203230291291 0
107 0.01692634005282418 0.005252004281404307 0
108 0.01550002586863506 0.002598061276086422 0
109 0.0165000020842475 0.002598075008011801 0
110 0.01002881242553241 0.00168272387546191 0
111 0.01499951175200767 0.006928485120368376 0
112 0.01700000404286839 0.003464099280985417 0
113 0.01350125186259606 0.002597353448138244 0
114 0.0154999999999514 0.007794228634069166 0
115 0.01747099467022297 0.002614822446310409 0
116 0.01796805665656545 0.003466198077842434 0
117 0.0144999999999537 0.007794228634065851 0
118 0.0160000046587973 0.001732048117808932 0
119 0.01500000508788754 0.001732047870073203 0
120 0.009500000000025429 0.009133974596216149 0
121 0.009000000000026523 0.008267949192430471 0
122 0.00800000000002573 0.00826794919242704 0
123 0.008500000000028599 0.00740192378864401 0
124 0.007500000000028229 0.007401923788640612 0
125 0.008000000000031119 0.006535898384857733 0
126 0.007000000000031124 0.006535898384854345 0
127 0.007500000000033796 0.005669872981071729 0
128 0.006500000000034161 0.005669872981068378 0
129 0.007000000000036687 0.004803847577285982 0
130 0.006000000000037122 0.004803847577282572 0
131 0.005500000000034537 0.005669872981065019 0
132 0.005000000000037546 0.004803847577279178 0
133 0.004500000000034937 0.005669872981061748 0
134 0.004000000000038039 0.00480384757727597 0
135 0.009500000000028128 0.007401923788647506 0
136 0.008500000000033512 0.005669872981074998 0
137 0.006500000000039374 0.003937822173500205 0
138 0.007500000000038859 0.003937822173503732 0
139 0.004500000000040566 0.003937822173493463 0
140 0.005000000000031899 0.006535898384847479 0
141 0.00400000000003216 0.00653589838484435 0
142 0.00700000000004195 0.003071796769718459 0
143 0.003518774126745737 0.003926982926383685 0
144 0.008000000000040877 0.003104739446478271 0
145 0.004003129021161248 0.003069990228523649 0
146 0.003000000000044447 0.003071796769704714 0
147 0.003073691794528723 0.00474797733151297 0
148 0.004500000000029297 0.007401923788630332 0
149 0.003500000000028694 0.007401923788628233 0
150 0.005000521503562385 0.003071495679513853 0
151 0.008500000000037903 0.003943312619633027 0
152 0.003000000000032249 0.006535898384841348 0
153 0.006500000000028218 0.007401923788637028 0
154 0.007524696364796486 0.002295330176876885 0
155 0.004500000000046249 0.002205771365926098 0
156 0.006504116060836874 0.002253640511186419 0
157 0.009000000000036947 0.003090549442487071 0
158 0.009475303635261632 0.004021505287069967 0
159 0.002529006350970802 0.007385176964099838 0
160 0.002031944187449182 0.006533801434862942 0
161 0.007029498435708983 0.001548970362458324 0
162 0.01000935797002888 0.003151176508305379 0
163 0.00400000000002469 0.008267949192416616 0
164 0.00500000000002724 0.008267949192416647 0
165 0.004500000000018862 0.009133974596206905 0
166 0.003004834391844843 0.008265158054994977 0
167 0.001849446511860935 0.008182381137250562 0
168 0.01250068601010957 0.0008656293356531388 0
169 0.007500000000022614 0.009133974596212216 0
170 0.01913769611277584 0.007493554144227941 0
171 0.01828593392740148 0.008016110144606663 0
172 0.01837315865772308 0.009082215888763753 0
173 0.01740192378864529 0.008499999999994498 0
174 0.01809952723586383 0.006958123240898235 0
175 0.01828534149673179 0.00592347261959367 0
176 0.01913991374535815 0.005492511618877375 0
177 0.01835735754743122 0.004987131680159788 0
178 0.01550000162443728 0.0008660244659119522 0
179 0.0169951669022032 0.001734841197883656 0
180 0.01815055381888744 0.00181761867179031 0
181 0.005500201199382601 0.002224920354993175 0
182 0.0008623038872243878 0.002506445855772219 0
183 0.001714066072598834 0.001983889855392783 0
184 0.001626841342277064 0.0009177841112360523 0
185 0.002598076211356032 0.001500000000005157 0
186 0.001900472764135431 0.003041876759100239 0
187 0.001714658503267043 0.004076527380404977 0
188 0.0008600862546415531 0.004507488381122791 0
189 0.001642642452567062 0.005012868319838897 0
190 0.01402696942684294 0.006912632424408757 0
191 0.01350321064603671 0.007675617572233448 0
192 0.0124753036352571 0.009148233049062345 0
193 0.01197118757446521 0.008284584054087616 0
194 0.01099519792909854 0.008270721669377515 0
195 0.01149439758394378 0.00740515834508572 0
196 0.01249479930074143 0.007516235129832388 0
197 0.01203399443593727 0.006646280120230577 0
198 0.01098003563856892 0.006601784956798183 0
199 0.01550000000001207 0.00913397459621736 0
200 0.01752358055862952 0.0008775428864203914 0
201 0.002476419712170042 0.009122456957232496 0
202 0.00950480207090202 0.0008578042484325364 0
203 0.009030298780831548 0.00164306747221278 0
204 0.002454515082692716 0.005550762388896112 0
205 0.01656286139729512 0.007898582921584168 0
206 0.005500086917293081 0.003937771991797235 0
207 0.003437143709423094 0.00210141413004782 0
208 0.01754549016505844 0.004449234581309709 0
209 0.006000820946859377 0.003082907913451557 0
210 0.009000000000030619 0.006535898384860697 0
211 0.009500000000033617 0.005669872981077919 0
212 0.01450546067416317 0.006059025104777193 0
213 0.01347118757446019 0.009183301528324608 0
214 0.00350470114622647 0.005640709508072082 0
215 0.01151113496358822 0.004307352209456231 0
216 0.01095730954692687 0.005049166397418657 0
217 0.01649533280368747 0.004359270890932027 0
218 0.01049919965487072 0.009134436675707775 0
219 0.00800000000003597 0.004804762651643619 0
220 0.001010379499358023 0.006528684325007017 0
221 0.004499999999989604 0.0008660254037818659 0
222 0.006000000000031442 0.006535898384850763 0
223 0.01048041853827793 0.004189519183921406 0
224 0.007000000000025377 0.008267949192424174 0
225 0.01898962062121479 0.003471315605379075 0
226 0.00900000000003507 0.00480384757729225 0
227 0.01400077092429434 0.003463656521779592 0
228 0.01300194272491265 0.001730929174809136 0
229 0.01049493852528251 0.007413906056200947 0
230 0.005500000000029037 0.007401923788633579 0
231 0.00999822268488864 0.008270485329763391 0
232 0.01450026033120665 0.002597925909055495 0
233 0.006000000000025298 0.008267949192420203 0
234 0.009971132662565836 0.006563134977621819 0
235 0.01400029421823118 0.001731880940589349 0
236 0.00550000000002039 0.009133974596206518 0
237 0.01450005015508421 0.0008659964467275862 0
238 0.01916755449290705 0.001491358014680719 0
239 0.0008324455464676131 0.008508641962586194 0
240 0.01738735523972909 0.006127213309148057 0
241 0.002612644760269142 0.003872786690847415 0
242 0.01747004926983155 0.007660203907474973 0
243 0.002529951751511567 0.002339795502850143 0
244 0.006528541326316526 0.0007853676816583145 0
245 0.01262046879838494 0.005971317132011713 0
246 0.01306538058108091 0.006809341693889778 0
247 0.01294762631886109 0.008371484848988999 0
248 0.01058303225819361 0.002498968219277369 0
249 0.008070035645531253 0.001605820922109899 0
250 0.009929669747556406 0.004907606075165394 0
251 0.01043839523132864 0.00577031043660047 0
252 0.007557583697624486 0.0007951575735865829 0
253 0.01749999999999781 0.009330127018915469 0
254 0.002500000000003039 0.0006698729810836323 0
255 0.01150000000002602 0.005866025403812396 0
256 0.0139966170579795 0.008457077593229905 0
257 0.01499943617632017 0.008462930944828286 0
258 0.009525250239110968 0.002411652157370575 0
259 0.004999999999988135 0.001535898384832842 0
260 0.01593583930450212 0.008464173408278942 0
261 0.004064119972688003 0.001535741050998299 0
262 0.008525046838391347 0.00235852660292258 0
263 0.006009321392640854 0.001532359385529559 0
264 0.01833658592838588 0.002756645829323486 0
265 0.001663414534919821 0.007243353903184934 0
266 0.0183774047358108 0.004189582562297899 0
267 0.001622595264187653 0.005810417437701481 0
268 0.01926794919242941 0.009267949192428782 0
269 0.0007320508075718062 0.009267949192429877 0
270 0.0192679491924283 0.0007320508075701359 0
271 0.0007320508075703999 0.0007320508075716128 0
272 0.0023028023362032 0.004621417682344796 0
273 0.01769720296309564 0.005378579258099055 0
$EndNodes
$Elements
544
1 1 2 1 1 1 5
2 1 2 1 1 5 6
3 1 2 1 1 6 7
4 1 2 1 1 7 8
5 1 2 1 1 8 9
6 1 2 1 1 9 10
7 1 2 1 1 10 11
8 1 2 1 1 11 12
9 1 2 1 1 12 13
10 1 2 1 1 13 14
11 1 2 1 1 14 15
12 1 2 1 1 15 16
13 1 2 1 1 16 17
14 1 2 1 1 17 18
15 1 2 1 1 18 19
16 1 2 1 1 19 20
17 1 2 1 1 20 21
18 1 2 1 1 21 22
19 1 2 1 1 22 23
20 1 2 1 1 23 2
21 1 2 2 2 2 24
22 1 2 2 2 24 25
23 1 2 2 2 25 26
24 1 2 2 2 26 27
25 1 2 2 2 27 28
26 1 2 2 2 28 29
27 1 2 2 2 29 30
28 1 2 2 2 30 31
29 1 2 2 2 31 32
30 1 2 2 2 32 3
31 1 2 3 3 3 33
32 1 2 3 3 33 34
33 1 2 3 3 34 35
34 1 2 3 3 35 36
35 1 2 3 3 36 37
36 1 2 3 3 37 38
37 1 2 3 3 38 39
38 1 2 3 3 39 40
39 1 2 3 3 40 41
40 1 2 3 3 41 42
41 1 2 3 3 42 43
42 1 2 3 3 43 44
43 1 2 3 3 44 45
44 1 2 3 3 45 46
45 1 2 3 3 46 47
46 1 2 3 3 47 48
47 1 2 3 3 48 49
48 1 2 3 3 49 50
49 1 2 3 3 50 51
50 1 2 3 3 51 4
51 1 2 4 4 4 52
52 1 2 4 4 52 53
53 1 2 4 4 53 54
54 1 2 4 4 54 55
55 1 2 4 4 55 56
56 1 2 4 4 56 57
57 1 2 4 4 57 58
58 1 2 4 4 58 59
59 1 2 4 4 59 60
60 1 2 4 4 60 1
61 2 2 1 1 173 71 205
62 2 2 1 1 185 76 207
63 2 2 1 1 205 71 260
64 2 2 1 1 207 76 261
65 2 2 1 1 77 180 238
66 2 2 1 1 78 167 239
67 2 2 1 1 180 77 264
68 2 2 1 1 167 78 265
69 2 2 1 1 158 162 223
70 2 2 1 1 162 89 223
71 2 2 1 1 174 106 240
72 2 2 1 1 186 146 241
73 2 2 1 1 244 11 252
74 2 2 1 1 161 244 252
75 2 2 1 1 33 34 172
76 2 2 1 1 5 6 184
77 2 2 1 1 106 174 242
78 2 2 1 1 146 186 243
79 2 2 1 1 175 174 240
80 2 2 1 1 187 186 241
81 2 2 1 1 33 172 268
82 2 2 1 1 5 184 271
83 2 2 1 1 180 81 238
84 2 2 1 1 167 82 239
85 2 2 1 1 225 116 264
86 2 2 1 1 220 160 265
87 2 2 1 1 197 245 246
88 2 2 1 1 196 197 246
89 2 2 1 1 154 161 249
90 2 2 1 1 249 161 252
91 2 2 1 1 250 216 251
92 2 2 1 1 223 216 250
93 2 2 1 1 110 248 258
94 2 2 1 1 213 247 256
95 2 2 1 1 198 251 255
96 2 2 1 1 97 245 255
97 2 2 1 1 173 205 242
98 2 2 1 1 185 207 243
99 2 2 1 1 116 225 266
100 2 2 1 1 160 220 267
101 2 2 1 1 77 225 264
102 2 2 1 1 78 220 265
103 2 2 1 1 204 189 272
104 2 2 1 1 208 177 273
105 2 2 1 1 71 173 253
106 2 2 1 1 76 185 254
107 2 2 1 1 147 204 272
108 2 2 1 1 107 208 273
109 2 2 1 1 248 162 258
110 2 2 1 1 247 191 256
111 2 2 1 1 251 216 255
112 2 2 1 1 245 197 255
113 2 2 1 1 82 167 201
114 2 2 1 1 81 180 200
115 2 2 1 1 69 118 178
116 2 2 1 1 20 69 178
117 2 2 1 1 70 163 165
118 2 2 1 1 167 166 201
119 2 2 1 1 48 70 165
120 2 2 1 1 180 179 200
121 2 2 1 1 163 70 166
122 2 2 1 1 118 69 179
123 2 2 1 1 47 48 165
124 2 2 1 1 179 69 200
125 2 2 1 1 46 47 236
126 2 2 1 1 18 19 237
127 2 2 1 1 19 20 178
128 2 2 1 1 166 70 201
129 2 2 1 1 67 176 177
130 2 2 1 1 68 188 189
131 2 2 1 1 47 165 236
132 2 2 1 1 28 29 176
133 2 2 1 1 67 28 176
134 2 2 1 1 159 149 166
135 2 2 1 1 56 57 188
136 2 2 1 1 19 178 237
137 2 2 1 1 168 65 228
138 2 2 1 1 149 163 166
139 2 2 1 1 68 56 188
140 2 2 1 1 169 66 224
141 2 2 1 1 17 65 168
142 2 2 1 1 45 66 169
143 2 2 1 1 16 17 168
144 2 2 1 1 44 45 169
145 2 2 1 1 115 109 179
146 2 2 1 1 224 66 233
147 2 2 1 1 228 65 235
148 2 2 1 1 109 118 179
149 2 2 1 1 159 166 167
150 2 2 1 1 72 30 170
151 2 2 1 1 36 37 199
152 2 2 1 1 37 61 199
153 2 2 1 1 72 170 174
154 2 2 1 1 73 58 182
155 2 2 1 1 83 74 84
156 2 2 1 1 22 81 200
157 2 2 1 1 73 182 186
158 2 2 1 1 50 82 201
159 2 2 1 1 229 135 234
160 2 2 1 1 14 15 83
161 2 2 1 1 142 137 209
162 2 2 1 1 42 43 120
163 2 2 1 1 115 179 180
164 2 2 1 1 170 171 174
165 2 2 1 1 121 135 231
166 2 2 1 1 15 74 83
167 2 2 1 1 29 72 176
168 2 2 1 1 120 75 121
169 2 2 1 1 43 75 120
170 2 2 1 1 63 202 203
171 2 2 1 1 13 14 202
172 2 2 1 1 57 73 188
173 2 2 1 1 181 156 209
174 2 2 1 1 20 21 69
175 2 2 1 1 182 183 186
176 2 2 1 1 48 49 70
177 2 2 1 1 39 40 192
178 2 2 1 1 75 44 169
179 2 2 1 1 42 120 218
180 2 2 1 1 74 16 168
181 2 2 1 1 190 100 212
182 2 2 1 1 63 13 202
183 2 2 1 1 171 79 172
184 2 2 1 1 49 50 201
185 2 2 1 1 21 22 200
186 2 2 1 1 137 206 209
187 2 2 1 1 66 46 236
188 2 2 1 1 31 79 170
189 2 2 1 1 101 111 212
190 2 2 1 1 14 83 202
191 2 2 1 1 29 30 72
192 2 2 1 1 31 32 79
193 2 2 1 1 170 79 171
194 2 2 1 1 156 142 209
195 2 2 1 1 15 16 74
196 2 2 1 1 43 44 75
197 2 2 1 1 171 172 173
198 2 2 1 1 35 36 71
199 2 2 1 1 57 58 73
200 2 2 1 1 83 84 110
201 2 2 1 1 59 80 182
202 2 2 1 1 137 130 206
203 2 2 1 1 70 49 201
204 2 2 1 1 69 21 200
205 2 2 1 1 59 60 80
206 2 2 1 1 204 147 214
207 2 2 1 1 198 229 234
208 2 2 1 1 183 80 184
209 2 2 1 1 182 80 183
210 2 2 1 1 183 184 185
211 2 2 1 1 208 107 217
212 2 2 1 1 72 174 175
213 2 2 1 1 188 187 189
214 2 2 1 1 111 190 212
215 2 2 1 1 73 186 187
216 2 2 1 1 30 31 170
217 2 2 1 1 176 175 177
218 2 2 1 1 130 132 206
219 2 2 1 1 38 39 213
220 2 2 1 1 96 101 212
221 2 2 1 1 73 187 188
222 2 2 1 1 58 59 182
223 2 2 1 1 210 136 211
224 2 2 1 1 112 208 217
225 2 2 1 1 72 175 176
226 2 2 1 1 111 114 117
227 2 2 1 1 111 105 114
228 2 2 1 1 152 159 160
229 2 2 1 1 101 105 111
230 2 2 1 1 83 110 202
231 2 2 1 1 125 136 210
232 2 2 1 1 61 38 213
233 2 2 1 1 112 115 116
234 2 2 1 1 202 110 203
235 2 2 1 1 152 204 214
236 2 2 1 1 150 145 155
237 2 2 1 1 50 51 82
238 2 2 1 1 22 23 81
239 2 2 1 1 120 121 231
240 2 2 1 1 139 145 150
241 2 2 1 1 65 18 237
242 2 2 1 1 144 142 154
243 2 2 1 1 93 94 100
244 2 2 1 1 101 104 105
245 2 2 1 1 150 155 181
246 2 2 1 1 125 126 127
247 2 2 1 1 39 192 213
248 2 2 1 1 154 156 161
249 2 2 1 1 112 116 208
250 2 2 1 1 138 137 142
251 2 2 1 1 71 36 199
252 2 2 1 1 129 130 137
253 2 2 1 1 154 142 156
254 2 2 1 1 147 134 214
255 2 2 1 1 152 160 204
256 2 2 1 1 86 87 88
257 2 2 1 1 17 18 65
258 2 2 1 1 192 64 193
259 2 2 1 1 139 143 145
260 2 2 1 1 88 90 91
261 2 2 1 1 125 124 126
262 2 2 1 1 152 149 159
263 2 2 1 1 40 64 192
264 2 2 1 1 123 125 210
265 2 2 1 1 211 136 226
266 2 2 1 1 84 74 85
267 2 2 1 1 141 149 152
268 2 2 1 1 45 46 66
269 2 2 1 1 88 87 90
270 2 2 1 1 127 128 129
271 2 2 1 1 141 152 214
272 2 2 1 1 132 139 206
273 2 2 1 1 84 85 86
274 2 2 1 1 129 137 138
275 2 2 1 1 96 99 101
276 2 2 1 1 112 109 115
277 2 2 1 1 103 109 112
278 2 2 1 1 121 123 135
279 2 2 1 1 135 123 210
280 2 2 1 1 127 126 128
281 2 2 1 1 123 124 125
282 2 2 1 1 138 142 144
283 2 2 1 1 100 94 212
284 2 2 1 1 134 133 214
285 2 2 1 1 129 138 219
286 2 2 1 1 129 128 130
287 2 2 1 1 93 92 94
288 2 2 1 1 103 112 217
289 2 2 1 1 125 127 136
290 2 2 1 1 91 92 93
291 2 2 1 1 111 117 190
292 2 2 1 1 133 141 214
293 2 2 1 1 91 93 97
294 2 2 1 1 107 99 217
295 2 2 1 1 114 105 205
296 2 2 1 1 143 134 147
297 2 2 1 1 190 117 191
298 2 2 1 1 101 99 104
299 2 2 1 1 91 90 92
300 2 2 1 1 136 127 219
301 2 2 1 1 86 85 87
302 2 2 1 1 132 134 139
303 2 2 1 1 145 146 207
304 2 2 1 1 139 150 206
305 2 2 1 1 155 145 207
306 2 2 1 1 94 96 212
307 2 2 1 1 138 151 219
308 2 2 1 1 86 88 89
309 2 2 1 1 150 181 209
310 2 2 1 1 105 106 205
311 2 2 1 1 105 104 106
312 2 2 1 1 218 120 231
313 2 2 1 1 145 143 146
314 2 2 1 1 139 134 143
315 2 2 1 1 99 98 217
316 2 2 1 1 132 131 133
317 2 2 1 1 91 97 215
318 2 2 1 1 206 150 209
319 2 2 1 1 127 129 219
320 2 2 1 1 104 99 107
321 2 2 1 1 88 91 215
322 2 2 1 1 132 133 134
323 2 2 1 1 121 75 122
324 2 2 1 1 98 103 217
325 2 2 1 1 96 98 99
326 2 2 1 1 151 144 157
327 2 2 1 1 126 124 153
328 2 2 1 1 219 151 226
329 2 2 1 1 96 95 98
330 2 2 1 1 89 88 215
331 2 2 1 1 123 122 124
332 2 2 1 1 215 97 216
333 2 2 1 1 130 131 132
334 2 2 1 1 193 195 196
335 2 2 1 1 158 157 162
336 2 2 1 1 133 140 141
337 2 2 1 1 94 95 96
338 2 2 1 1 121 122 123
339 2 2 1 1 130 128 131
340 2 2 1 1 133 131 140
341 2 2 1 1 94 92 95
342 2 2 1 1 90 87 113
343 2 2 1 1 53 54 78
344 2 2 1 1 124 122 224
345 2 2 1 1 138 144 151
346 2 2 1 1 151 158 226
347 2 2 1 1 141 148 149
348 2 2 1 1 9 10 62
349 2 2 1 1 98 102 103
350 2 2 1 1 126 153 222
351 2 2 1 1 8 9 221
352 2 2 1 1 151 157 158
353 2 2 1 1 40 41 64
354 2 2 1 1 41 42 218
355 2 2 1 1 12 13 63
356 2 2 1 1 27 28 67
357 2 2 1 1 196 195 197
358 2 2 1 1 55 56 68
359 2 2 1 1 37 38 61
360 2 2 1 1 98 95 102
361 2 2 1 1 103 108 109
362 2 2 1 1 136 219 226
363 2 2 1 1 89 215 223
364 2 2 1 1 135 229 231
365 2 2 1 1 7 8 76
366 2 2 1 1 128 126 222
367 2 2 1 1 215 216 223
368 2 2 1 1 92 90 227
369 2 2 1 1 90 113 227
370 2 2 1 1 153 124 224
371 2 2 1 1 87 85 228
372 2 2 1 1 135 210 234
373 2 2 1 1 26 27 225
374 2 2 1 1 54 55 220
375 2 2 1 1 141 140 148
376 2 2 1 1 131 128 222
377 2 2 1 1 9 62 221
378 2 2 1 1 122 75 169
379 2 2 1 1 25 26 77
380 2 2 1 1 193 194 195
381 2 2 1 1 149 148 163
382 2 2 1 1 95 92 227
383 2 2 1 1 140 131 222
384 2 2 1 1 193 64 194
385 2 2 1 1 197 195 198
386 2 2 1 1 103 102 108
387 2 2 1 1 85 74 168
388 2 2 1 1 163 148 164
389 2 2 1 1 113 87 228
390 2 2 1 1 64 41 218
391 2 2 1 1 122 169 224
392 2 2 1 1 194 64 218
393 2 2 1 1 76 8 221
394 2 2 1 1 163 164 165
395 2 2 1 1 109 108 118
396 2 2 1 1 118 108 119
397 2 2 1 1 194 218 231
398 2 2 1 1 118 119 178
399 2 2 1 1 27 67 225
400 2 2 1 1 102 95 227
401 2 2 1 1 55 68 220
402 2 2 1 1 78 54 220
403 2 2 1 1 222 153 230
404 2 2 1 1 140 222 230
405 2 2 1 1 77 26 225
406 2 2 1 1 85 168 228
407 2 2 1 1 227 113 232
408 2 2 1 1 195 194 229
409 2 2 1 1 198 195 229
410 2 2 1 1 164 148 230
411 2 2 1 1 102 227 232
412 2 2 1 1 119 108 232
413 2 2 1 1 148 140 230
414 2 2 1 1 108 102 232
415 2 2 1 1 229 194 231
416 2 2 1 1 230 153 233
417 2 2 1 1 164 230 233
418 2 2 1 1 153 224 233
419 2 2 1 1 233 66 236
420 2 2 1 1 210 211 234
421 2 2 1 1 232 113 235
422 2 2 1 1 119 232 235
423 2 2 1 1 113 228 235
424 2 2 1 1 235 65 237
425 2 2 1 1 164 233 236
426 2 2 1 1 119 235 237
427 2 2 1 1 165 164 236
428 2 2 1 1 178 119 237
429 2 2 1 1 191 196 246
430 2 2 1 1 196 191 247
431 2 2 1 1 89 162 248
432 2 2 1 1 158 223 250
433 2 2 1 1 52 53 239
434 2 2 1 1 24 25 238
435 2 2 1 1 104 107 240
436 2 2 1 1 143 147 241
437 2 2 1 1 25 77 238
438 2 2 1 1 53 78 239
439 2 2 1 1 174 171 242
440 2 2 1 1 186 183 243
441 2 2 1 1 10 11 244
442 2 2 1 1 190 191 246
443 2 2 1 1 97 93 245
444 2 2 1 1 86 89 248
445 2 2 1 1 193 196 247
446 2 2 1 1 110 84 248
447 2 2 1 1 11 12 252
448 2 2 1 1 213 192 247
449 2 2 1 1 226 158 250
450 2 2 1 1 198 234 251
451 2 2 1 1 35 71 253
452 2 2 1 1 7 76 254
453 2 2 1 1 144 154 262
454 2 2 1 1 161 156 263
455 2 2 1 1 115 180 264
456 2 2 1 1 159 167 265
457 2 2 1 1 225 67 266
458 2 2 1 1 220 68 267
459 2 2 1 1 205 106 242
460 2 2 1 1 207 146 243
461 2 2 1 1 51 4 269
462 2 2 1 1 23 2 270
463 2 2 1 1 3 33 268
464 2 2 1 1 4 52 269
465 2 2 1 1 2 24 270
466 2 2 1 1 60 1 271
467 2 2 1 1 1 5 271
468 2 2 1 1 172 79 268
469 2 2 1 1 32 3 268
470 2 2 1 1 184 80 271
471 2 2 1 1 106 104 240
472 2 2 1 1 146 143 241
473 2 2 1 1 172 34 253
474 2 2 1 1 184 6 254
475 2 2 1 1 177 208 266
476 2 2 1 1 189 204 267
477 2 2 1 1 244 161 263
478 2 2 1 1 154 249 262
479 2 2 1 1 171 173 242
480 2 2 1 1 183 185 243
481 2 2 1 1 62 10 244
482 2 2 1 1 100 190 246
483 2 2 1 1 245 100 246
484 2 2 1 1 63 203 249
485 2 2 1 1 93 100 245
486 2 2 1 1 192 193 247
487 2 2 1 1 211 226 250
488 2 2 1 1 84 86 248
489 2 2 1 1 211 250 251
490 2 2 1 1 63 249 252
491 2 2 1 1 12 63 252
492 2 2 1 1 234 211 251
493 2 2 1 1 208 116 266
494 2 2 1 1 204 160 267
495 2 2 1 1 259 62 263
496 2 2 1 1 203 258 262
497 2 2 1 1 216 97 255
498 2 2 1 1 257 114 260
499 2 2 1 1 162 157 258
500 2 2 1 1 191 117 256
501 2 2 1 1 117 114 257
502 2 2 1 1 114 205 260
503 2 2 1 1 256 117 257
504 2 2 1 1 181 155 259
505 2 2 1 1 155 207 261
506 2 2 1 1 259 155 261
507 2 2 1 1 34 35 253
508 2 2 1 1 6 7 254
509 2 2 1 1 173 172 253
510 2 2 1 1 185 184 254
511 2 2 1 1 199 61 257
512 2 2 1 1 199 257 260
513 2 2 1 1 197 198 255
514 2 2 1 1 61 213 256
515 2 2 1 1 203 110 258
516 2 2 1 1 61 256 257
517 2 2 1 1 71 199 260
518 2 2 1 1 221 62 259
519 2 2 1 1 221 259 261
520 2 2 1 1 76 221 261
521 2 2 1 1 181 259 263
522 2 2 1 1 258 157 262
523 2 2 1 1 157 144 262
524 2 2 1 1 156 181 263
525 2 2 1 1 116 115 264
526 2 2 1 1 160 159 265
527 2 2 1 1 67 177 266
528 2 2 1 1 68 189 267
529 2 2 1 1 52 239 269
530 2 2 1 1 24 238 270
531 2 2 1 1 79 32 268
532 2 2 1 1 82 51 269
533 2 2 1 1 81 23 270
534 2 2 1 1 80 60 271
535 2 2 1 1 177 175 273
536 2 2 1 1 189 187 272
537 2 2 1 1 241 147 272
538 2 2 1 1 240 107 273
539 2 2 1 1 238 81 270
540 2 2 1 1 239 82 269
541 2 2 1 1 62 244 263
542 2 2 1 1 249 203 262
543 2 2 1 1 175 240 273
544 2 2 1 1 187 241 272
$EndElements
