$MeshFormat
2.2 0 8
$EndMeshFormat
$Nodes
999
1 0 0 0
2 0.02 0 0
3 0.02 0.01 0
4 0 0.01 0
5 0.0004999999999990619 0 0
6 0.0009999999999980118 0 0
7 0.001499999999997144 0 0
8 0.00199999999999639 0 0
9 0.002499999999995619 0 0
10 0.00299999999999406 0 0
11 0.003499999999992672 0 0
12 0.003999999999991045 0 0
13 0.004499999999989554 0 0
14 0.004999999999988165 0 0
15 0.005499999999986776 0 0
16 0.005999999999985251 0 0
17 0.006499999999983659 0 0
18 0.006999999999982302 0 0
19 0.00749999999998088 0 0
20 0.007999999999979423 0 0
21 0.008499999999977116 0 0
22 0.008999999999976235 0 0
23 0.00949999999997583 0 0
24 0.009999999999973931 0 0
25 0.01049999999997562 0 0
26 0.01099999999997637 0 0
27 0.01149999999997698 0 0
28 0.01199999999997901 0 0
29 0.01249999999998104 0 0
30 0.01299999999998192 0 0
31 0.0134999999999824 0 0
32 0.01399999999998443 0 0
33 0.01449999999998646 0 0
34 0.0149999999999868 0 0
35 0.01549999999998714 0 0
36 0.01599999999998917 0 0
37 0.0164999999999912 0 0
38 0.01699999999999323 0 0
39 0.01749999999999527 0 0
40 0.01799999999999499 0 0
41 0.01849999999999391 0 0
42 0.01899999999999594 0 0
43 0.01949999999999797 0 0
44 0.02 0.0004999999999990059 0
45 0.02 0.000999999999998195 0
46 0.02 0.00149999999999703 0
47 0.02 0.001999999999995523 0
48 0.02 0.002499999999994082 0
49 0.02 0.002999999999992625 0
50 0.02 0.003499999999991151 0
51 0.02 0.003999999999989711 0
52 0.02 0.004499999999988118 0
53 0.02 0.004999999999986965 0
54 0.02 0.005499999999988185 0
55 0.02 0.005999999999989505 0
56 0.02 0.006499999999990961 0
57 0.02 0.006999999999992215 0
58 0.02 0.007499999999993399 0
59 0.02 0.007999999999994584 0
60 0.02 0.008499999999996616 0
61 0.02 0.008999999999997496 0
62 0.02 0.009499999999997968 0
63 0.01949999999999808 0.01 0
64 0.01899999999999983 0.01 0
65 0.01850000000000212 0.01 0
66 0.0180000000000044 0.01 0
67 0.01750000000000669 0.01 0
68 0.01700000000000897 0.01 0
69 0.01650000000001031 0.01 0
70 0.01600000000001043 0.01 0
71 0.01550000000001028 0.01 0
72 0.01500000000001066 0.01 0
73 0.01450000000001295 0.01 0
74 0.01400000000001524 0.01 0
75 0.01350000000001752 0.01 0
76 0.01300000000001981 0.01 0
77 0.0125000000000204 0.01 0
78 0.01200000000002099 0.01 0
79 0.01150000000002328 0.01 0
80 0.01100000000002414 0.01 0
81 0.01050000000002453 0.01 0
82 0.01000000000002642 0.01 0
83 0.009500000000024704 0.01 0
84 0.009000000000023942 0.01 0
85 0.008500000000023314 0.01 0
86 0.008000000000021266 0.01 0
87 0.007500000000019219 0.01 0
88 0.007000000000018318 0.01 0
89 0.006500000000017827 0.01 0
90 0.006000000000015779 0.01 0
91 0.00550000000001373 0.01 0
92 0.005000000000013372 0.01 0
93 0.004500000000013016 0.01 0
94 0.004000000000010967 0.01 0
95 0.00350000000000892 0.01 0
96 0.003000000000006872 0.01 0
97 0.002500000000004825 0.01 0
98 0.002000000000005078 0.01 0
99 0.001500000000006146 0.01 0
100 0.001000000000004098 0.01 0
101 0.0005000000000020474 0.01 0
102 0 0.009499999999999915 0
103 0 0.009000000000002201 0
104 0 0.008500000000004487 0
105 0 0.008000000000005215 0
106 0 0.007500000000005332 0
107 0 0.007000000000007618 0
108 0 0.006500000000009904 0
109 0 0.006000000000010497 0
110 0 0.005500000000012072 0
111 0 0.005000000000013208 0
112 0 0.004500000000011971 0
113 0 0.004000000000010633 0
114 0 0.003500000000009159 0
115 0 0.00300000000000789 0
116 0 0.002500000000006686 0
117 0 0.002000000000005484 0
118 0 0.001500000000003436 0
119 0 0.001000000000002539 0
120 0 0.0005000000000020492 0
121 0.01475000000001198 0.009566987298109697 0
122 0.009749999999975134 0.0004330127018911014 0
123 0.005749999999986013 0.0004330127018908695 0
124 0.01225000000002068 0.009566987298109167 0
125 0.007750000000028233 0.009566987298109191 0
126 0.01374999999998348 0.0004330127018932683 0
127 0.005250000000013745 0.009566987298107224 0
128 0.009750000000025731 0.009566987298108367 0
129 0.00774999999997993 0.0004330127018906962 0
130 0.01174999999997762 0.0004330127018929574 0
131 0.01954508214174492 0.004769508375030966 0
132 0.0004549178582785598 0.00476950837503972 0
133 0.01574999999998838 0.0004330127018931805 0
134 0.00372997821334918 0.0004191013759582122 0
135 0.01954587692226359 0.006763990162831312 0
136 0.003250000000011074 0.009566987298107139 0
137 0.0004167505636856853 0.006758073703641587 0
138 0.01675000000000984 0.009566987298110508 0
139 0.01955102572476742 0.002777608549440312 0
140 0.0004774954047855638 0.003183509873470888 0
141 0.01724999999999425 0.0004330127018929799 0
142 0.002271644880019867 0.0004490051865268848 0
143 0.001750000000008868 0.009566987298108563 0
144 0.01956698729810698 0.008249999999995492 0
145 0.0003983015083525014 0.001720762253245101 0
146 0.00044817993236302 0.008258577173077326 0
147 0.01826773140080355 0.009524393310783023 0
148 0.006250000000020515 0.009566987298106299 0
149 0.01325000000001822 0.009566987298109569 0
150 0.008750000000026258 0.009566987298108063 0
151 0.01575000000001037 0.009566987298109149 0
152 0.01075000000002448 0.009566987298109057 0
153 0.010749999999976 0.0004330127018928063 0
154 0.000459550524836315 0.005720774599659879 0
155 0.01952323541918513 0.005709812863755541 0
156 0.014749999999987 0.0004330127018932061 0
157 0.004250000000011992 0.009566987298106736 0
158 0.004749999999988859 0.000433012701890972 0
159 0.01274999999998072 0.0004330127018932405 0
160 0.006771644880007381 0.0004490051865285222 0
161 0.01960169849166318 0.001720762253244596 0
162 0.01824999999999445 0.0004330127018912792 0
163 0.008749999999976766 0.0004330127018907157 0
164 0.01952144635515191 0.00382519843991164 0
165 0.001256753576066091 0.0004753894042892975 0
166 0.01920408719047036 0.009547151376278746 0
167 0.000769337567317363 0.00957815184779038 0
168 0.01928027864628261 0.0004144963431628244 0
169 0.0004240590088946051 0.0007492209605173007 0
170 0.009250000000025752 0.009566987298108105 0
171 0.009500000000026395 0.009133974596216699 0
172 0.01000000000002576 0.009133974596217391 0
173 0.009750000000026422 0.008700961894325855 0
174 0.01025000000002538 0.008700961894326535 0
175 0.01000000000002628 0.008267949192435014 0
176 0.009500000000027469 0.008267949192434397 0
177 0.009750000000027358 0.007834936490543508 0
178 0.009250000000028492 0.007834936490542925 0
179 0.009500000000028434 0.007401923788651986 0
180 0.009000000000029542 0.007401923788651384 0
181 0.01000000000002704 0.007401923788652739 0
182 0.009250000000029505 0.006968911086760419 0
183 0.008750000000030596 0.006968911086759813 0
184 0.00900000000003057 0.006535898384868847 0
185 0.008500000000031673 0.006535898384868235 0
186 0.008750000000031644 0.006102885682977292 0
187 0.008250000000032773 0.006102885682976677 0
188 0.008500000000032719 0.005669872981085758 0
189 0.008000000000033883 0.00566987298108514 0
190 0.009000000000031573 0.005669872981086357 0
191 0.008250000000033821 0.005236860279194245 0
192 0.00775000000003501 0.005236860279193629 0
193 0.007500000000035358 0.005669872981084341 0
194 0.007250000000036174 0.005236860279192946 0
195 0.007000000000036492 0.005669872981083744 0
196 0.00675000000003719 0.005236860279192076 0
197 0.006500000000037394 0.005669872981083187 0
198 0.006250000000038066 0.005236860279191372 0
199 0.006000000000038197 0.005669872981082642 0
200 0.005750000000038785 0.005236860279190975 0
201 0.005500000000038812 0.005669872981082171 0
202 0.005250000000039354 0.005236860279190302 0
203 0.005000000000039407 0.00566987298108157 0
204 0.004750000000040016 0.005236860279189729 0
205 0.008000000000034946 0.004803847577302755 0
206 0.006000000000038651 0.004803847577299326 0
207 0.004500000000039845 0.005669872981080926 0
208 0.004250000000040672 0.005236860279189186 0
209 0.00450000000004082 0.004803847577297872 0
210 0.00400000000004156 0.00480384757729732 0
211 0.004250000000041654 0.004370834875406023 0
212 0.004000000000040646 0.005669872981080255 0
213 0.003750000000042431 0.004370834875405489 0
214 0.006750000000038188 0.006102885682974339 0
215 0.004750000000040034 0.006102885682972582 0
216 0.004000000000042496 0.003937822173514171 0
217 0.003500000000043333 0.003937822173513687 0
218 0.003750000000043401 0.003504809471622366 0
219 0.004250000000042585 0.003504809471622946 0
220 0.00325000000004437 0.00350480947162196 0
221 0.003250000000043097 0.004370834875404983 0
222 0.008500000000031115 0.007401923788650515 0
223 0.00400000000004351 0.003071796769731178 0
224 0.004500000000042565 0.003071796769731734 0
225 0.004250000000043517 0.002638784067840084 0
226 0.004750000000042512 0.002638784067840667 0
227 0.005000000000041614 0.003071796769732296 0
228 0.005250000000041504 0.002638784067841214 0
229 0.005500000000040533 0.00307179676973278 0
230 0.005750000000040422 0.00263878406784178 0
231 0.006000000000039411 0.0030717967697333 0
232 0.006250000000039319 0.002638784067842338 0
233 0.006500000000038259 0.003071796769733814 0
234 0.006750000000038133 0.002638784067842923 0
235 0.007000000000037037 0.003071796769734319 0
236 0.007250000000036862 0.002641135809867893 0
237 0.007500000000035751 0.003072188726738896 0
238 0.007750000000035544 0.00264159309303986 0
239 0.00800000000003441 0.003072330266768663 0
240 0.008250000000034187 0.002639341154882772 0
241 0.008500000000033044 0.003071978533747803 0
242 0.008750000000032824 0.00263890720968679 0
243 0.009000000000031712 0.003071847587378931 0
244 0.009250000000031518 0.002641164803117223 0
245 0.009500000000030463 0.00307220202855627 0
246 0.009750000000030337 0.002641600142218806 0
247 0.01000000000002936 0.003072333658602969 0
248 0.0102500000000293 0.002639342895052849 0
249 0.01050000000002839 0.003071979389083464 0
250 0.01075000000002836 0.002638907642272239 0
251 0.01100000000002745 0.003071847802033791 0
252 0.01075000000002742 0.00350484841356993 0
253 0.01125000000002649 0.003504824467336253 0
254 0.01100000000002647 0.003937831163129155 0
255 0.01150000000002551 0.003937826171074279 0
256 0.01175000000002553 0.003504812637173958 0
257 0.01200000000002457 0.003937823367371822 0
258 0.01225000000002463 0.003504810198196812 0
259 0.01250000000002372 0.003937822493592317 0
260 0.01225000000002364 0.004370835127734112 0
261 0.01275000000002277 0.004370834970813181 0
262 0.01250000000002268 0.004803847635259197 0
263 0.0130000000000218 0.004803847602865379 0
264 0.01325000000002194 0.004370834895575135 0
265 0.01350000000002096 0.004803847584927177 0
266 0.01375000000002111 0.004370834880046166 0
267 0.01400000000002017 0.004803847579349779 0
268 0.01425000000002035 0.004370834876528953 0
269 0.01450000000001946 0.004803847577834483 0
270 0.01475000000001969 0.004370834875690594 0
271 0.01500000000001883 0.004803847577442657 0
272 0.0152500000000191 0.004370834875486046 0
273 0.01375000000001994 0.005236860280809531 0
274 0.01550000000001844 0.00480384757734371 0
275 0.01525000000001801 0.005236860279229347 0
276 0.01575000000001788 0.005236860279212337 0
277 0.01575000000001983 0.004370834875436123 0
278 0.01550000000001722 0.005669872981099861 0
279 0.01600000000001691 0.005669872981096839 0
280 0.01500000000002059 0.003937822173583426 0
281 0.01575000000001638 0.006102885682987024 0
282 0.01625000000001577 0.006102885682986881 0
283 0.01650000000001596 0.005669872981094779 0
284 0.0160000000000155 0.00653589838487792 0
285 0.01550000000001615 0.006535898384876952 0
286 0.01650000000001488 0.006535898384878368 0
287 0.01625000000001462 0.006968911086769612 0
288 0.01675000000001409 0.006968911086770286 0
289 0.00975000000002945 0.003504866696342513 0
290 0.003750000000044553 0.002638784067839462 0
291 0.01275000000002387 0.003504809646071025 0
292 0.01250000000002475 0.003071796919907514 0
293 0.01300000000002406 0.003071796783823499 0
294 0.01275000000002484 0.002638784095223577 0
295 0.01325000000002444 0.002638784074758656 0
296 0.009500000000029455 0.00653589838486945 0
297 0.01050000000002491 0.008267949192435654 0
298 0.01275000000002168 0.005236860293116572 0
299 0.01225000000002261 0.005236860291175985 0
300 0.01250000000002159 0.005669872982212644 0
301 0.01200000000002254 0.005669872983272192 0
302 0.01225000000002155 0.006102885683531394 0
303 0.01275000000002056 0.006102885683259908 0
304 0.01250000000002054 0.006535898385010241 0
305 0.01300000000001951 0.006535898384942043 0
306 0.0127500000000195 0.006968911086798142 0
307 0.01325000000001844 0.00696891108678147 0
308 0.01300000000001879 0.007401923788663973 0
309 0.01350000000001754 0.007401923788660075 0
310 0.01225000000002084 0.006968911086792299 0
311 0.01700000000001438 0.006535898384879092 0
312 0.01725000000001364 0.006968911086771026 0
313 0.01750000000001403 0.006535898384879681 0
314 0.01175000000002254 0.006102885683435413 0
315 0.01150000000002353 0.005669872981527838 0
316 0.005750000000039307 0.006102885682973535 0
317 0.01650000000001377 0.007401923788661609 0
318 0.01600000000001451 0.007401923788660923 0
319 0.01775000000001333 0.006968911086771713 0
320 0.01750000000001289 0.007401923788663208 0
321 0.01375000000001736 0.006968911086768327 0
322 0.01400000000001626 0.007401923788657615 0
323 0.008500000000033738 0.004803847577303373 0
324 0.01375000000001644 0.007834936490548127 0
325 0.01425000000001505 0.007834936490548162 0
326 0.01125000000002353 0.006102885683128269 0
327 0.01100000000002453 0.005669872981185445 0
328 0.01625000000001354 0.007834936490552778 0
329 0.01002002178667254 0.002220245175483229 0
330 0.008978355120007917 0.002190196194167679 0
331 0.008021997259795027 0.002192895088590925 0
332 0.006979978213386388 0.002220074648893389 0
333 0.006000000000040343 0.002205771365950858 0
334 0.005000000000042402 0.002205771365949643 0
335 0.004000000000044527 0.002205771365948439 0
336 0.003500000000045622 0.002205771365947833 0
337 0.01301966940692329 0.002217127509038451 0
338 0.01350327823450778 0.002210015799647286 0
339 0.0125028099152841 0.002157171195722006 0
340 0.01375054637243805 0.002639491474616174 0
341 0.01400063743450737 0.00220894841472535 0
342 0.01800000000001266 0.007401923788663985 0
343 0.01775000000001224 0.007834936490555529 0
344 0.01800000000001375 0.006535898384880002 0
345 0.01775000000001553 0.006102885682987949 0
346 0.007000000000037221 0.004803847577301317 0
347 0.01575000000001445 0.007834936490552162 0
348 0.01500000000001754 0.005669872981098397 0
349 0.00475000000004088 0.004370834875406612 0
350 0.008000000000033057 0.006535898384867453 0
351 0.01425019730117346 0.002639431477105825 0
352 0.01450013912262979 0.00220876051765353 0
353 0.01475005607064972 0.002639390161342529 0
354 0.01500003253222949 0.002208722315514689 0
355 0.01525001476716232 0.002639376908359209 0
356 0.01550000788324817 0.002208713739661246 0
357 0.01575000377508414 0.002639373270220074 0
358 0.01600000194307156 0.002208711703996143 0
359 0.01625000095304164 0.002639372324586371 0
360 0.01650000048270168 0.002206359465088792 0
361 0.01675000023930619 0.002638980127163162 0
362 0.0170000001203507 0.002205902059034122 0
363 0.01725000005995831 0.002638838526583797 0
364 0.01700000004989269 0.003071838522751765 0
365 0.01750000001832352 0.003071812805034914 0
366 0.01725000001138433 0.003504819103019675 0
367 0.01750000003006738 0.002205802224595451 0
368 0.01775000000496582 0.003504813749416109 0
369 0.01750000000273956 0.003937824491722464 0
370 0.01800000000129826 0.003937823272858042 0
371 0.01775000000068706 0.004370835445007844 0
372 0.01800000000389643 0.003071800155257192 0
373 0.01725000000058515 0.004370835356717465 0
374 0.01400000000001518 0.008267949192438732 0
375 0.01350000000001664 0.008267949192438067 0
376 0.009000000000029013 0.008267949192433647 0
377 0.01450000000001379 0.008267949192439153 0
378 0.01627199766407366 0.001759909440860468 0
379 0.0152500000000247 0.00177275866406688 0
380 0.01425000000002492 0.001772758664065871 0
381 0.01332630524796388 0.001773035055492151 0
382 0.01824359069893144 0.007831236078852069 0
383 0.01824944004877241 0.004371158441764725 0
384 0.01825000000001483 0.006102885682988086 0
385 0.01725000002508607 0.001772785589353742 0
386 0.01775000000241496 0.00177276117100787 0
387 0.003750000000045563 0.001775110406081872 0
388 0.003250000000046663 0.001775502363085398 0
389 0.003000000000046713 0.002206228649118849 0
390 0.002750000000047687 0.001775643903114223 0
391 0.002500000000047643 0.002206328452985172 0
392 0.002250000000048541 0.001775684127096227 0
393 0.00200000000004835 0.002206351790959455 0
394 0.002250000000047555 0.002638784067838077 0
395 0.001750000000048075 0.002638880805339793 0
396 0.00200000000004733 0.003071812892646745 0
397 0.001750000000049187 0.001773342978729941 0
398 0.007750000000035057 0.003504888166697852 0
399 0.01675000001022778 0.003504818035701632 0
400 0.006750000000037716 0.003504809471625556 0
401 0.008750000000032825 0.003504848235237521 0
402 0.01425000000001624 0.006968911086766164 0
403 0.005750000000039621 0.003504809471624397 0
404 0.01125000000002556 0.004370837039939734 0
405 0.01075000000002697 0.004370836734434968 0
406 0.01400000000001734 0.006535898384874446 0
407 0.01400000000002157 0.003937822174482239 0
408 0.01125000000002748 0.002638813168967561 0
409 0.01100000000002834 0.002205796811879925 0
410 0.01799990667492353 0.004803901599967792 0
411 0.01075000000002455 0.006102885683019591 0
412 0.01050000000002599 0.005669872981110162 0
413 0.01100000000002387 0.006535898384901983 0
414 0.01600000000001344 0.008267949192443289 0
415 0.01650000000001248 0.008267949192444434 0
416 0.01799893178316491 0.008249089866598915 0
417 0.003000000000047782 0.001339745962164615 0
418 0.01845950355711477 0.007374865582076004 0
419 0.01849933116905709 0.004804233797003747 0
420 0.01846184232895792 0.008247427719454142 0
421 0.0184972440533654 0.003936985595524695 0
422 0.001507265856092689 0.00306762063585558 0
423 0.001758476832099602 0.003499921192518383 0
424 0.001251210976055842 0.00263810416844177 0
425 0.01550000000001295 0.00826794919244141 0
426 0.01475000000001416 0.007834936490548955 0
427 0.0174998219638707 0.008264805971471983 0
428 0.01600000000002327 0.003071796769744158 0
429 0.01800000000542908 0.00220577692689083 0
430 0.01825000000132316 0.0017727600087152 0
431 0.01850000000114024 0.002205772516891692 0
432 0.004250000000044404 0.001773150621061656 0
433 0.008250000000034867 0.004370834875411901 0
434 0.008750000000033651 0.004370834875412503 0
435 0.01550000000001487 0.00740192378866003 0
436 0.009000000000032546 0.004803847577303981 0
437 0.009250000000032234 0.004370834875413229 0
438 0.009500000000031353 0.004803847577304618 0
439 0.007750000000036105 0.004370834875411288 0
440 0.01325000000001956 0.006102885683039551 0
441 0.01450000000001629 0.006535898384874308 0
442 0.01849109826067017 0.006530758963274278 0
443 0.01425000000001748 0.006102885682982833 0
444 0.01425000000001395 0.008700961894329621 0
445 0.002251412805388563 0.003503997445590764 0
446 0.002001648272945519 0.003936872122657586 0
447 0.001513794513903874 0.00394095601199695 0
448 0.00175313374940546 0.004371522128196932 0
449 0.00225079700375516 0.004370791075727807 0
450 0.002000655125557012 0.004803954819482192 0
451 0.001501191430758018 0.004804303281313166 0
452 0.001750307759416204 0.005236954103554646 0
453 0.002250000000044744 0.005236860279187953 0
454 0.002000051293273239 0.005669888618473558 0
455 0.002500008548915203 0.005669875587311961 0
456 0.002250009973727225 0.006102888723575125 0
457 0.002750001575090132 0.006102886163144339 0
458 0.002500001924831312 0.006535898971658675 0
459 0.003000000416689429 0.006535898511883035 0
460 0.002750000390281265 0.00696891120572382 0
461 0.003250000000041701 0.006968911086754839 0
462 0.003000000065081302 0.007401923808474879 0
463 0.003500000010881265 0.007401923791951801 0
464 0.002500000075921398 0.007401923811779055 0
465 0.002750000023527666 0.007834936497698753 0
466 0.00225000001660207 0.007834936495586994 0
467 0.002000000015448326 0.007401923793342956 0
468 0.002500000006715154 0.008267949194465402 0
469 0.003000000003629535 0.008267949193523524 0
470 0.002000000003913134 0.008267949193610782 0
471 0.001752113877830936 0.006101674243472291 0
472 0.003750000001848316 0.006968911087306025 0
473 0.004000000002149021 0.007401923789290065 0
474 0.002250000001797865 0.008700961894858361 0
475 0.002750001424855431 0.005236860713560262 0
476 0.00375000000219888 0.007834936491193937 0
477 0.004250000000040927 0.007834936490539809 0
478 0.004500000000392437 0.007401923788754899 0
479 0.004750000000099361 0.007834936490556386 0
480 0.005000000000109283 0.007401923788668643 0
481 0.005250000000040663 0.007834936490540265 0
482 0.005500000000052231 0.007401923788651735 0
483 0.005750000000042448 0.007834936490541107 0
484 0.006000000000042958 0.007401923788649213 0
485 0.006250000000040444 0.007834936490540784 0
486 0.006500000000041011 0.007401923788648916 0
487 0.00675000000004045 0.007834936490541095 0
488 0.005500000000036148 0.008267949192429336 0
489 0.004500000000042403 0.008267949192431536 0
490 0.006500000000040181 0.008267949192433193 0
491 0.007000000000040288 0.008267949192433453 0
492 0.007000000000040554 0.007401923788649039 0
493 0.00675000000003999 0.008700961894324443 0
494 0.01075000000002431 0.008700961894327178 0
495 0.01100000000002374 0.008267949192436272 0
496 0.01125000000002335 0.008700961894327619 0
497 0.01150000000002268 0.008267949192436778 0
498 0.0112500000000236 0.007834936490545391 0
499 0.01175000000002223 0.007834936490546047 0
500 0.01200000000002133 0.00826794919243738 0
501 0.01150000000002751 0.002205773732463446 0
502 0.01125000000002836 0.001775115041494265 0
503 0.0107500000000292 0.001773155634622919 0
504 0.01150000000002342 0.007401923788654511 0
505 0.0110000000000243 0.007401923788653669 0
506 0.01450002154524237 0.003071903360112139 0
507 0.01170833333335299 0.001768718887329691 0
508 0.01050000000002508 0.006535898384882273 0
509 0.009750000000030332 0.004370834875413203 0
510 0.0100000000000297 0.00480384757730455 0
511 0.01475000000001237 0.008700961894330389 0
512 0.005250000000054132 0.006968911086760322 0
513 0.009750000000029922 0.005236860279195885 0
514 0.006250000000040964 0.006968911086756971 0
515 0.01625000000001215 0.008700961894334351 0
516 0.007250000000040278 0.008700961894324408 0
517 0.007500000000040611 0.008267949192433517 0
518 0.007750000000040566 0.008700961894324467 0
519 0.008000000000038806 0.008267949192432527 0
520 0.008250000000039438 0.008700961894325423 0
521 0.001750000000978608 0.008700961894606634 0
522 0.001500000000842534 0.008267949192674016 0
523 0.001250000000040522 0.008700961894321404 0
524 0.01675000000001137 0.008700961894336241 0
525 0.01781027309405143 0.008732720149643148 0
526 0.007750000000038421 0.007834936490540604 0
527 0.006250000000036096 0.008700961894321808 0
528 0.001250249865060432 0.005236951867251102 0
529 0.01100000000002916 0.001339745962172656 0
530 0.01057382508571404 0.00133499808797175 0
531 0.00402164488006021 0.001324210760705891 0
532 0.004503607480046698 0.001339573830115465 0
533 0.0175000000046003 0.001342102609572299 0
534 0.01702199726472603 0.001326705928221347 0
535 0.001979978213397895 0.001354242251053756 0
536 0.001496663035608031 0.001344611138115336 0
537 0.01873670122195314 0.006095207629894565 0
538 0.01475000000001542 0.006968911086766528 0
539 0.01125000000002455 0.005236860279285692 0
540 0.01824987297400995 0.005236933652928472 0
541 0.01774998126268097 0.005236871112229647 0
542 0.01874986735719059 0.005236936878107229 0
543 0.01225000000002072 0.007834936490546457 0
544 0.01250000000001989 0.008267949192437868 0
545 0.003250000331991141 0.006102885784170312 0
546 0.0132500000000232 0.003504809503052911 0
547 0.01175000000002652 0.002638789312452578 0
548 0.01225000000002043 0.008700961894328629 0
549 0.01275000000001917 0.008700961894328516 0
550 0.007000000000032831 0.009133974596215382 0
551 0.001264401499664459 0.001782302721724147 0
552 0.01873504234006535 0.001781394889235988 0
553 0.01849750705691444 0.001343537299171559 0
554 0.001058831365394266 0.001386582086547581 0
555 0.01894791158685409 0.001377917160272118 0
556 0.01898074390492678 0.002215729920064192 0
557 0.01873382060974968 0.002632955761870839 0
558 0.01872501572324725 0.0009052181604704931 0
559 0.00427842225639661 0.0008977444532487386 0
560 0.001674198107783459 0.0009126475409545936 0
561 0.01904955536671307 0.006526861527328261 0
562 0.001020984539655014 0.003096941138376932 0
563 0.0007540471574739923 0.002687387757707975 0
564 0.000814694694954623 0.003582241777520815 0
565 0.0009945274704345457 0.004794374862677834 0
566 0.0007487823589209858 0.005240247114286538 0
567 0.0007896466824549197 0.004361669614594279 0
568 0.0009997171130414252 0.00568368897792789 0
569 0.0007770979295303571 0.006138688937309024 0
570 0.01900557916659656 0.004794360783776761 0
571 0.01924838594165087 0.005238415313625849 0
572 0.01924342035928003 0.004330050280827234 0
573 0.0009913633222283329 0.008266387189244809 0
574 0.001248560553872743 0.007834676156714505 0
575 0.0007500000000408781 0.008700961894321022 0
576 0.0007500000000418544 0.007834936490537315 0
577 0.00100873468856013 0.007407061885214992 0
578 0.0004871810576581366 0.007363061855536185 0
579 0.002000000000478241 0.00913397459635179 0
580 0.002500000000391936 0.009133974596329154 0
581 0.001003222927918346 0.009135835354492186 0
582 0.008000000000036823 0.00913397459621682 0
583 0.009000000000029068 0.009133974596216086 0
584 0.009000000000032496 0.003937828634122745 0
585 0.008000000000035217 0.003937835289364758 0
586 0.01124999999997684 0.0004306609598678749 0
587 0.0114999999999775 0.0008660254037849198 0
588 0.01201966940688429 0.000854669266413816 0
589 0.01024999999997503 0.0004306609598671067 0
590 0.009978355119959977 0.0008816259314110316 0
591 0.009496392519972571 0.0008686254917197562 0
592 0.009702501513275213 0.001338759994915374 0
593 0.009261504125509617 0.001292180442598555 0
594 0.009499999999973524 0.001732050807563161 0
595 0.007500000000036384 0.003937837475338006 0
596 0.01075000000002494 0.006968911086769448 0
597 0.0112500000000236 0.006968911086769068 0
598 0.01898954983516353 0.00566870040875167 0
599 0.01125000000002361 0.009566987298109383 0
600 0.01500000000001619 0.006535898384875827 0
601 0.01726001584299479 0.008705731066725321 0
602 0.01750000000001102 0.009133974596230303 0
603 0.01956934664506626 0.008745913491190291 0
604 0.01916187840561884 0.008499318915194761 0
605 0.01917020555731469 0.008014336307955084 0
606 0.0191530632349436 0.009002977454969172 0
607 0.01869453149429616 0.008691604348650704 0
608 0.01872289375215747 0.009238531666689137 0
609 0.01827160083406272 0.008997232839677337 0
610 0.006750000000024643 0.009566987298107886 0
611 0.01700163963448569 0.008268220184347636 0
612 0.01525000000001066 0.009566987298109415 0
613 0.01550000000001061 0.009133974596220232 0
614 0.005750000000015444 0.009566987298106391 0
615 0.005500000000018624 0.009133974596213526 0
616 0.005000000000015165 0.009133974596215287 0
617 0.005250000000028496 0.008700961894320857 0
618 0.00600000000002497 0.009133974596212843 0
619 0.01954962946319065 0.006260436889987846 0
620 0.01913597512677582 0.007048707653326733 0
621 0.01025000000002588 0.009566987298108787 0
622 0.001501215876334387 0.007402736749886459 0
623 0.001264355800323013 0.006977233761333993 0
624 0.0162500000000103 0.009566987298110561 0
625 0.01624999999998987 0.0004330127018932546 0
626 0.01598033059308968 0.0008546692664180328 0
627 0.01549672176550503 0.0008617809721999768 0
628 0.0156736947520474 0.001298761715182085 0
629 0.01641571628504773 0.0008505568242630464 0
630 0.0004762391357802904 0.002241213556623627 0
631 0.01175000000002214 0.009566987298109635 0
632 0.01671628330726848 0.0004190784679380651 0
633 0.0122532782344639 0.0004311200123310216 0
634 0.0125038246068783 0.0008638172659633326 0
635 0.01300063743446441 0.0008633056387906071 0
636 0.01272874641378295 0.001311654084608631 0
637 0.01229204007125541 0.001303312957024878 0
638 0.01325010623906261 0.0004325594077272161 0
639 0.01350012394557644 0.0008631448185676163 0
640 0.0140000206575836 0.0008631935642248271 0
641 0.01375398010469248 0.001326921788825142 0
642 0.0003874230353513458 0.001236190773557257 0
643 0.01150000000002289 0.009133974596218822 0
644 0.003750000000010782 0.009566987298106521 0
645 0.004000000000011613 0.009133974596213181 0
646 0.003500000000015961 0.009133974596211552 0
647 0.003750000000020878 0.008700961894317917 0
648 0.004250000000024683 0.008700961894320959 0
649 0.0152494536275737 0.0004323052966287535 0
650 0.0149993625655047 0.0008628483556194933 0
651 0.01449989720383903 0.0008626721804732142 0
652 0.01474999999998722 0.001299038105678656 0
653 0.002753607479998704 0.0004333263739720054 0
654 0.002528422256358891 0.0008750401905753308 0
655 0.01030568471870252 0.001797564982859937 0
656 0.01424999501100689 0.0004326370299501314 0
657 0.006750000000040447 0.006968911086757203 0
658 0.007250000000039177 0.006968911086757074 0
659 0.007000000000039121 0.006535898384865546 0
660 0.00750000000003832 0.007401923788648777 0
661 0.01275000000001925 0.007834936490547896 0
662 0.01100000000002569 0.004803847751868484 0
663 0.01150000000002458 0.004803847967168338 0
664 0.0107500000000261 0.005236860308324778 0
665 0.01275000000001969 0.009566987298109243 0
666 0.01775000001961619 0.002638802451036138 0
667 0.004750000000043146 0.001772758664057978 0
668 0.005000601246710418 0.001342069015516922 0
669 0.00824999999997823 0.0004330127018906927 0
670 0.007999999999979048 0.0008660254037814686 0
671 0.007499999999980625 0.0008660254037813822 0
672 0.00773033059308238 0.001287681968305237 0
673 0.008249999999978188 0.00129903810567236 0
674 0.007290011525547273 0.001333833869436072 0
675 0.007499999999980381 0.001732050807563013 0
676 0.01550000000002324 0.003071796769743618 0
677 0.01575000000002225 0.003504809471635945 0
678 0.01625000000172333 0.003504810898980524 0
679 0.01600000000030461 0.003937822411421554 0
680 0.01650000000205337 0.003937823878412188 0
681 0.01625000000040628 0.004370835199218962 0
682 0.01675000000051791 0.004370835293750371 0
683 0.01650000000007372 0.004803847622387916 0
684 0.01700000000006829 0.004803847618298442 0
685 0.01600000000009243 0.004803847638800211 0
686 0.0167500000000237 0.005236860282937952 0
687 0.01724999687713826 0.005236862092161825 0
688 0.0169999994795374 0.005669873283877737 0
689 0.01525000000002179 0.003504809471644735 0
690 0.002250000401094809 0.006968911209019896 0
691 0.001752595348880871 0.006970433713884595 0
692 0.001509003947762242 0.006538272155471765 0
693 0.005750000000045148 0.006968911086758 0
694 0.006000000000040973 0.006535898384864802 0
695 0.002500235467603588 0.003071664119211114 0
696 0.01575000000001529 0.006968911086769044 0
697 0.01525000000001587 0.00696891108676854 0
698 0.01500000400803148 0.003071853409527757 0
699 0.01525000000001369 0.007834936490550067 0
700 0.004500000000041729 0.003937822173514785 0
701 0.005000000000040857 0.003937822173515285 0
702 0.005250000000040011 0.004370834875407059 0
703 0.01475000000001856 0.005236860279316163 0
704 0.01375000000001561 0.00870096189432909 0
705 0.01400000000001493 0.009133974596219709 0
706 0.01957712543442604 0.007756383536691703 0
707 0.01150000000002294 0.006535898384978352 0
708 0.007250000000039773 0.007834936490541079 0
709 0.003247264282220247 0.0004283946842239775 0
710 0.003423465687592335 0.000865255030679168 0
711 0.01824954067726147 0.003504671502406746 0
712 0.01873848308193631 0.003502631491349467 0
713 0.004750000000113195 0.006968911086777978 0
714 0.005000000000054459 0.006535898384868915 0
715 0.004250000000764194 0.006968911086976122 0
716 0.004000000000151387 0.006535898384896899 0
717 0.005500000000041397 0.002205771365950218 0
718 0.00575000000004139 0.001772758664059384 0
719 0.006250000000040194 0.001772758664059993 0
720 0.006000000000041313 0.001342097704193309 0
721 0.006500000000039986 0.001339745962169162 0
722 0.006176174914324227 0.0009055777284338792 0
723 0.005500100207820262 0.001342876836755054 0
724 0.006738707690130237 0.001779397316787486 0
725 0.0140001275364872 0.003072040337473805 0
726 0.01824730343997565 0.002637817430282119 0
727 0.01849485796880682 0.003070278851818712 0
728 0.01906486917388424 0.003046761311626423 0
729 0.01650000020903581 0.003071936113154602 0
730 0.01250000000001979 0.007401923788661068 0
731 0.01425002484696929 0.00350486783147701 0
732 0.005250000000042434 0.001772758664058727 0
733 0.005250000000043526 0.00090673326027649 0
734 0.006497337236726275 0.00220755214279402 0
735 0.005000000000040054 0.004803847577298388 0
736 0.005500000000039267 0.004803847577298793 0
737 0.005750000000039286 0.004370834875407556 0
738 0.006250000000038533 0.004370834875407988 0
739 0.006000000000039071 0.003937822173516267 0
740 0.001500000000045795 0.005669872981078468 0
741 0.01025000000002835 0.003504945417440045 0
742 0.0100000000000292 0.003937854368608783 0
743 0.0105000000000279 0.003937858495432617 0
744 0.006500000000038052 0.00480384757729957 0
745 0.006750000000037967 0.004370834875409056 0
746 0.002500643013703883 0.003937521194086132 0
747 0.01200000000002182 0.006535898385085295 0
748 0.003500000000044558 0.003071796769730646 0
749 0.009750000000028416 0.006968911086761074 0
750 0.01425000000001917 0.005236860279915483 0
751 0.01799958451088401 0.001343123010197255 0
752 0.01775000000002585 0.0009067332602858182 0
753 0.0132500000000208 0.005236860287316458 0
754 0.008500000000033939 0.002205771365953838 0
755 0.008721734253110248 0.001763775590831231 0
756 0.004500000000043417 0.002205836692116411 0
757 0.01025000000002643 0.006102885682991527 0
758 0.002750010215736366 0.002638822320983763 0
759 0.003500000089388633 0.006535898412101673 0
760 0.00850000000003372 0.003937831896862675 0
761 0.01450000000001511 0.007401923788657551 0
762 0.01051261775091504 0.002212502190361849 0
763 0.004750000000041676 0.003504809471623467 0
764 0.009250000000030274 0.006102885682978037 0
765 0.01963072899852989 0.001230337707781603 0
766 0.003750000000041527 0.005236860279188578 0
767 0.01175000000002357 0.005236860346622618 0
768 0.01025000000002606 0.007834936490544181 0
769 0.0115000000000265 0.003071814026283999 0
770 0.006250000000038687 0.00350480947162505 0
771 0.01350000000001966 0.005669872982721393 0
772 0.007250000000036752 0.003504890463942078 0
773 0.01300000000002293 0.003937822280438185 0
774 0.007500000000036137 0.004803847577302098 0
775 0.01300000000002064 0.005669872985277754 0
776 0.01175000000002458 0.004370836208432326 0
777 0.00849999999997739 0.0008636736617572256 0
778 0.008750000000032628 0.00523686027919486 0
779 0.01949512884451166 0.00223321839559241 0
780 0.001749962744502198 0.007835028596969282 0
781 0.01700000000328122 0.003937824925689541 0
782 0.01200000000002361 0.004803847929398763 0
783 0.004750000000013259 0.009566987298107172 0
784 0.01450000000001795 0.005669872981231256 0
785 0.008250000000034043 0.003504952064779878 0
786 0.01956698729810907 0.003249999999991887 0
787 0.005500000000039924 0.003937822173515721 0
788 0.0170000000000132 0.007401923788662329 0
789 0.007750000000034573 0.006102885682975676 0
790 0.003500000000042378 0.004803847577296814 0
791 0.00300000023751201 0.004803847649692074 0
792 0.008250000000032351 0.006968911086758817 0
793 0.003500000055366582 0.005669872997946496 0
794 0.01350000000002399 0.003071796769741241 0
795 0.009250000000031393 0.005236860279195448 0
796 0.01674999991326885 0.006102885733450943 0
797 0.01749998080268055 0.004803858870730502 0
798 0.01350000000001844 0.006535898384897995 0
799 0.01675027327242514 0.007834981655870521 0
800 0.00925000000003131 0.003504902559193503 0
801 0.007250000000037064 0.004370837425713267 0
802 0.01525000000001682 0.006102885682985259 0
803 0.01075000000002476 0.007834936490544743 0
804 0.004500000000016174 0.009133974596215113 0
805 0.01350000000002217 0.003937822200871321 0
806 0.009500000000029856 0.005669872981086998 0
807 0.009249398753308675 0.0004334460498805112 0
808 0.007000000000037322 0.00393783864759082 0
809 0.00600000000003925 0.008267949192430438 0
810 0.002002287579021232 0.006536346502847057 0
811 0.01375000000001852 0.006102885683267867 0
812 0.005250000000040702 0.003504809471623991 0
813 0.01050000000002551 0.007401923788654541 0
814 0.008750000000030239 0.007834936490541988 0
815 0.01500000000001215 0.008267949192439953 0
816 0.01823776087878664 0.006961407020363676 0
817 0.003250000017559867 0.007834936495877312 0
818 0.0172500000000122 0.007834936490554337 0
819 0.01425000000001406 0.009566987298109963 0
820 0.001502602079319153 0.002207458971856666 0
821 0.002750000002097511 0.008700961894949909 0
822 0.007253607479985551 0.0004356781159970066 0
823 0.01400000000001879 0.005669872981821394 0
824 0.0132500000000172 0.008700961894328525 0
825 0.010500000000025 0.009133974596217953 0
826 0.003250001702660601 0.002638866657225118 0
827 0.01200000000002561 0.003071801193643869 0
828 0.006500000000038216 0.003937824919195789 0
829 0.01100000000002401 0.009133974596218458 0
830 0.009001215899786934 0.000862644333562231 0
831 0.01675733259282724 0.001770919816146966 0
832 0.003250000286310089 0.005236860366460722 0
833 0.007054167074296802 0.0009116228008576342 0
834 0.003000002037088096 0.005669873602099014 0
835 0.01500000000001448 0.007401923788658406 0
836 0.01625000000002949 0.005236860288582895 0
837 0.002500000000044377 0.004803847577297036 0
838 0.009250000000028766 0.008700961894324765 0
839 0.01325000000001787 0.007834936490549317 0
840 0.01475000000001705 0.00610288568300798 0
841 0.01225046831923536 0.002630685680484419 0
842 0.0137500253972579 0.003504859802849754 0
843 0.003750000079496327 0.006102885707194528 0
844 0.003000107168987375 0.00393777201027567 0
845 0.01200000000002637 0.002205771365956973 0
846 0.01450000000001287 0.00913397459621991 0
847 0.002750399742628929 0.003504593501752632 0
848 0.01175000000002191 0.008700961894328176 0
849 0.003000107854786402 0.003071758806754205 0
850 0.001014707801745833 0.002230173449300358 0
851 0.00275025790400765 0.004370769063747283 0
852 0.01300000000001834 0.008267949192438362 0
853 0.01375000000001619 0.009566987298109961 0
854 0.004250000013301429 0.006102885687014926 0
855 0.01450000414117887 0.003937831900566077 0
856 0.01200000000002159 0.007401923788660743 0
857 0.0135000000000167 0.009133974596219329 0
858 0.01175000000002236 0.006968911086823377 0
859 0.01475000909024407 0.00350484802448519 0
860 0.01300000000001905 0.009133974596219062 0
861 0.01550000000006803 0.003937822213201304 0
862 0.004500000002404116 0.00653589838558457 0
863 0.01250000000001986 0.009133974596219232 0
864 0.01200000000002132 0.009133974596218942 0
865 0.01500000000001016 0.009133974596220231 0
866 0.01050000000002755 0.004803847921090267 0
867 0.01025000000002884 0.004370839170833586 0
868 0.01849895839358088 0.005669495505876359 0
869 0.01025000000002633 0.006968911086765158 0
870 0.01000000000002797 0.005669872981090209 0
871 0.01000000000002729 0.006535898384874794 0
872 0.005250000000041906 0.006102885682974001 0
873 0.01025000000002787 0.005236860341352642 0
874 0.01799980210505315 0.005669824103017793 0
875 0.009750000000028548 0.006102885682981836 0
876 0.01724999989881115 0.00610288574186194 0
877 0.01749996327053941 0.005669867002689482 0
878 0.005500000000045987 0.006535898384866594 0
879 0.009500000000030855 0.003937844669708244 0
880 0.006250000000038587 0.006102885682973643 0
881 0.01525000000001047 0.008700961894330351 0
882 0.00650000000003942 0.006535898384865574 0
883 0.007250000000036763 0.006102885682974815 0
884 0.01575000000001247 0.008700961894331624 0
885 0.007500000000036576 0.006535898384865928 0
886 0.01600000000001066 0.009133974596221254 0
887 0.007750000000035812 0.00696891108675768 0
888 0.01725000000000877 0.009566987298113757 0
889 0.01700166930717441 0.009134769458289796 0
890 0.01650027821787145 0.009134107073233784 0
891 0.008000000000035215 0.007401923788649258 0
892 0.008250000000034749 0.007834936490540883 0
893 0.008500000000034412 0.008267949192432728 0
894 0.008250000000028773 0.009566987298109604 0
895 0.008750000000033328 0.008700961894323424 0
896 0.01773715668661573 0.009569009595507223 0
897 0.00850000000003228 0.00913397459621657 0
898 0.001253760082549124 0.009569158182766073 0
899 0.006500000000029841 0.009133974596214777 0
900 0.001501163835328951 0.009134646536774439 0
901 0.007250000000027253 0.009566987298107149 0
902 0.007500000000034331 0.009133974596216234 0
903 0.002250000000149132 0.009566987298151136 0
904 0.005750000000030597 0.008700961894321468 0
905 0.004750000000027906 0.008700961894321166 0
906 0.005000000000045829 0.008267949192433257 0
907 0.002750000000029862 0.009566987298121265 0
908 0.004000000000394722 0.008267949192537524 0
909 0.003500000003971621 0.008267949193627651 0
910 0.003250000001626706 0.008700961894806312 0
911 0.003000000000695508 0.009133974596420886 0
912 0.0004605031985184919 0.009185560527543886 0
913 0.00126299682992095 0.004376419894615087 0
914 0.01874706646276058 0.004361221201596567 0
915 0.01957064117185194 0.007261076936313921 0
916 0.0182444214582132 0.0009863248864032806 0
917 0.01877099811449166 0.0004254350182339881 0
918 0.01775000000000096 0.0003545517328140154 0
919 0.009498376906640729 0.002132866656306289 0
920 0.008765383564046565 0.001286421801683068 0
921 0.00825654493294517 0.001796815417404366 0
922 0.007501975473136779 0.002133397085550663 0
923 0.01725801649460123 0.0009313718526535767 0
924 0.01046098939588433 0.0008792752359909729 0
925 0.01097174529162491 0.0008623758749760699 0
926 0.01655726320522907 0.001307873483918779 0
927 0.01578901021441891 0.001758124098113535 0
928 0.01148734327806484 0.00136925178637791 0
929 0.006289010604092819 0.0004486966404752919 0
930 0.01523395581661381 0.001219037562549418 0
931 0.005735255024443067 0.0009860596463099201 0
932 0.0142502029345025 0.001269306351760472 0
933 0.01475000893665391 0.001803929335181004 0
934 0.01250471928006626 0.00169078584278429 0
935 0.005249999999998669 0.0003545517328116663 0
936 0.01321164399855372 0.00131699800512192 0
937 0.004754661569039176 0.0009658315265569135 0
938 0.01376684020433928 0.00185833594455116 0
939 0.00423430644131286 0.0004203388444323377 0
940 0.003538688077147555 0.0013244937877867 0
941 0.002990551941243592 0.0007883524483230195 0
942 0.002484306441364372 0.001352698420764629 0
943 0.001789579267142337 0.0004545831303444375 0
944 0.001260917219113136 0.001013278319495574 0
945 0.01899073168232493 0.003909347834866797 0
946 0.0012613071638617 0.006104731152732427 0
947 0.01918698639979463 0.0009433434842738058 0
948 0.001047632316669351 0.006539987945806208 0
949 0.01917013139502469 0.007531592069219948 0
950 0.01958990664028167 0.009234663237123042 0
951 0.0007505278693700844 0.0004209533442298906 0
952 0.0003835963372903812 0.003752236337903095 0
953 0.01874665654676924 0.007792253102607606 0
954 0.001279229987670998 0.003514822590986201 0
955 0.001054370003156515 0.003962296044351518 0
956 0.01869874373116518 0.006942867150683998 0
957 0.0008099488055680281 0.006959729661520442 0
958 0.01918641025942778 0.003503463171194274 0
959 0.01962260358163086 0.0007417583483394337 0
960 0.0003643654380524143 0.006254275081077491 0
961 0.0008216939496730395 0.0009527946791791565 0
962 0.01916973426124111 0.006052203863943576 0
963 0.01965646938602676 0.004249999999988913 0
964 0.0003633294663703585 0.004239887814967733 0
965 0.01916713539465282 0.002584854713205615 0
966 0.0003415793224052686 0.002750000000007286 0
967 0.0003349364905665779 0.008749999999987282 0
968 0.01875000000000099 0.009665063509457967 0
969 0.0003334484348690534 0.00525000000001264 0
970 0.01966655156516918 0.005249999999987572 0
971 0.0008397459621812661 0.001824573519447965 0
972 0.01916025403785926 0.0018245735194856 0
973 0.000344791281172747 0.007780208718859668 0
974 0.01790520871885997 0.009188702367916277 0
975 0.01824743590690663 0.008583614984804849 0
976 0.01963397459621551 0.009633974596215468 0
977 0.0003660254037862793 0.009633974596214241 0
978 0.0003660254037850747 0.0003660254037858751 0
979 0.007878286761850626 0.001718484765851598 0
980 0.0128717386584639 0.001815793046715559 0
981 0.01611466878565107 0.001304982471459324 0
982 0.01688198355859463 0.0007978885795791094 0
983 0.01213912791997426 0.001782331593779714 0
984 0.01186534461027688 0.001255149086442533 0
985 0.01963762744517802 0.0003623725548211691 0
986 0.009861313020580187 0.001791865462472281 0
987 0.01014711147568604 0.001337348282603557 0
988 0.003877582467133872 0.0008171080316516716 0
989 0.007143122435073697 0.00178915904713925 0
990 0.002127652906981002 0.0009562063465669923 0
991 0.006886388185269095 0.001381486881145588 0
992 0.006621210264590284 0.0009403416665683383 0
993 0.009120892328214765 0.00173291524885833 0
994 0.01884220207136994 0.007338057111582857 0
995 0.01886602540378982 0.008249999999995577 0
996 0.0006658573100337276 0.00399766637639578 0
997 0.0006735596386223143 0.006493795659531681 0
998 0.0006840376841471368 0.001500000000004105 0
999 0.01930551590294021 0.001419386825011545 0
$EndNodes
$Elements
1996
1 1 2 1 1 1 5
2 1 2 1 1 5 6
3 1 2 1 1 6 7
4 1 2 1 1 7 8
5 1 2 1 1 8 9
6 1 2 1 1 9 10
7 1 2 1 1 10 11
8 1 2 1 1 11 12
9 1 2 1 1 12 13
10 1 2 1 1 13 14
11 1 2 1 1 14 15
12 1 2 1 1 15 16
13 1 2 1 1 16 17
14 1 2 1 1 17 18
15 1 2 1 1 18 19
16 1 2 1 1 19 20
17 1 2 1 1 20 21
18 1 2 1 1 21 22
19 1 2 1 1 22 23
20 1 2 1 1 23 24
21 1 2 1 1 24 25
22 1 2 1 1 25 26
23 1 2 1 1 26 27
24 1 2 1 1 27 28
25 1 2 1 1 28 29
26 1 2 1 1 29 30
27 1 2 1 1 30 31
28 1 2 1 1 31 32
29 1 2 1 1 32 33
30 1 2 1 1 33 34
31 1 2 1 1 34 35
32 1 2 1 1 35 36
33 1 2 1 1 36 37
34 1 2 1 1 37 38
35 1 2 1 1 38 39
36 1 2 1 1 39 40
37 1 2 1 1 40 41
38 1 2 1 1 41 42
39 1 2 1 1 42 43
40 1 2 1 1 43 2
41 1 2 2 2 2 44
42 1 2 2 2 44 45
43 1 2 2 2 45 46
44 1 2 2 2 46 47
45 1 2 2 2 47 48
46 1 2 2 2 48 49
47 1 2 2 2 49 50
48 1 2 2 2 50 51
49 1 2 2 2 51 52
50 1 2 2 2 52 53
51 1 2 2 2 53 54
52 1 2 2 2 54 55
53 1 2 2 2 55 56
54 1 2 2 2 56 57
55 1 2 2 2 57 58
56 1 2 2 2 58 59
57 1 2 2 2 59 60
58 1 2 2 2 60 61
59 1 2 2 2 61 62
60 1 2 2 2 62 3
61 1 2 3 3 3 63
62 1 2 3 3 63 64
63 1 2 3 3 64 65
64 1 2 3 3 65 66
65 1 2 3 3 66 67
66 1 2 3 3 67 68
67 1 2 3 3 68 69
68 1 2 3 3 69 70
69 1 2 3 3 70 71
70 1 2 3 3 71 72
71 1 2 3 3 72 73
72 1 2 3 3 73 74
73 1 2 3 3 74 75
74 1 2 3 3 75 76
75 1 2 3 3 76 77
76 1 2 3 3 77 78
77 1 2 3 3 78 79
78 1 2 3 3 79 80
79 1 2 3 3 80 81
80 1 2 3 3 81 82
81 1 2 3 3 82 83
82 1 2 3 3 83 84
83 1 2 3 3 84 85
84 1 2 3 3 85 86
85 1 2 3 3 86 87
86 1 2 3 3 87 88
87 1 2 3 3 88 89
88 1 2 3 3 89 90
89 1 2 3 3 90 91
90 1 2 3 3 91 92
91 1 2 3 3 92 93
92 1 2 3 3 93 94
93 1 2 3 3 94 95
94 1 2 3 3 95 96
95 1 2 3 3 96 97
96 1 2 3 3 97 98
97 1 2 3 3 98 99
98 1 2 3 3 99 100
99 1 2 3 3 100 101
100 1 2 3 3 101 4
101 1 2 4 4 4 102
102 1 2 4 4 102 103
103 1 2 4 4 103 104
104 1 2 4 4 104 105
105 1 2 4 4 105 106
106 1 2 4 4 106 107
107 1 2 4 4 107 108
108 1 2 4 4 108 109
109 1 2 4 4 109 110
110 1 2 4 4 110 111
111 1 2 4 4 111 112
112 1 2 4 4 112 113
113 1 2 4 4 113 114
114 1 2 4 4 114 115
115 1 2 4 4 115 116
116 1 2 4 4 116 117
117 1 2 4 4 117 118
118 1 2 4 4 118 119
119 1 2 4 4 119 120
120 1 2 4 4 120 1
121 2 2 1 1 562 140 563
122 2 2 1 1 107 137 578
123 2 2 1 1 164 572 945
124 2 2 1 1 530 924 925
125 2 2 1 1 529 530 925
126 2 2 1 1 563 140 966
127 2 2 1 1 755 673 920
128 2 2 1 1 673 755 921
129 2 2 1 1 722 123 929
130 2 2 1 1 123 722 931
131 2 2 1 1 158 733 937
132 2 2 1 1 733 158 935
133 2 2 1 1 417 654 941
134 2 2 1 1 654 417 942
135 2 2 1 1 560 165 943
136 2 2 1 1 165 560 944
137 2 2 1 1 380 641 932
138 2 2 1 1 641 380 938
139 2 2 1 1 162 558 916
140 2 2 1 1 558 162 917
141 2 2 1 1 379 652 930
142 2 2 1 1 652 379 933
143 2 2 1 1 752 141 918
144 2 2 1 1 141 752 923
145 2 2 1 1 752 162 916
146 2 2 1 1 162 752 918
147 2 2 1 1 379 628 927
148 2 2 1 1 628 379 930
149 2 2 1 1 380 652 933
150 2 2 1 1 652 380 932
151 2 2 1 1 641 381 936
152 2 2 1 1 381 641 938
153 2 2 1 1 587 529 925
154 2 2 1 1 529 587 928
155 2 2 1 1 733 123 931
156 2 2 1 1 123 733 935
157 2 2 1 1 158 559 939
158 2 2 1 1 559 158 937
159 2 2 1 1 417 710 940
160 2 2 1 1 710 417 941
161 2 2 1 1 917 168 947
162 2 2 1 1 558 917 947
163 2 2 1 1 919 330 993
164 2 2 1 1 929 160 992
165 2 2 1 1 943 142 990
166 2 2 1 1 590 924 987
167 2 2 1 1 531 940 988
168 2 2 1 1 378 927 981
169 2 2 1 1 534 926 982
170 2 2 1 1 636 936 980
171 2 2 1 1 331 922 979
172 2 2 1 1 594 919 993
173 2 2 1 1 722 929 992
174 2 2 1 1 560 943 990
175 2 2 1 1 924 530 987
176 2 2 1 1 940 710 988
177 2 2 1 1 927 628 981
178 2 2 1 1 926 629 982
179 2 2 1 1 936 381 980
180 2 2 1 1 922 675 979
181 2 2 1 1 728 139 786
182 2 2 1 1 572 164 963
183 2 2 1 1 135 561 619
184 2 2 1 1 951 165 961
185 2 2 1 1 165 944 961
186 2 2 1 1 606 166 608
187 2 2 1 1 983 507 984
188 2 2 1 1 637 983 984
189 2 2 1 1 578 137 957
190 2 2 1 1 106 107 578
191 2 2 1 1 139 728 965
192 2 2 1 1 154 566 568
193 2 2 1 1 571 155 598
194 2 2 1 1 561 135 620
195 2 2 1 1 102 103 912
196 2 2 1 1 132 565 566
197 2 2 1 1 570 131 571
198 2 2 1 1 619 561 962
199 2 2 1 1 140 562 564
200 2 2 1 1 608 166 968
201 2 2 1 1 146 573 575
202 2 2 1 1 608 147 609
203 2 2 1 1 154 568 569
204 2 2 1 1 102 912 977
205 2 2 1 1 565 132 567
206 2 2 1 1 131 570 572
207 2 2 1 1 850 630 971
208 2 2 1 1 779 556 972
209 2 2 1 1 573 146 576
210 2 2 1 1 164 945 958
211 2 2 1 1 566 154 969
212 2 2 1 1 155 571 970
213 2 2 1 1 563 630 850
214 2 2 1 1 525 609 974
215 2 2 1 1 609 525 975
216 2 2 1 1 166 606 950
217 2 2 1 1 954 447 955
218 2 2 1 1 728 786 958
219 2 2 1 1 630 145 971
220 2 2 1 1 161 779 972
221 2 2 1 1 132 566 969
222 2 2 1 1 571 131 970
223 2 2 1 1 555 947 999
224 2 2 1 1 947 765 999
225 2 2 1 1 556 779 965
226 2 2 1 1 598 155 962
227 2 2 1 1 609 147 974
228 2 2 1 1 620 135 915
229 2 2 1 1 564 954 955
230 2 2 1 1 565 567 913
231 2 2 1 1 572 570 914
232 2 2 1 1 569 568 946
233 2 2 1 1 140 564 952
234 2 2 1 1 146 575 967
235 2 2 1 1 147 608 968
236 2 2 1 1 615 617 904
237 2 2 1 1 148 618 899
238 2 2 1 1 617 488 904
239 2 2 1 1 618 527 899
240 2 2 1 1 167 581 898
241 2 2 1 1 136 907 911
242 2 2 1 1 898 581 900
243 2 2 1 1 579 580 903
244 2 2 1 1 903 580 907
245 2 2 1 1 125 901 902
246 2 2 1 1 901 550 902
247 2 2 1 1 143 898 900
248 2 2 1 1 579 143 900
249 2 2 1 1 618 615 904
250 2 2 1 1 143 579 903
251 2 2 1 1 905 489 906
252 2 2 1 1 100 167 898
253 2 2 1 1 648 489 905
254 2 2 1 1 648 647 908
255 2 2 1 1 610 148 899
256 2 2 1 1 908 647 909
257 2 2 1 1 86 125 894
258 2 2 1 1 125 582 894
259 2 2 1 1 692 471 810
260 2 2 1 1 435 699 835
261 2 2 1 1 29 159 633
262 2 2 1 1 804 648 905
263 2 2 1 1 699 426 835
264 2 2 1 1 588 634 637
265 2 2 1 1 874 345 877
266 2 2 1 1 691 692 810
267 2 2 1 1 24 25 589
268 2 2 1 1 122 24 589
269 2 2 1 1 633 159 634
270 2 2 1 1 677 679 861
271 2 2 1 1 760 585 785
272 2 2 1 1 401 584 760
273 2 2 1 1 401 760 785
274 2 2 1 1 600 285 697
275 2 2 1 1 398 585 595
276 2 2 1 1 585 398 785
277 2 2 1 1 800 289 879
278 2 2 1 1 153 26 586
279 2 2 1 1 398 595 772
280 2 2 1 1 84 150 170
281 2 2 1 1 617 905 906
282 2 2 1 1 538 600 697
283 2 2 1 1 170 150 583
284 2 2 1 1 596 413 597
285 2 2 1 1 505 596 597
286 2 2 1 1 82 83 128
287 2 2 1 1 277 681 685
288 2 2 1 1 541 874 877
289 2 2 1 1 277 679 681
290 2 2 1 1 588 633 634
291 2 2 1 1 82 128 621
292 2 2 1 1 634 636 637
293 2 2 1 1 400 808 828
294 2 2 1 1 622 623 691
295 2 2 1 1 283 686 688
296 2 2 1 1 687 684 797
297 2 2 1 1 541 687 797
298 2 2 1 1 122 589 590
299 2 2 1 1 283 688 796
300 2 2 1 1 467 622 691
301 2 2 1 1 584 401 800
302 2 2 1 1 684 373 797
303 2 2 1 1 601 524 611
304 2 2 1 1 682 373 684
305 2 2 1 1 699 425 815
306 2 2 1 1 427 601 611
307 2 2 1 1 651 640 656
308 2 2 1 1 772 595 808
309 2 2 1 1 629 625 632
310 2 2 1 1 373 682 781
311 2 2 1 1 488 617 906
312 2 2 1 1 659 657 882
313 2 2 1 1 72 121 612
314 2 2 1 1 71 72 612
315 2 2 1 1 679 277 861
316 2 2 1 1 91 127 614
317 2 2 1 1 614 615 618
318 2 2 1 1 707 747 858
319 2 2 1 1 128 172 621
320 2 2 1 1 682 680 781
321 2 2 1 1 625 37 632
322 2 2 1 1 111 112 132
323 2 2 1 1 27 130 586
324 2 2 1 1 279 276 836
325 2 2 1 1 28 29 633
326 2 2 1 1 27 28 130
327 2 2 1 1 687 541 877
328 2 2 1 1 622 467 780
329 2 2 1 1 694 693 878
330 2 2 1 1 31 126 638
331 2 2 1 1 681 683 685
332 2 2 1 1 691 623 692
333 2 2 1 1 90 91 614
334 2 2 1 1 680 399 781
335 2 2 1 1 881 425 884
336 2 2 1 1 25 153 589
337 2 2 1 1 697 435 835
338 2 2 1 1 346 745 801
339 2 2 1 1 427 611 818
340 2 2 1 1 597 413 707
341 2 2 1 1 426 699 815
342 2 2 1 1 172 174 825
343 2 2 1 1 308 661 730
344 2 2 1 1 614 127 615
345 2 2 1 1 621 172 825
346 2 2 1 1 678 399 680
347 2 2 1 1 384 345 874
348 2 2 1 1 640 126 656
349 2 2 1 1 151 71 612
350 2 2 1 1 35 36 133
351 2 2 1 1 76 77 665
352 2 2 1 1 467 466 780
353 2 2 1 1 119 169 642
354 2 2 1 1 596 505 813
355 2 2 1 1 285 600 802
356 2 2 1 1 138 69 624
357 2 2 1 1 661 543 730
358 2 2 1 1 214 659 882
359 2 2 1 1 686 283 836
360 2 2 1 1 346 744 745
361 2 2 1 1 400 772 808
362 2 2 1 1 70 71 151
363 2 2 1 1 537 384 868
364 2 2 1 1 156 650 651
365 2 2 1 1 196 198 744
366 2 2 1 1 156 649 650
367 2 2 1 1 69 70 624
368 2 2 1 1 243 245 800
369 2 2 1 1 343 427 818
370 2 2 1 1 156 34 649
371 2 2 1 1 712 727 728
372 2 2 1 1 26 27 586
373 2 2 1 1 25 26 153
374 2 2 1 1 714 713 862
375 2 2 1 1 711 372 727
376 2 2 1 1 117 118 145
377 2 2 1 1 56 135 619
378 2 2 1 1 89 90 148
379 2 2 1 1 783 157 804
380 2 2 1 1 616 783 804
381 2 2 1 1 276 685 836
382 2 2 1 1 868 384 874
383 2 2 1 1 32 33 656
384 2 2 1 1 807 591 830
385 2 2 1 1 34 35 649
386 2 2 1 1 698 689 859
387 2 2 1 1 59 60 144
388 2 2 1 1 399 678 729
389 2 2 1 1 126 32 656
390 2 2 1 1 60 61 603
391 2 2 1 1 274 277 685
392 2 2 1 1 801 745 808
393 2 2 1 1 668 723 732
394 2 2 1 1 634 159 635
395 2 2 1 1 149 76 665
396 2 2 1 1 157 644 645
397 2 2 1 1 660 526 708
398 2 2 1 1 70 151 624
399 2 2 1 1 89 148 610
400 2 2 1 1 276 274 685
401 2 2 1 1 723 668 733
402 2 2 1 1 80 81 152
403 2 2 1 1 586 130 587
404 2 2 1 1 30 31 638
405 2 2 1 1 635 638 639
406 2 2 1 1 638 126 639
407 2 2 1 1 118 119 642
408 2 2 1 1 31 32 126
409 2 2 1 1 348 802 840
410 2 2 1 1 117 145 630
411 2 2 1 1 35 133 649
412 2 2 1 1 93 94 157
413 2 2 1 1 725 731 842
414 2 2 1 1 742 743 867
415 2 2 1 1 613 881 884
416 2 2 1 1 128 170 171
417 2 2 1 1 148 614 618
418 2 2 1 1 206 736 737
419 2 2 1 1 54 55 155
420 2 2 1 1 644 136 646
421 2 2 1 1 685 683 836
422 2 2 1 1 689 280 859
423 2 2 1 1 604 603 606
424 2 2 1 1 316 694 878
425 2 2 1 1 79 80 599
426 2 2 1 1 151 612 613
427 2 2 1 1 214 195 883
428 2 2 1 1 206 737 738
429 2 2 1 1 144 60 603
430 2 2 1 1 597 707 858
431 2 2 1 1 429 431 726
432 2 2 1 1 712 711 727
433 2 2 1 1 538 697 835
434 2 2 1 1 683 686 836
435 2 2 1 1 316 199 880
436 2 2 1 1 83 84 170
437 2 2 1 1 38 39 141
438 2 2 1 1 86 87 125
439 2 2 1 1 815 425 881
440 2 2 1 1 93 157 783
441 2 2 1 1 77 78 124
442 2 2 1 1 215 714 862
443 2 2 1 1 133 625 626
444 2 2 1 1 403 739 787
445 2 2 1 1 21 22 163
446 2 2 1 1 163 807 830
447 2 2 1 1 346 196 744
448 2 2 1 1 808 745 828
449 2 2 1 1 100 101 167
450 2 2 1 1 157 94 644
451 2 2 1 1 584 800 879
452 2 2 1 1 770 400 828
453 2 2 1 1 155 55 619
454 2 2 1 1 59 144 706
455 2 2 1 1 145 118 642
456 2 2 1 1 607 606 608
457 2 2 1 1 128 83 170
458 2 2 1 1 215 203 872
459 2 2 1 1 148 90 614
460 2 2 1 1 643 496 848
461 2 2 1 1 825 494 829
462 2 2 1 1 206 200 736
463 2 2 1 1 144 603 604
464 2 2 1 1 144 605 706
465 2 2 1 1 80 152 599
466 2 2 1 1 42 43 168
467 2 2 1 1 526 517 708
468 2 2 1 1 604 606 607
469 2 2 1 1 667 668 732
470 2 2 1 1 489 648 908
471 2 2 1 1 496 643 829
472 2 2 1 1 591 593 830
473 2 2 1 1 122 590 591
474 2 2 1 1 198 206 744
475 2 2 1 1 401 243 800
476 2 2 1 1 334 667 732
477 2 2 1 1 283 279 836
478 2 2 1 1 613 612 865
479 2 2 1 1 329 655 762
480 2 2 1 1 114 115 140
481 2 2 1 1 496 497 848
482 2 2 1 1 372 726 727
483 2 2 1 1 539 663 767
484 2 2 1 1 159 30 638
485 2 2 1 1 577 576 578
486 2 2 1 1 509 742 867
487 2 2 1 1 361 364 729
488 2 2 1 1 327 412 664
489 2 2 1 1 539 662 663
490 2 2 1 1 549 544 852
491 2 2 1 1 431 557 726
492 2 2 1 1 689 677 861
493 2 2 1 1 84 85 150
494 2 2 1 1 731 407 842
495 2 2 1 1 245 289 800
496 2 2 1 1 595 801 808
497 2 2 1 1 21 163 669
498 2 2 1 1 372 365 666
499 2 2 1 1 461 459 759
500 2 2 1 1 787 701 812
501 2 2 1 1 651 650 652
502 2 2 1 1 802 600 840
503 2 2 1 1 466 470 780
504 2 2 1 1 133 626 627
505 2 2 1 1 318 435 696
506 2 2 1 1 81 82 621
507 2 2 1 1 690 691 810
508 2 2 1 1 364 399 729
509 2 2 1 1 287 318 696
510 2 2 1 1 615 127 616
511 2 2 1 1 281 285 802
512 2 2 1 1 8 9 142
513 2 2 1 1 285 696 697
514 2 2 1 1 607 608 609
515 2 2 1 1 574 573 576
516 2 2 1 1 667 334 756
517 2 2 1 1 95 136 644
518 2 2 1 1 200 202 736
519 2 2 1 1 29 30 159
520 2 2 1 1 174 494 825
521 2 2 1 1 645 647 648
522 2 2 1 1 459 545 759
523 2 2 1 1 601 525 602
524 2 2 1 1 152 81 621
525 2 2 1 1 506 353 698
526 2 2 1 1 289 742 879
527 2 2 1 1 308 309 839
528 2 2 1 1 482 512 693
529 2 2 1 1 365 363 666
530 2 2 1 1 662 539 664
531 2 2 1 1 739 770 828
532 2 2 1 1 690 467 691
533 2 2 1 1 494 496 829
534 2 2 1 1 715 472 716
535 2 2 1 1 343 416 427
536 2 2 1 1 610 550 901
537 2 2 1 1 666 429 726
538 2 2 1 1 539 327 664
539 2 2 1 1 460 464 690
540 2 2 1 1 252 254 743
541 2 2 1 1 427 416 525
542 2 2 1 1 739 403 770
543 2 2 1 1 704 444 705
544 2 2 1 1 458 460 690
545 2 2 1 1 55 56 619
546 2 2 1 1 133 36 625
547 2 2 1 1 10 11 709
548 2 2 1 1 219 224 763
549 2 2 1 1 464 467 690
550 2 2 1 1 634 635 636
551 2 2 1 1 94 95 644
552 2 2 1 1 573 523 575
553 2 2 1 1 518 517 519
554 2 2 1 1 104 105 146
555 2 2 1 1 676 428 677
556 2 2 1 1 678 428 729
557 2 2 1 1 519 517 526
558 2 2 1 1 522 573 574
559 2 2 1 1 714 215 872
560 2 2 1 1 574 576 577
561 2 2 1 1 333 719 734
562 2 2 1 1 703 348 784
563 2 2 1 1 320 343 818
564 2 2 1 1 486 514 657
565 2 2 1 1 724 332 734
566 2 2 1 1 464 466 467
567 2 2 1 1 645 646 647
568 2 2 1 1 767 663 782
569 2 2 1 1 639 640 641
570 2 2 1 1 403 787 812
571 2 2 1 1 142 9 653
572 2 2 1 1 454 471 740
573 2 2 1 1 353 355 698
574 2 2 1 1 367 386 429
575 2 2 1 1 473 472 715
576 2 2 1 1 79 599 631
577 2 2 1 1 357 428 676
578 2 2 1 1 347 425 699
579 2 2 1 1 470 474 521
580 2 2 1 1 696 435 697
581 2 2 1 1 661 308 839
582 2 2 1 1 521 474 579
583 2 2 1 1 293 295 794
584 2 2 1 1 128 171 172
585 2 2 1 1 738 737 739
586 2 2 1 1 653 10 709
587 2 2 1 1 372 666 726
588 2 2 1 1 275 348 703
589 2 2 1 1 359 361 729
590 2 2 1 1 349 700 701
591 2 2 1 1 470 521 522
592 2 2 1 1 116 117 630
593 2 2 1 1 374 444 704
594 2 2 1 1 518 519 520
595 2 2 1 1 349 211 700
596 2 2 1 1 427 525 601
597 2 2 1 1 343 382 416
598 2 2 1 1 9 10 653
599 2 2 1 1 659 214 883
600 2 2 1 1 866 664 873
601 2 2 1 1 599 152 829
602 2 2 1 1 492 657 658
603 2 2 1 1 254 405 743
604 2 2 1 1 431 552 556
605 2 2 1 1 598 537 868
606 2 2 1 1 431 430 552
607 2 2 1 1 550 610 899
608 2 2 1 1 723 718 732
609 2 2 1 1 718 717 732
610 2 2 1 1 361 362 363
611 2 2 1 1 466 468 470
612 2 2 1 1 22 23 807
613 2 2 1 1 421 711 712
614 2 2 1 1 202 204 735
615 2 2 1 1 347 414 425
616 2 2 1 1 529 503 530
617 2 2 1 1 391 389 758
618 2 2 1 1 429 430 431
619 2 2 1 1 658 657 659
620 2 2 1 1 334 226 756
621 2 2 1 1 643 599 829
622 2 2 1 1 492 486 657
623 2 2 1 1 739 737 787
624 2 2 1 1 750 784 823
625 2 2 1 1 19 20 129
626 2 2 1 1 423 396 445
627 2 2 1 1 287 317 318
628 2 2 1 1 374 377 444
629 2 2 1 1 429 386 430
630 2 2 1 1 719 724 734
631 2 2 1 1 333 717 718
632 2 2 1 1 11 134 709
633 2 2 1 1 333 230 717
634 2 2 1 1 357 359 428
635 2 2 1 1 320 342 343
636 2 2 1 1 776 260 782
637 2 2 1 1 19 129 822
638 2 2 1 1 530 503 655
639 2 2 1 1 122 591 807
640 2 2 1 1 224 227 763
641 2 2 1 1 677 428 678
642 2 2 1 1 364 363 365
643 2 2 1 1 475 791 832
644 2 2 1 1 119 120 169
645 2 2 1 1 421 370 711
646 2 2 1 1 486 484 514
647 2 2 1 1 645 644 646
648 2 2 1 1 361 363 364
649 2 2 1 1 248 329 762
650 2 2 1 1 363 367 666
651 2 2 1 1 363 362 367
652 2 2 1 1 284 287 696
653 2 2 1 1 470 468 474
654 2 2 1 1 124 78 631
655 2 2 1 1 655 503 762
656 2 2 1 1 318 328 347
657 2 2 1 1 514 693 694
658 2 2 1 1 157 645 804
659 2 2 1 1 423 445 446
660 2 2 1 1 639 126 640
661 2 2 1 1 444 377 511
662 2 2 1 1 854 215 862
663 2 2 1 1 347 328 414
664 2 2 1 1 250 248 762
665 2 2 1 1 546 293 794
666 2 2 1 1 615 616 617
667 2 2 1 1 56 57 135
668 2 2 1 1 484 482 693
669 2 2 1 1 669 163 777
670 2 2 1 1 374 325 377
671 2 2 1 1 707 314 747
672 2 2 1 1 413 326 707
673 2 2 1 1 447 446 448
674 2 2 1 1 394 391 758
675 2 2 1 1 627 626 628
676 2 2 1 1 232 333 734
677 2 2 1 1 677 678 679
678 2 2 1 1 367 429 666
679 2 2 1 1 791 790 832
680 2 2 1 1 726 557 727
681 2 2 1 1 318 317 328
682 2 2 1 1 326 314 707
683 2 2 1 1 522 523 573
684 2 2 1 1 306 308 730
685 2 2 1 1 663 776 782
686 2 2 1 1 17 18 160
687 2 2 1 1 514 484 693
688 2 2 1 1 273 267 750
689 2 2 1 1 435 347 699
690 2 2 1 1 95 96 136
691 2 2 1 1 206 738 744
692 2 2 1 1 324 325 374
693 2 2 1 1 741 252 743
694 2 2 1 1 725 506 731
695 2 2 1 1 37 38 632
696 2 2 1 1 451 450 452
697 2 2 1 1 351 506 725
698 2 2 1 1 375 374 704
699 2 2 1 1 700 219 763
700 2 2 1 1 645 648 804
701 2 2 1 1 345 876 877
702 2 2 1 1 451 452 528
703 2 2 1 1 478 473 715
704 2 2 1 1 522 574 780
705 2 2 1 1 472 461 759
706 2 2 1 1 281 284 285
707 2 2 1 1 482 480 512
708 2 2 1 1 310 730 856
709 2 2 1 1 204 209 735
710 2 2 1 1 368 365 372
711 2 2 1 1 512 713 714
712 2 2 1 1 727 557 728
713 2 2 1 1 487 486 492
714 2 2 1 1 23 122 807
715 2 2 1 1 428 359 729
716 2 2 1 1 355 357 676
717 2 2 1 1 366 365 368
718 2 2 1 1 448 450 451
719 2 2 1 1 359 360 361
720 2 2 1 1 368 372 711
721 2 2 1 1 271 275 703
722 2 2 1 1 423 446 447
723 2 2 1 1 383 370 421
724 2 2 1 1 289 247 741
725 2 2 1 1 432 387 531
726 2 2 1 1 211 216 700
727 2 2 1 1 36 37 625
728 2 2 1 1 202 735 736
729 2 2 1 1 335 432 756
730 2 2 1 1 448 449 450
731 2 2 1 1 308 307 309
732 2 2 1 1 477 473 478
733 2 2 1 1 784 443 823
734 2 2 1 1 230 228 717
735 2 2 1 1 907 580 911
736 2 2 1 1 275 278 348
737 2 2 1 1 432 667 756
738 2 2 1 1 333 718 719
739 2 2 1 1 396 394 695
740 2 2 1 1 129 671 822
741 2 2 1 1 566 528 568
742 2 2 1 1 314 302 747
743 2 2 1 1 144 604 605
744 2 2 1 1 532 531 559
745 2 2 1 1 705 444 846
746 2 2 1 1 364 365 366
747 2 2 1 1 452 454 740
748 2 2 1 1 695 394 758
749 2 2 1 1 626 625 629
750 2 2 1 1 77 124 665
751 2 2 1 1 202 203 204
752 2 2 1 1 679 678 680
753 2 2 1 1 289 741 742
754 2 2 1 1 335 387 432
755 2 2 1 1 542 419 570
756 2 2 1 1 431 556 557
757 2 2 1 1 402 538 761
758 2 2 1 1 216 218 219
759 2 2 1 1 335 336 387
760 2 2 1 1 361 360 362
761 2 2 1 1 285 284 696
762 2 2 1 1 224 223 225
763 2 2 1 1 480 478 713
764 2 2 1 1 309 322 324
765 2 2 1 1 370 368 711
766 2 2 1 1 676 677 689
767 2 2 1 1 324 322 325
768 2 2 1 1 512 480 713
769 2 2 1 1 340 351 725
770 2 2 1 1 616 127 783
771 2 2 1 1 713 478 715
772 2 2 1 1 717 334 732
773 2 2 1 1 548 544 549
774 2 2 1 1 267 269 750
775 2 2 1 1 20 21 669
776 2 2 1 1 219 218 223
777 2 2 1 1 565 528 566
778 2 2 1 1 344 313 345
779 2 2 1 1 317 288 788
780 2 2 1 1 228 334 717
781 2 2 1 1 33 156 656
782 2 2 1 1 744 738 745
783 2 2 1 1 247 249 741
784 2 2 1 1 535 536 560
785 2 2 1 1 719 718 720
786 2 2 1 1 318 347 435
787 2 2 1 1 298 263 753
788 2 2 1 1 432 531 532
789 2 2 1 1 228 226 334
790 2 2 1 1 175 177 768
791 2 2 1 1 422 396 423
792 2 2 1 1 13 14 158
793 2 2 1 1 163 22 807
794 2 2 1 1 747 310 858
795 2 2 1 1 409 250 762
796 2 2 1 1 269 703 750
797 2 2 1 1 355 676 698
798 2 2 1 1 517 491 708
799 2 2 1 1 204 207 208
800 2 2 1 1 208 207 212
801 2 2 1 1 414 415 515
802 2 2 1 1 351 353 506
803 2 2 1 1 475 832 834
804 2 2 1 1 219 223 224
805 2 2 1 1 306 307 308
806 2 2 1 1 719 720 721
807 2 2 1 1 275 276 278
808 2 2 1 1 226 225 756
809 2 2 1 1 209 211 349
810 2 2 1 1 278 281 802
811 2 2 1 1 448 446 449
812 2 2 1 1 454 456 471
813 2 2 1 1 225 290 335
814 2 2 1 1 330 242 754
815 2 2 1 1 330 754 755
816 2 2 1 1 232 230 333
817 2 2 1 1 269 271 703
818 2 2 1 1 208 212 766
819 2 2 1 1 254 253 255
820 2 2 1 1 263 265 753
821 2 2 1 1 233 232 234
822 2 2 1 1 721 720 722
823 2 2 1 1 574 622 780
824 2 2 1 1 771 440 775
825 2 2 1 1 235 234 236
826 2 2 1 1 224 225 226
827 2 2 1 1 502 409 503
828 2 2 1 1 463 461 472
829 2 2 1 1 204 203 207
830 2 2 1 1 445 396 695
831 2 2 1 1 635 159 638
832 2 2 1 1 204 208 209
833 2 2 1 1 679 680 681
834 2 2 1 1 310 306 730
835 2 2 1 1 231 230 232
836 2 2 1 1 236 234 332
837 2 2 1 1 324 374 375
838 2 2 1 1 265 273 753
839 2 2 1 1 237 236 238
840 2 2 1 1 622 577 623
841 2 2 1 1 229 228 230
842 2 2 1 1 182 296 749
843 2 2 1 1 388 390 417
844 2 2 1 1 500 544 548
845 2 2 1 1 502 503 529
846 2 2 1 1 516 517 518
847 2 2 1 1 297 175 768
848 2 2 1 1 349 701 702
849 2 2 1 1 369 368 370
850 2 2 1 1 492 658 660
851 2 2 1 1 216 217 218
852 2 2 1 1 240 238 331
853 2 2 1 1 281 282 284
854 2 2 1 1 252 253 254
855 2 2 1 1 58 59 706
856 2 2 1 1 357 358 359
857 2 2 1 1 701 763 812
858 2 2 1 1 225 335 756
859 2 2 1 1 262 261 263
860 2 2 1 1 233 234 235
861 2 2 1 1 227 226 228
862 2 2 1 1 479 478 480
863 2 2 1 1 528 452 740
864 2 2 1 1 452 450 453
865 2 2 1 1 284 286 287
866 2 2 1 1 231 232 233
867 2 2 1 1 701 700 763
868 2 2 1 1 265 267 273
869 2 2 1 1 500 543 544
870 2 2 1 1 91 92 127
871 2 2 1 1 681 680 682
872 2 2 1 1 216 219 700
873 2 2 1 1 235 236 237
874 2 2 1 1 304 306 310
875 2 2 1 1 249 252 741
876 2 2 1 1 301 300 302
877 2 2 1 1 304 305 306
878 2 2 1 1 302 304 747
879 2 2 1 1 278 279 281
880 2 2 1 1 198 200 206
881 2 2 1 1 209 349 735
882 2 2 1 1 371 370 383
883 2 2 1 1 753 771 775
884 2 2 1 1 271 274 275
885 2 2 1 1 262 263 298
886 2 2 1 1 252 251 253
887 2 2 1 1 260 261 262
888 2 2 1 1 451 528 565
889 2 2 1 1 299 298 300
890 2 2 1 1 186 187 188
891 2 2 1 1 184 185 186
892 2 2 1 1 211 213 216
893 2 2 1 1 287 288 317
894 2 2 1 1 299 300 301
895 2 2 1 1 716 472 759
896 2 2 1 1 239 238 240
897 2 2 1 1 719 721 724
898 2 2 1 1 191 192 205
899 2 2 1 1 127 92 783
900 2 2 1 1 295 340 794
901 2 2 1 1 229 230 231
902 2 2 1 1 302 303 304
903 2 2 1 1 720 718 723
904 2 2 1 1 301 302 314
905 2 2 1 1 182 183 184
906 2 2 1 1 503 409 762
907 2 2 1 1 188 189 191
908 2 2 1 1 387 336 388
909 2 2 1 1 179 182 749
910 2 2 1 1 784 348 840
911 2 2 1 1 411 508 757
912 2 2 1 1 254 255 404
913 2 2 1 1 98 99 143
914 2 2 1 1 249 251 252
915 2 2 1 1 184 186 764
916 2 2 1 1 194 196 346
917 2 2 1 1 315 314 326
918 2 2 1 1 299 767 782
919 2 2 1 1 351 352 353
920 2 2 1 1 508 413 596
921 2 2 1 1 335 290 336
922 2 2 1 1 709 134 710
923 2 2 1 1 667 532 668
924 2 2 1 1 262 298 299
925 2 2 1 1 492 660 708
926 2 2 1 1 133 627 649
927 2 2 1 1 411 413 508
928 2 2 1 1 481 480 482
929 2 2 1 1 225 223 290
930 2 2 1 1 367 385 386
931 2 2 1 1 306 305 307
932 2 2 1 1 716 759 843
933 2 2 1 1 194 346 774
934 2 2 1 1 234 232 734
935 2 2 1 1 248 246 329
936 2 2 1 1 366 368 369
937 2 2 1 1 584 434 760
938 2 2 1 1 227 228 229
939 2 2 1 1 301 314 315
940 2 2 1 1 411 326 413
941 2 2 1 1 364 366 399
942 2 2 1 1 310 856 858
943 2 2 1 1 309 321 322
944 2 2 1 1 694 316 880
945 2 2 1 1 485 484 486
946 2 2 1 1 327 326 411
947 2 2 1 1 182 184 296
948 2 2 1 1 237 238 239
949 2 2 1 1 240 331 754
950 2 2 1 1 242 240 754
951 2 2 1 1 275 274 276
952 2 2 1 1 274 272 277
953 2 2 1 1 412 411 757
954 2 2 1 1 174 173 175
955 2 2 1 1 516 491 517
956 2 2 1 1 191 189 192
957 2 2 1 1 218 220 748
958 2 2 1 1 483 482 484
959 2 2 1 1 552 430 553
960 2 2 1 1 244 242 330
961 2 2 1 1 323 205 433
962 2 2 1 1 433 439 585
963 2 2 1 1 177 179 181
964 2 2 1 1 742 741 743
965 2 2 1 1 302 300 303
966 2 2 1 1 312 320 788
967 2 2 1 1 315 326 327
968 2 2 1 1 736 702 737
969 2 2 1 1 670 669 777
970 2 2 1 1 179 180 182
971 2 2 1 1 494 495 496
972 2 2 1 1 344 345 384
973 2 2 1 1 188 187 189
974 2 2 1 1 587 130 588
975 2 2 1 1 497 499 500
976 2 2 1 1 414 328 415
977 2 2 1 1 186 185 187
978 2 2 1 1 410 383 419
979 2 2 1 1 327 411 412
980 2 2 1 1 304 303 305
981 2 2 1 1 452 453 454
982 2 2 1 1 433 585 760
983 2 2 1 1 209 210 211
984 2 2 1 1 681 682 683
985 2 2 1 1 68 69 138
986 2 2 1 1 568 528 740
987 2 2 1 1 544 543 661
988 2 2 1 1 224 226 227
989 2 2 1 1 332 234 734
990 2 2 1 1 353 354 355
991 2 2 1 1 437 434 584
992 2 2 1 1 174 297 494
993 2 2 1 1 304 310 747
994 2 2 1 1 184 183 185
995 2 2 1 1 463 472 473
996 2 2 1 1 241 240 242
997 2 2 1 1 446 445 746
998 2 2 1 1 191 205 323
999 2 2 1 1 315 327 539
1000 2 2 1 1 405 404 662
1001 2 2 1 1 355 356 357
1002 2 2 1 1 172 173 174
1003 2 2 1 1 202 201 203
1004 2 2 1 1 799 788 818
1005 2 2 1 1 186 190 764
1006 2 2 1 1 477 478 479
1007 2 2 1 1 611 799 818
1008 2 2 1 1 433 205 439
1009 2 2 1 1 585 439 595
1010 2 2 1 1 487 492 708
1011 2 2 1 1 683 684 686
1012 2 2 1 1 500 499 543
1013 2 2 1 1 221 790 791
1014 2 2 1 1 254 404 405
1015 2 2 1 1 683 682 684
1016 2 2 1 1 470 522 780
1017 2 2 1 1 432 532 667
1018 2 2 1 1 494 297 495
1019 2 2 1 1 296 184 764
1020 2 2 1 1 257 259 260
1021 2 2 1 1 52 53 131
1022 2 2 1 1 129 20 669
1023 2 2 1 1 392 397 535
1024 2 2 1 1 260 262 782
1025 2 2 1 1 369 370 371
1026 2 2 1 1 298 753 775
1027 2 2 1 1 440 303 775
1028 2 2 1 1 239 240 241
1029 2 2 1 1 434 433 760
1030 2 2 1 1 263 264 265
1031 2 2 1 1 271 272 274
1032 2 2 1 1 249 250 251
1033 2 2 1 1 686 687 688
1034 2 2 1 1 209 208 210
1035 2 2 1 1 309 307 321
1036 2 2 1 1 303 300 775
1037 2 2 1 1 186 188 190
1038 2 2 1 1 438 510 513
1039 2 2 1 1 399 366 781
1040 2 2 1 1 702 701 787
1041 2 2 1 1 291 546 773
1042 2 2 1 1 312 319 320
1043 2 2 1 1 88 89 610
1044 2 2 1 1 177 181 768
1045 2 2 1 1 548 863 864
1046 2 2 1 1 591 590 592
1047 2 2 1 1 188 191 778
1048 2 2 1 1 233 235 400
1049 2 2 1 1 315 539 767
1050 2 2 1 1 191 323 778
1051 2 2 1 1 200 201 202
1052 2 2 1 1 737 702 787
1053 2 2 1 1 15 16 123
1054 2 2 1 1 260 259 261
1055 2 2 1 1 323 433 434
1056 2 2 1 1 174 175 297
1057 2 2 1 1 177 178 179
1058 2 2 1 1 182 180 183
1059 2 2 1 1 753 273 771
1060 2 2 1 1 299 301 767
1061 2 2 1 1 751 533 752
1062 2 2 1 1 496 495 497
1063 2 2 1 1 542 570 571
1064 2 2 1 1 591 592 593
1065 2 2 1 1 340 341 351
1066 2 2 1 1 631 599 643
1067 2 2 1 1 416 382 420
1068 2 2 1 1 305 303 440
1069 2 2 1 1 205 192 774
1070 2 2 1 1 172 171 173
1071 2 2 1 1 11 12 134
1072 2 2 1 1 676 689 698
1073 2 2 1 1 402 441 538
1074 2 2 1 1 237 239 398
1075 2 2 1 1 662 404 663
1076 2 2 1 1 353 352 354
1077 2 2 1 1 485 486 487
1078 2 2 1 1 263 261 264
1079 2 2 1 1 438 509 510
1080 2 2 1 1 686 684 687
1081 2 2 1 1 181 179 749
1082 2 2 1 1 210 208 766
1083 2 2 1 1 301 315 767
1084 2 2 1 1 337 294 339
1085 2 2 1 1 369 373 781
1086 2 2 1 1 210 766 790
1087 2 2 1 1 515 415 524
1088 2 2 1 1 366 369 781
1089 2 2 1 1 300 298 775
1090 2 2 1 1 359 358 360
1091 2 2 1 1 824 549 852
1092 2 2 1 1 217 213 221
1093 2 2 1 1 207 203 215
1094 2 2 1 1 245 247 289
1095 2 2 1 1 190 188 778
1096 2 2 1 1 343 342 382
1097 2 2 1 1 265 266 267
1098 2 2 1 1 438 437 509
1099 2 2 1 1 459 457 545
1100 2 2 1 1 278 276 279
1101 2 2 1 1 497 498 499
1102 2 2 1 1 504 498 505
1103 2 2 1 1 323 436 778
1104 2 2 1 1 454 455 456
1105 2 2 1 1 438 513 795
1106 2 2 1 1 288 312 788
1107 2 2 1 1 497 495 498
1108 2 2 1 1 229 231 403
1109 2 2 1 1 271 270 272
1110 2 2 1 1 464 465 466
1111 2 2 1 1 449 446 746
1112 2 2 1 1 672 670 673
1113 2 2 1 1 369 371 373
1114 2 2 1 1 216 213 217
1115 2 2 1 1 218 217 220
1116 2 2 1 1 47 48 779
1117 2 2 1 1 504 505 597
1118 2 2 1 1 349 702 735
1119 2 2 1 1 317 788 799
1120 2 2 1 1 436 434 437
1121 2 2 1 1 223 218 748
1122 2 2 1 1 436 437 438
1123 2 2 1 1 479 480 481
1124 2 2 1 1 323 434 436
1125 2 2 1 1 377 325 426
1126 2 2 1 1 404 255 776
1127 2 2 1 1 322 402 761
1128 2 2 1 1 750 703 784
1129 2 2 1 1 192 194 774
1130 2 2 1 1 295 338 340
1131 2 2 1 1 351 341 352
1132 2 2 1 1 92 93 783
1133 2 2 1 1 400 235 772
1134 2 2 1 1 371 383 410
1135 2 2 1 1 201 199 316
1136 2 2 1 1 499 498 504
1137 2 2 1 1 262 299 782
1138 2 2 1 1 231 233 770
1139 2 2 1 1 175 176 177
1140 2 2 1 1 408 250 409
1141 2 2 1 1 253 251 769
1142 2 2 1 1 454 453 455
1143 2 2 1 1 235 237 772
1144 2 2 1 1 501 409 502
1145 2 2 1 1 439 205 774
1146 2 2 1 1 72 73 121
1147 2 2 1 1 574 577 622
1148 2 2 1 1 766 212 793
1149 2 2 1 1 261 259 773
1150 2 2 1 1 735 702 736
1151 2 2 1 1 291 293 546
1152 2 2 1 1 221 213 790
1153 2 2 1 1 237 398 772
1154 2 2 1 1 673 670 777
1155 2 2 1 1 211 210 213
1156 2 2 1 1 269 270 271
1157 2 2 1 1 241 242 243
1158 2 2 1 1 538 441 600
1159 2 2 1 1 23 24 122
1160 2 2 1 1 247 248 249
1161 2 2 1 1 441 406 443
1162 2 2 1 1 233 400 770
1163 2 2 1 1 249 248 250
1164 2 2 1 1 192 193 194
1165 2 2 1 1 265 264 266
1166 2 2 1 1 282 279 283
1167 2 2 1 1 476 473 477
1168 2 2 1 1 456 455 457
1169 2 2 1 1 674 672 675
1170 2 2 1 1 471 456 810
1171 2 2 1 1 481 482 483
1172 2 2 1 1 267 268 269
1173 2 2 1 1 284 282 286
1174 2 2 1 1 179 178 180
1175 2 2 1 1 795 513 806
1176 2 2 1 1 508 869 871
1177 2 2 1 1 241 243 401
1178 2 2 1 1 552 553 555
1179 2 2 1 1 671 672 674
1180 2 2 1 1 255 253 256
1181 2 2 1 1 402 406 441
1182 2 2 1 1 257 260 776
1183 2 2 1 1 663 404 776
1184 2 2 1 1 322 321 402
1185 2 2 1 1 508 596 869
1186 2 2 1 1 192 189 193
1187 2 2 1 1 243 242 244
1188 2 2 1 1 325 322 761
1189 2 2 1 1 671 670 672
1190 2 2 1 1 281 279 282
1191 2 2 1 1 45 46 765
1192 2 2 1 1 649 627 650
1193 2 2 1 1 593 592 594
1194 2 2 1 1 109 110 154
1195 2 2 1 1 194 195 196
1196 2 2 1 1 48 49 139
1197 2 2 1 1 255 256 257
1198 2 2 1 1 455 453 475
1199 2 2 1 1 408 409 501
1200 2 2 1 1 340 725 794
1201 2 2 1 1 410 540 541
1202 2 2 1 1 522 521 523
1203 2 2 1 1 287 286 288
1204 2 2 1 1 46 47 161
1205 2 2 1 1 130 28 633
1206 2 2 1 1 403 231 770
1207 2 2 1 1 255 257 776
1208 2 2 1 1 305 440 798
1209 2 2 1 1 272 270 280
1210 2 2 1 1 410 419 540
1211 2 2 1 1 490 493 527
1212 2 2 1 1 348 278 802
1213 2 2 1 1 398 239 785
1214 2 2 1 1 239 241 785
1215 2 2 1 1 320 319 342
1216 2 2 1 1 388 389 390
1217 2 2 1 1 402 321 406
1218 2 2 1 1 340 338 341
1219 2 2 1 1 373 371 797
1220 2 2 1 1 442 384 537
1221 2 2 1 1 757 508 871
1222 2 2 1 1 259 291 773
1223 2 2 1 1 832 793 834
1224 2 2 1 1 386 533 751
1225 2 2 1 1 196 197 198
1226 2 2 1 1 356 354 379
1227 2 2 1 1 483 484 485
1228 2 2 1 1 355 354 356
1229 2 2 1 1 175 173 176
1230 2 2 1 1 264 261 773
1231 2 2 1 1 297 768 803
1232 2 2 1 1 312 311 313
1233 2 2 1 1 213 210 790
1234 2 2 1 1 251 250 408
1235 2 2 1 1 257 258 259
1236 2 2 1 1 408 501 547
1237 2 2 1 1 241 401 785
1238 2 2 1 1 360 358 378
1239 2 2 1 1 395 394 396
1240 2 2 1 1 410 541 797
1241 2 2 1 1 495 297 803
1242 2 2 1 1 406 321 798
1243 2 2 1 1 511 377 815
1244 2 2 1 1 290 223 748
1245 2 2 1 1 505 498 803
1246 2 2 1 1 436 438 795
1247 2 2 1 1 595 439 801
1248 2 2 1 1 505 803 813
1249 2 2 1 1 273 750 823
1250 2 2 1 1 371 410 797
1251 2 2 1 1 282 283 796
1252 2 2 1 1 357 356 358
1253 2 2 1 1 540 419 542
1254 2 2 1 1 307 305 798
1255 2 2 1 1 408 547 769
1256 2 2 1 1 129 670 671
1257 2 2 1 1 187 185 350
1258 2 2 1 1 198 199 200
1259 2 2 1 1 524 415 611
1260 2 2 1 1 774 346 801
1261 2 2 1 1 321 307 798
1262 2 2 1 1 267 266 268
1263 2 2 1 1 757 871 875
1264 2 2 1 1 189 187 789
1265 2 2 1 1 177 176 178
1266 2 2 1 1 18 19 822
1267 2 2 1 1 388 336 389
1268 2 2 1 1 806 870 875
1269 2 2 1 1 460 462 464
1270 2 2 1 1 190 778 795
1271 2 2 1 1 142 653 654
1272 2 2 1 1 481 483 488
1273 2 2 1 1 50 51 164
1274 2 2 1 1 227 229 812
1275 2 2 1 1 763 227 812
1276 2 2 1 1 288 286 311
1277 2 2 1 1 778 436 795
1278 2 2 1 1 352 341 380
1279 2 2 1 1 251 408 769
1280 2 2 1 1 485 487 490
1281 2 2 1 1 458 690 810
1282 2 2 1 1 803 768 813
1283 2 2 1 1 319 313 344
1284 2 2 1 1 194 193 195
1285 2 2 1 1 439 774 801
1286 2 2 1 1 280 855 859
1287 2 2 1 1 269 268 270
1288 2 2 1 1 535 397 536
1289 2 2 1 1 190 795 806
1290 2 2 1 1 764 190 806
1291 2 2 1 1 501 502 507
1292 2 2 1 1 171 170 583
1293 2 2 1 1 33 34 156
1294 2 2 1 1 288 311 312
1295 2 2 1 1 498 495 803
1296 2 2 1 1 49 50 786
1297 2 2 1 1 247 246 248
1298 2 2 1 1 245 244 246
1299 2 2 1 1 259 258 291
1300 2 2 1 1 268 266 407
1301 2 2 1 1 791 475 837
1302 2 2 1 1 493 516 550
1303 2 2 1 1 161 47 779
1304 2 2 1 1 291 258 292
1305 2 2 1 1 848 548 864
1306 2 2 1 1 328 317 799
1307 2 2 1 1 490 527 809
1308 2 2 1 1 243 244 245
1309 2 2 1 1 295 337 338
1310 2 2 1 1 196 195 197
1311 2 2 1 1 761 538 835
1312 2 2 1 1 295 294 337
1313 2 2 1 1 377 426 815
1314 2 2 1 1 245 246 247
1315 2 2 1 1 152 825 829
1316 2 2 1 1 490 487 491
1317 2 2 1 1 395 396 422
1318 2 2 1 1 491 487 708
1319 2 2 1 1 311 286 796
1320 2 2 1 1 256 253 769
1321 2 2 1 1 48 139 779
1322 2 2 1 1 798 440 811
1323 2 2 1 1 293 294 295
1324 2 2 1 1 837 449 851
1325 2 2 1 1 156 651 656
1326 2 2 1 1 671 674 833
1327 2 2 1 1 291 292 293
1328 2 2 1 1 293 292 294
1329 2 2 1 1 46 161 765
1330 2 2 1 1 390 391 392
1331 2 2 1 1 527 618 904
1332 2 2 1 1 193 189 789
1333 2 2 1 1 393 391 394
1334 2 2 1 1 462 461 463
1335 2 2 1 1 847 695 849
1336 2 2 1 1 415 328 799
1337 2 2 1 1 197 195 214
1338 2 2 1 1 440 771 811
1339 2 2 1 1 611 415 799
1340 2 2 1 1 6 7 165
1341 2 2 1 1 257 256 258
1342 2 2 1 1 367 362 385
1343 2 2 1 1 185 183 792
1344 2 2 1 1 198 197 199
1345 2 2 1 1 344 384 442
1346 2 2 1 1 811 771 823
1347 2 2 1 1 463 473 476
1348 2 2 1 1 477 479 489
1349 2 2 1 1 390 389 391
1350 2 2 1 1 430 386 751
1351 2 2 1 1 450 449 837
1352 2 2 1 1 73 74 819
1353 2 2 1 1 266 264 805
1354 2 2 1 1 426 325 761
1355 2 2 1 1 443 811 823
1356 2 2 1 1 200 199 201
1357 2 2 1 1 286 282 796
1358 2 2 1 1 121 73 819
1359 2 2 1 1 518 520 582
1360 2 2 1 1 790 766 832
1361 2 2 1 1 375 704 824
1362 2 2 1 1 542 571 598
1363 2 2 1 1 406 798 811
1364 2 2 1 1 264 773 805
1365 2 2 1 1 443 406 811
1366 2 2 1 1 456 457 458
1367 2 2 1 1 545 457 834
1368 2 2 1 1 229 403 812
1369 2 2 1 1 149 665 860
1370 2 2 1 1 758 389 826
1371 2 2 1 1 312 313 319
1372 2 2 1 1 338 337 381
1373 2 2 1 1 490 491 493
1374 2 2 1 1 139 49 786
1375 2 2 1 1 187 350 789
1376 2 2 1 1 738 739 828
1377 2 2 1 1 793 212 843
1378 2 2 1 1 844 221 851
1379 2 2 1 1 393 394 395
1380 2 2 1 1 773 546 805
1381 2 2 1 1 768 181 813
1382 2 2 1 1 794 725 842
1383 2 2 1 1 38 141 632
1384 2 2 1 1 392 391 393
1385 2 2 1 1 466 465 468
1386 2 2 1 1 63 64 166
1387 2 2 1 1 183 180 222
1388 2 2 1 1 579 474 580
1389 2 2 1 1 745 738 828
1390 2 2 1 1 464 462 465
1391 2 2 1 1 309 324 839
1392 2 2 1 1 129 669 670
1393 2 2 1 1 493 491 516
1394 2 2 1 1 819 705 846
1395 2 2 1 1 424 422 562
1396 2 2 1 1 488 483 809
1397 2 2 1 1 178 176 376
1398 2 2 1 1 458 457 459
1399 2 2 1 1 350 185 792
1400 2 2 1 1 386 385 533
1401 2 2 1 1 395 422 424
1402 2 2 1 1 407 266 805
1403 2 2 1 1 497 500 848
1404 2 2 1 1 545 793 843
1405 2 2 1 1 796 688 876
1406 2 2 1 1 455 475 834
1407 2 2 1 1 853 149 857
1408 2 2 1 1 822 671 833
1409 2 2 1 1 392 393 397
1410 2 2 1 1 460 459 461
1411 2 2 1 1 339 294 841
1412 2 2 1 1 483 485 809
1413 2 2 1 1 360 378 831
1414 2 2 1 1 152 621 825
1415 2 2 1 1 485 490 809
1416 2 2 1 1 173 171 838
1417 2 2 1 1 613 865 881
1418 2 2 1 1 180 178 814
1419 2 2 1 1 160 18 822
1420 2 2 1 1 536 551 554
1421 2 2 1 1 389 336 826
1422 2 2 1 1 344 442 816
1423 2 2 1 1 456 458 810
1424 2 2 1 1 336 290 826
1425 2 2 1 1 382 342 418
1426 2 2 1 1 441 443 840
1427 2 2 1 1 777 163 830
1428 2 2 1 1 290 748 826
1429 2 2 1 1 463 476 817
1430 2 2 1 1 730 543 856
1431 2 2 1 1 256 769 827
1432 2 2 1 1 506 698 859
1433 2 2 1 1 75 76 149
1434 2 2 1 1 50 164 786
1435 2 2 1 1 716 854 862
1436 2 2 1 1 107 108 137
1437 2 2 1 1 475 453 837
1438 2 2 1 1 771 273 823
1439 2 2 1 1 442 537 561
1440 2 2 1 1 788 320 818
1441 2 2 1 1 443 784 840
1442 2 2 1 1 319 344 816
1443 2 2 1 1 258 256 827
1444 2 2 1 1 553 430 751
1445 2 2 1 1 280 689 861
1446 2 2 1 1 746 445 847
1447 2 2 1 1 793 545 834
1448 2 2 1 1 362 360 831
1449 2 2 1 1 462 463 817
1450 2 2 1 1 220 847 849
1451 2 2 1 1 458 459 460
1452 2 2 1 1 292 258 827
1453 2 2 1 1 460 461 462
1454 2 2 1 1 78 79 631
1455 2 2 1 1 769 547 827
1456 2 2 1 1 827 547 841
1457 2 2 1 1 468 465 469
1458 2 2 1 1 536 397 551
1459 2 2 1 1 424 562 563
1460 2 2 1 1 183 222 792
1461 2 2 1 1 457 455 834
1462 2 2 1 1 292 827 841
1463 2 2 1 1 342 319 816
1464 2 2 1 1 575 523 581
1465 2 2 1 1 220 217 844
1466 2 2 1 1 510 866 873
1467 2 2 1 1 510 509 867
1468 2 2 1 1 791 837 851
1469 2 2 1 1 533 385 534
1470 2 2 1 1 826 748 849
1471 2 2 1 1 418 342 816
1472 2 2 1 1 453 450 837
1473 2 2 1 1 385 362 831
1474 2 2 1 1 40 41 162
1475 2 2 1 1 426 761 835
1476 2 2 1 1 65 66 147
1477 2 2 1 1 178 376 814
1478 2 2 1 1 766 793 832
1479 2 2 1 1 474 468 821
1480 2 2 1 1 713 715 862
1481 2 2 1 1 746 844 851
1482 2 2 1 1 544 661 852
1483 2 2 1 1 543 499 856
1484 2 2 1 1 222 180 814
1485 2 2 1 1 555 553 558
1486 2 2 1 1 393 395 820
1487 2 2 1 1 693 512 878
1488 2 2 1 1 407 731 855
1489 2 2 1 1 549 860 863
1490 2 2 1 1 207 215 854
1491 2 2 1 1 171 583 838
1492 2 2 1 1 855 731 859
1493 2 2 1 1 824 704 857
1494 2 2 1 1 805 546 842
1495 2 2 1 1 501 507 845
1496 2 2 1 1 160 822 833
1497 2 2 1 1 407 805 842
1498 2 2 1 1 324 375 839
1499 2 2 1 1 176 173 838
1500 2 2 1 1 465 462 817
1501 2 2 1 1 395 424 820
1502 2 2 1 1 397 393 820
1503 2 2 1 1 758 826 849
1504 2 2 1 1 705 853 857
1505 2 2 1 1 534 385 831
1506 2 2 1 1 600 441 840
1507 2 2 1 1 759 545 843
1508 2 2 1 1 716 843 854
1509 2 2 1 1 469 465 817
1510 2 2 1 1 546 794 842
1511 2 2 1 1 221 791 851
1512 2 2 1 1 695 758 849
1513 2 2 1 1 445 695 847
1514 2 2 1 1 268 407 855
1515 2 2 1 1 217 221 844
1516 2 2 1 1 742 509 879
1517 2 2 1 1 376 176 838
1518 2 2 1 1 876 688 877
1519 2 2 1 1 820 424 850
1520 2 2 1 1 612 121 865
1521 2 2 1 1 580 474 821
1522 2 2 1 1 294 292 841
1523 2 2 1 1 844 746 847
1524 2 2 1 1 839 375 852
1525 2 2 1 1 819 74 853
1526 2 2 1 1 280 270 855
1527 2 2 1 1 468 469 821
1528 2 2 1 1 551 397 820
1529 2 2 1 1 272 280 861
1530 2 2 1 1 588 130 633
1531 2 2 1 1 748 220 849
1532 2 2 1 1 547 501 845
1533 2 2 1 1 500 548 848
1534 2 2 1 1 444 511 846
1535 2 2 1 1 551 820 850
1536 2 2 1 1 339 841 845
1537 2 2 1 1 860 665 863
1538 2 2 1 1 662 664 866
1539 2 2 1 1 345 313 876
1540 2 2 1 1 220 844 847
1541 2 2 1 1 121 819 846
1542 2 2 1 1 643 848 864
1543 2 2 1 1 657 514 882
1544 2 2 1 1 661 839 852
1545 2 2 1 1 311 796 876
1546 2 2 1 1 75 149 853
1547 2 2 1 1 596 813 869
1548 2 2 1 1 74 75 853
1549 2 2 1 1 548 549 863
1550 2 2 1 1 743 405 867
1551 2 2 1 1 449 746 851
1552 2 2 1 1 212 207 854
1553 2 2 1 1 764 806 875
1554 2 2 1 1 841 547 845
1555 2 2 1 1 203 201 872
1556 2 2 1 1 704 705 857
1557 2 2 1 1 509 437 879
1558 2 2 1 1 375 824 852
1559 2 2 1 1 705 819 853
1560 2 2 1 1 813 181 869
1561 2 2 1 1 870 757 875
1562 2 2 1 1 542 598 868
1563 2 2 1 1 499 504 856
1564 2 2 1 1 270 268 855
1565 2 2 1 1 856 504 858
1566 2 2 1 1 824 857 860
1567 2 2 1 1 504 597 858
1568 2 2 1 1 424 563 850
1569 2 2 1 1 857 149 860
1570 2 2 1 1 731 506 859
1571 2 2 1 1 549 824 860
1572 2 2 1 1 151 613 886
1573 2 2 1 1 524 889 890
1574 2 2 1 1 665 124 863
1575 2 2 1 1 866 510 867
1576 2 2 1 1 843 212 854
1577 2 2 1 1 863 124 864
1578 2 2 1 1 277 272 861
1579 2 2 1 1 715 716 862
1580 2 2 1 1 199 197 880
1581 2 2 1 1 582 125 902
1582 2 2 1 1 664 412 873
1583 2 2 1 1 414 515 884
1584 2 2 1 1 872 316 878
1585 2 2 1 1 124 631 864
1586 2 2 1 1 714 872 878
1587 2 2 1 1 405 662 866
1588 2 2 1 1 195 193 883
1589 2 2 1 1 749 296 871
1590 2 2 1 1 121 846 865
1591 2 2 1 1 631 643 864
1592 2 2 1 1 412 757 870
1593 2 2 1 1 869 749 871
1594 2 2 1 1 540 542 868
1595 2 2 1 1 181 749 869
1596 2 2 1 1 871 296 875
1597 2 2 1 1 541 540 874
1598 2 2 1 1 412 870 873
1599 2 2 1 1 540 868 874
1600 2 2 1 1 870 513 873
1601 2 2 1 1 513 510 873
1602 2 2 1 1 296 764 875
1603 2 2 1 1 201 316 872
1604 2 2 1 1 806 513 870
1605 2 2 1 1 313 311 876
1606 2 2 1 1 880 214 882
1607 2 2 1 1 688 687 877
1608 2 2 1 1 512 714 878
1609 2 2 1 1 437 584 879
1610 2 2 1 1 846 511 865
1611 2 2 1 1 694 880 882
1612 2 2 1 1 197 214 880
1613 2 2 1 1 613 884 886
1614 2 2 1 1 511 815 881
1615 2 2 1 1 405 866 867
1616 2 2 1 1 514 694 882
1617 2 2 1 1 865 511 881
1618 2 2 1 1 524 601 889
1619 2 2 1 1 68 138 888
1620 2 2 1 1 193 789 883
1621 2 2 1 1 601 602 889
1622 2 2 1 1 658 659 885
1623 2 2 1 1 660 658 887
1624 2 2 1 1 526 660 891
1625 2 2 1 1 895 583 897
1626 2 2 1 1 425 414 884
1627 2 2 1 1 889 138 890
1628 2 2 1 1 520 519 893
1629 2 2 1 1 85 86 894
1630 2 2 1 1 99 100 898
1631 2 2 1 1 519 526 892
1632 2 2 1 1 884 515 886
1633 2 2 1 1 624 886 890
1634 2 2 1 1 624 151 886
1635 2 2 1 1 658 885 887
1636 2 2 1 1 883 789 885
1637 2 2 1 1 886 515 890
1638 2 2 1 1 125 87 901
1639 2 2 1 1 660 887 891
1640 2 2 1 1 659 883 885
1641 2 2 1 1 520 893 895
1642 2 2 1 1 521 579 900
1643 2 2 1 1 789 350 885
1644 2 2 1 1 469 909 910
1645 2 2 1 1 88 610 901
1646 2 2 1 1 147 66 896
1647 2 2 1 1 519 892 893
1648 2 2 1 1 138 624 890
1649 2 2 1 1 493 550 899
1650 2 2 1 1 98 143 903
1651 2 2 1 1 885 350 887
1652 2 2 1 1 526 891 892
1653 2 2 1 1 350 792 887
1654 2 2 1 1 67 68 888
1655 2 2 1 1 550 516 902
1656 2 2 1 1 515 524 890
1657 2 2 1 1 518 582 902
1658 2 2 1 1 838 583 895
1659 2 2 1 1 581 523 900
1660 2 2 1 1 481 488 906
1661 2 2 1 1 887 792 891
1662 2 2 1 1 809 527 904
1663 2 2 1 1 150 894 897
1664 2 2 1 1 489 479 906
1665 2 2 1 1 888 138 889
1666 2 2 1 1 520 895 897
1667 2 2 1 1 602 888 889
1668 2 2 1 1 136 96 907
1669 2 2 1 1 792 222 891
1670 2 2 1 1 616 804 905
1671 2 2 1 1 477 489 908
1672 2 2 1 1 894 582 897
1673 2 2 1 1 891 222 892
1674 2 2 1 1 67 888 896
1675 2 2 1 1 222 814 892
1676 2 2 1 1 583 150 897
1677 2 2 1 1 469 817 909
1678 2 2 1 1 888 602 896
1679 2 2 1 1 892 814 893
1680 2 2 1 1 150 85 894
1681 2 2 1 1 814 376 893
1682 2 2 1 1 582 520 897
1683 2 2 1 1 893 376 895
1684 2 2 1 1 66 67 896
1685 2 2 1 1 376 838 895
1686 2 2 1 1 143 99 898
1687 2 2 1 1 527 493 899
1688 2 2 1 1 87 88 901
1689 2 2 1 1 523 521 900
1690 2 2 1 1 516 518 902
1691 2 2 1 1 97 98 903
1692 2 2 1 1 488 809 904
1693 2 2 1 1 617 616 905
1694 2 2 1 1 97 903 907
1695 2 2 1 1 909 647 910
1696 2 2 1 1 479 481 906
1697 2 2 1 1 96 97 907
1698 2 2 1 1 581 167 912
1699 2 2 1 1 476 477 908
1700 2 2 1 1 646 136 911
1701 2 2 1 1 476 908 909
1702 2 2 1 1 817 476 909
1703 2 2 1 1 647 646 910
1704 2 2 1 1 910 646 911
1705 2 2 1 1 821 469 910
1706 2 2 1 1 821 910 911
1707 2 2 1 1 580 821 911
1708 2 2 1 1 575 581 912
1709 2 2 1 1 447 448 913
1710 2 2 1 1 451 565 913
1711 2 2 1 1 383 421 914
1712 2 2 1 1 570 419 914
1713 2 2 1 1 448 451 913
1714 2 2 1 1 419 383 914
1715 2 2 1 1 946 692 948
1716 2 2 1 1 564 562 954
1717 2 2 1 1 914 421 945
1718 2 2 1 1 135 57 915
1719 2 2 1 1 58 706 915
1720 2 2 1 1 561 620 956
1721 2 2 1 1 642 961 998
1722 2 2 1 1 590 589 924
1723 2 2 1 1 42 168 917
1724 2 2 1 1 162 41 917
1725 2 2 1 1 141 39 918
1726 2 2 1 1 751 752 916
1727 2 2 1 1 586 587 925
1728 2 2 1 1 558 553 916
1729 2 2 1 1 641 640 932
1730 2 2 1 1 40 162 918
1731 2 2 1 1 329 246 919
1732 2 2 1 1 244 330 919
1733 2 2 1 1 755 754 921
1734 2 2 1 1 673 777 920
1735 2 2 1 1 331 238 922
1736 2 2 1 1 236 332 922
1737 2 2 1 1 830 593 920
1738 2 2 1 1 651 652 932
1739 2 2 1 1 752 533 923
1740 2 2 1 1 652 650 930
1741 2 2 1 1 723 733 931
1742 2 2 1 1 639 641 936
1743 2 2 1 1 733 668 937
1744 2 2 1 1 17 160 929
1745 2 2 1 1 502 529 928
1746 2 2 1 1 123 16 929
1747 2 2 1 1 356 379 927
1748 2 2 1 1 722 720 931
1749 2 2 1 1 627 628 930
1750 2 2 1 1 378 358 927
1751 2 2 1 1 379 354 933
1752 2 2 1 1 636 635 936
1753 2 2 1 1 158 14 935
1754 2 2 1 1 352 380 933
1755 2 2 1 1 15 123 935
1756 2 2 1 1 532 559 937
1757 2 2 1 1 13 158 939
1758 2 2 1 1 134 12 939
1759 2 2 1 1 531 387 940
1760 2 2 1 1 380 341 938
1761 2 2 1 1 338 381 938
1762 2 2 1 1 534 831 926
1763 2 2 1 1 388 417 940
1764 2 2 1 1 709 710 941
1765 2 2 1 1 654 653 941
1766 2 2 1 1 392 535 942
1767 2 2 1 1 417 390 942
1768 2 2 1 1 8 142 943
1769 2 2 1 1 165 7 943
1770 2 2 1 1 560 536 944
1771 2 2 1 1 572 914 945
1772 2 2 1 1 471 692 946
1773 2 2 1 1 568 740 946
1774 2 2 1 1 915 706 949
1775 2 2 1 1 330 755 993
1776 2 2 1 1 674 989 991
1777 2 2 1 1 674 675 989
1778 2 2 1 1 833 991 992
1779 2 2 1 1 833 674 991
1780 2 2 1 1 986 592 987
1781 2 2 1 1 594 592 986
1782 2 2 1 1 160 833 992
1783 2 2 1 1 592 590 987
1784 2 2 1 1 559 531 988
1785 2 2 1 1 142 654 990
1786 2 2 1 1 57 58 915
1787 2 2 1 1 569 946 948
1788 2 2 1 1 961 554 998
1789 2 2 1 1 620 915 949
1790 2 2 1 1 606 603 950
1791 2 2 1 1 61 62 950
1792 2 2 1 1 5 6 951
1793 2 2 1 1 114 140 952
1794 2 2 1 1 41 42 917
1795 2 2 1 1 553 751 916
1796 2 2 1 1 39 40 918
1797 2 2 1 1 153 586 925
1798 2 2 1 1 246 244 919
1799 2 2 1 1 924 153 925
1800 2 2 1 1 777 830 920
1801 2 2 1 1 754 331 921
1802 2 2 1 1 589 153 924
1803 2 2 1 1 238 236 922
1804 2 2 1 1 640 651 932
1805 2 2 1 1 637 636 934
1806 2 2 1 1 533 534 923
1807 2 2 1 1 831 378 926
1808 2 2 1 1 507 502 928
1809 2 2 1 1 16 17 929
1810 2 2 1 1 358 356 927
1811 2 2 1 1 650 627 930
1812 2 2 1 1 635 639 936
1813 2 2 1 1 720 723 931
1814 2 2 1 1 354 352 933
1815 2 2 1 1 14 15 935
1816 2 2 1 1 668 532 937
1817 2 2 1 1 341 338 938
1818 2 2 1 1 12 13 939
1819 2 2 1 1 387 388 940
1820 2 2 1 1 653 709 941
1821 2 2 1 1 390 392 942
1822 2 2 1 1 7 8 943
1823 2 2 1 1 536 554 944
1824 2 2 1 1 421 712 945
1825 2 2 1 1 740 471 946
1826 2 2 1 1 921 331 979
1827 2 2 1 1 507 928 984
1828 2 2 1 1 637 934 983
1829 2 2 1 1 923 534 982
1830 2 2 1 1 926 378 981
1831 2 2 1 1 934 636 980
1832 2 2 1 1 154 569 960
1833 2 2 1 1 949 953 994
1834 2 2 1 1 949 605 953
1835 2 2 1 1 420 382 953
1836 2 2 1 1 555 558 947
1837 2 2 1 1 567 132 964
1838 2 2 1 1 131 572 963
1839 2 2 1 1 423 447 954
1840 2 2 1 1 562 422 954
1841 2 2 1 1 779 139 965
1842 2 2 1 1 442 561 956
1843 2 2 1 1 418 816 956
1844 2 2 1 1 692 623 948
1845 2 2 1 1 577 578 957
1846 2 2 1 1 169 951 961
1847 2 2 1 1 607 420 995
1848 2 2 1 1 706 605 949
1849 2 2 1 1 603 61 950
1850 2 2 1 1 6 165 951
1851 2 2 1 1 113 114 952
1852 2 2 1 1 45 765 959
1853 2 2 1 1 109 154 960
1854 2 2 1 1 137 108 960
1855 2 2 1 1 561 537 962
1856 2 2 1 1 630 563 966
1857 2 2 1 1 134 939 988
1858 2 2 1 1 329 919 986
1859 2 2 1 1 942 535 990
1860 2 2 1 1 922 332 989
1861 2 2 1 1 920 593 993
1862 2 2 1 1 52 131 963
1863 2 2 1 1 164 51 963
1864 2 2 1 1 132 112 964
1865 2 2 1 1 728 557 965
1866 2 2 1 1 140 115 966
1867 2 2 1 1 116 630 966
1868 2 2 1 1 948 957 997
1869 2 2 1 1 166 64 968
1870 2 2 1 1 65 147 968
1871 2 2 1 1 104 146 967
1872 2 2 1 1 111 132 969
1873 2 2 1 1 154 110 969
1874 2 2 1 1 54 155 970
1875 2 2 1 1 131 53 970
1876 2 2 1 1 554 551 971
1877 2 2 1 1 552 555 972
1878 2 2 1 1 525 416 975
1879 2 2 1 1 602 525 974
1880 2 2 1 1 147 896 974
1881 2 2 1 1 155 619 962
1882 2 2 1 1 919 594 986
1883 2 2 1 1 939 559 988
1884 2 2 1 1 654 942 990
1885 2 2 1 1 675 922 989
1886 2 2 1 1 755 920 993
1887 2 2 1 1 912 167 977
1888 2 2 1 1 4 102 977
1889 2 2 1 1 120 1 978
1890 2 2 1 1 101 4 977
1891 2 2 1 1 1 5 978
1892 2 2 1 1 3 63 976
1893 2 2 1 1 62 3 976
1894 2 2 1 1 632 141 982
1895 2 2 1 1 672 673 979
1896 2 2 1 1 337 339 980
1897 2 2 1 1 626 629 981
1898 2 2 1 1 587 588 984
1899 2 2 1 1 339 845 983
1900 2 2 1 1 948 623 957
1901 2 2 1 1 604 607 995
1902 2 2 1 1 765 947 959
1903 2 2 1 1 642 169 961
1904 2 2 1 1 447 913 955
1905 2 2 1 1 576 146 973
1906 2 2 1 1 420 607 975
1907 2 2 1 1 382 418 953
1908 2 2 1 1 947 168 959
1909 2 2 1 1 43 2 985
1910 2 2 1 1 2 44 985
1911 2 2 1 1 712 728 958
1912 2 2 1 1 141 923 982
1913 2 2 1 1 673 921 979
1914 2 2 1 1 629 926 981
1915 2 2 1 1 339 934 980
1916 2 2 1 1 928 587 984
1917 2 2 1 1 934 339 983
1918 2 2 1 1 422 423 954
1919 2 2 1 1 953 418 994
1920 2 2 1 1 945 712 958
1921 2 2 1 1 113 952 964
1922 2 2 1 1 957 137 997
1923 2 2 1 1 816 442 956
1924 2 2 1 1 623 577 957
1925 2 2 1 1 786 164 958
1926 2 2 1 1 913 567 955
1927 2 2 1 1 146 105 973
1928 2 2 1 1 607 609 975
1929 2 2 1 1 44 45 959
1930 2 2 1 1 912 103 967
1931 2 2 1 1 106 578 973
1932 2 2 1 1 108 109 960
1933 2 2 1 1 537 598 962
1934 2 2 1 1 105 106 973
1935 2 2 1 1 51 52 963
1936 2 2 1 1 112 113 964
1937 2 2 1 1 557 556 965
1938 2 2 1 1 115 116 966
1939 2 2 1 1 420 953 995
1940 2 2 1 1 944 554 961
1941 2 2 1 1 103 104 967
1942 2 2 1 1 64 65 968
1943 2 2 1 1 575 912 967
1944 2 2 1 1 110 111 969
1945 2 2 1 1 53 54 970
1946 2 2 1 1 551 850 971
1947 2 2 1 1 556 552 972
1948 2 2 1 1 578 576 973
1949 2 2 1 1 896 602 974
1950 2 2 1 1 416 420 975
1951 2 2 1 1 950 62 976
1952 2 2 1 1 5 951 978
1953 2 2 1 1 972 555 999
1954 2 2 1 1 554 971 998
1955 2 2 1 1 964 952 996
1956 2 2 1 1 959 168 985
1957 2 2 1 1 168 43 985
1958 2 2 1 1 167 101 977
1959 2 2 1 1 169 120 978
1960 2 2 1 1 63 166 976
1961 2 2 1 1 418 956 994
1962 2 2 1 1 137 960 997
1963 2 2 1 1 675 672 979
1964 2 2 1 1 381 337 980
1965 2 2 1 1 629 632 982
1966 2 2 1 1 628 626 981
1967 2 2 1 1 588 637 984
1968 2 2 1 1 845 507 983
1969 2 2 1 1 952 564 996
1970 2 2 1 1 655 329 986
1971 2 2 1 1 655 986 987
1972 2 2 1 1 530 655 987
1973 2 2 1 1 710 134 988
1974 2 2 1 1 332 724 989
1975 2 2 1 1 535 560 990
1976 2 2 1 1 989 724 991
1977 2 2 1 1 724 721 991
1978 2 2 1 1 991 721 992
1979 2 2 1 1 721 722 992
1980 2 2 1 1 593 594 993
1981 2 2 1 1 953 605 995
1982 2 2 1 1 605 604 995
1983 2 2 1 1 145 642 998
1984 2 2 1 1 765 161 999
1985 2 2 1 1 166 950 976
1986 2 2 1 1 951 169 978
1987 2 2 1 1 564 955 996
1988 2 2 1 1 620 949 994
1989 2 2 1 1 569 948 997
1990 2 2 1 1 956 620 994
1991 2 2 1 1 44 959 985
1992 2 2 1 1 567 964 996
1993 2 2 1 1 955 567 996
1994 2 2 1 1 960 569 997
1995 2 2 1 1 971 145 998
1996 2 2 1 1 161 972 999
$EndElements
